<?xml version="1.0" encoding="UTF-8"?>
<svg xmlns="http://www.w3.org/2000/svg" width="2048" height="2048" viewBox="0 0 2048 2048" role="img" aria-label="D12 UV island mask">
  <rect width="100%" height="100%" fill="#000000" />
  <g fill="#ffffff">
    <polygon points="205.479,230.197 409.271,230.197 472.248,424.016 307.375,543.803 142.502,424.016" />
    <polygon points="620.253,349.984 785.125,230.197 949.997,349.984 887.021,543.803 683.229,543.803" />
    <polygon points="1225.859,222.127 1419.678,285.104 1419.678,488.896 1225.859,551.872 1106.072,387" />
    <polygon points="1583.822,285.104 1777.641,222.127 1897.428,387 1777.641,551.872 1583.822,488.896" />
    <polygon points="205.479,867.197 409.271,867.197 472.248,1061.016 307.375,1180.803 142.502,1061.016" />
    <polygon points="620.253,986.984 785.125,867.197 949.997,986.984 887.021,1180.803 683.229,1180.803" />
    <polygon points="1160.979,867.197 1364.771,867.197 1427.747,1061.016 1262.875,1180.803 1098.003,1061.016" />
    <polygon points="1575.753,986.984 1740.625,867.197 1905.497,986.984 1842.521,1180.803 1638.729,1180.803" />
    <polygon points="150.572,1559.104 344.391,1496.128 464.178,1661 344.391,1825.872 150.572,1762.896" />
    <polygon points="748.109,1496.128 941.928,1559.104 941.928,1762.896 748.109,1825.872 628.322,1661" />
    <polygon points="1160.979,1504.197 1364.771,1504.197 1427.747,1698.016 1262.875,1817.803 1098.003,1698.016" />
    <polygon points="1575.753,1623.984 1740.625,1504.197 1905.497,1623.984 1842.521,1817.803 1638.729,1817.803" />
  </g>
</svg>
