<svg xmlns="http://www.w3.org/2000/svg" width="760" height="760" viewBox="0 0 760 760" role="img" aria-labelledby="title desc">
<title id="title">Daisu D6 UV atlas template</title>
<desc id="desc">Canonical D6 cube-cross template with face labels, orientation arrows, bleed, safe zones, and seam danger zones.</desc>
<rect width="760" height="760" fill="#101217"/>
<text x="38" y="38" fill="#f8fafc" font-family="Inter, Arial, sans-serif" font-size="22" font-weight="700">D6 UV atlas template — Daisu canonical orientation</text>
<text x="38" y="64" fill="#94a3b8" font-family="Inter, Arial, sans-serif" font-size="13">Body: 160px islands · cyan = bleed · gold = safe zone · magenta = seam danger edge</text>
<defs>
  <marker id="arrow" markerWidth="8" markerHeight="8" refX="4" refY="4" orient="auto"><path d="M0,0 L8,4 L0,8 Z" fill="#facc15"/></marker>
</defs>
<g id="face-6">
  <rect x="358" y="46" width="184" height="184" fill="#0f766e" opacity="0.28" stroke="#22d3ee" stroke-dasharray="7 7"/>
  <rect x="370" y="58" width="160" height="160" rx="6" fill="#172033" stroke="#f97316" stroke-width="3"/>
  <rect x="392" y="80" width="116" height="116" rx="4" fill="none" stroke="#facc15" stroke-dasharray="8 6" stroke-width="2"/>
  <text x="450.0" y="156.0" fill="#f8fafc" font-family="Inter, Arial, sans-serif" font-size="58" text-anchor="middle" font-weight="800">6</text>
  <text x="450.0" y="204" fill="#cbd5e1" font-family="Inter, Arial, sans-serif" font-size="13" text-anchor="middle">top +Y</text>
  <line x1="450.0" y1="176" x2="450.0" y2="100" stroke="#facc15" stroke-width="3" marker-end="url(#arrow)"/>
  <path d="M370 58 h160 v160 h-160 z" fill="none" stroke="#fb7185" stroke-width="6" stroke-opacity="0.26"/>
</g>
<g id="face-4">
  <rect x="198" y="206" width="184" height="184" fill="#0f766e" opacity="0.28" stroke="#22d3ee" stroke-dasharray="7 7"/>
  <rect x="210" y="218" width="160" height="160" rx="6" fill="#172033" stroke="#f97316" stroke-width="3"/>
  <rect x="232" y="240" width="116" height="116" rx="4" fill="none" stroke="#facc15" stroke-dasharray="8 6" stroke-width="2"/>
  <text x="290.0" y="316.0" fill="#f8fafc" font-family="Inter, Arial, sans-serif" font-size="58" text-anchor="middle" font-weight="800">4</text>
  <text x="290.0" y="364" fill="#cbd5e1" font-family="Inter, Arial, sans-serif" font-size="13" text-anchor="middle">left -X</text>
  <line x1="290.0" y1="336" x2="290.0" y2="260" stroke="#facc15" stroke-width="3" marker-end="url(#arrow)"/>
  <path d="M210 218 h160 v160 h-160 z" fill="none" stroke="#fb7185" stroke-width="6" stroke-opacity="0.26"/>
</g>
<g id="face-2">
  <rect x="358" y="206" width="184" height="184" fill="#0f766e" opacity="0.28" stroke="#22d3ee" stroke-dasharray="7 7"/>
  <rect x="370" y="218" width="160" height="160" rx="6" fill="#172033" stroke="#f97316" stroke-width="3"/>
  <rect x="392" y="240" width="116" height="116" rx="4" fill="none" stroke="#facc15" stroke-dasharray="8 6" stroke-width="2"/>
  <text x="450.0" y="316.0" fill="#f8fafc" font-family="Inter, Arial, sans-serif" font-size="58" text-anchor="middle" font-weight="800">2</text>
  <text x="450.0" y="364" fill="#cbd5e1" font-family="Inter, Arial, sans-serif" font-size="13" text-anchor="middle">front +Z</text>
  <line x1="450.0" y1="336" x2="450.0" y2="260" stroke="#facc15" stroke-width="3" marker-end="url(#arrow)"/>
  <path d="M370 218 h160 v160 h-160 z" fill="none" stroke="#fb7185" stroke-width="6" stroke-opacity="0.26"/>
</g>
<g id="face-3">
  <rect x="518" y="206" width="184" height="184" fill="#0f766e" opacity="0.28" stroke="#22d3ee" stroke-dasharray="7 7"/>
  <rect x="530" y="218" width="160" height="160" rx="6" fill="#172033" stroke="#f97316" stroke-width="3"/>
  <rect x="552" y="240" width="116" height="116" rx="4" fill="none" stroke="#facc15" stroke-dasharray="8 6" stroke-width="2"/>
  <text x="610.0" y="316.0" fill="#f8fafc" font-family="Inter, Arial, sans-serif" font-size="58" text-anchor="middle" font-weight="800">3</text>
  <text x="610.0" y="364" fill="#cbd5e1" font-family="Inter, Arial, sans-serif" font-size="13" text-anchor="middle">right +X</text>
  <line x1="610.0" y1="336" x2="610.0" y2="260" stroke="#facc15" stroke-width="3" marker-end="url(#arrow)"/>
  <path d="M530 218 h160 v160 h-160 z" fill="none" stroke="#fb7185" stroke-width="6" stroke-opacity="0.26"/>
</g>
<g id="face-1">
  <rect x="358" y="366" width="184" height="184" fill="#0f766e" opacity="0.28" stroke="#22d3ee" stroke-dasharray="7 7"/>
  <rect x="370" y="378" width="160" height="160" rx="6" fill="#172033" stroke="#f97316" stroke-width="3"/>
  <rect x="392" y="400" width="116" height="116" rx="4" fill="none" stroke="#facc15" stroke-dasharray="8 6" stroke-width="2"/>
  <text x="450.0" y="476.0" fill="#f8fafc" font-family="Inter, Arial, sans-serif" font-size="58" text-anchor="middle" font-weight="800">1</text>
  <text x="450.0" y="524" fill="#cbd5e1" font-family="Inter, Arial, sans-serif" font-size="13" text-anchor="middle">bottom -Y</text>
  <line x1="450.0" y1="496" x2="450.0" y2="420" stroke="#facc15" stroke-width="3" marker-end="url(#arrow)"/>
  <path d="M370 378 h160 v160 h-160 z" fill="none" stroke="#fb7185" stroke-width="6" stroke-opacity="0.26"/>
</g>
<g id="face-5">
  <rect x="358" y="526" width="184" height="184" fill="#0f766e" opacity="0.28" stroke="#22d3ee" stroke-dasharray="7 7"/>
  <rect x="370" y="538" width="160" height="160" rx="6" fill="#172033" stroke="#f97316" stroke-width="3"/>
  <rect x="392" y="560" width="116" height="116" rx="4" fill="none" stroke="#facc15" stroke-dasharray="8 6" stroke-width="2"/>
  <text x="450.0" y="636.0" fill="#f8fafc" font-family="Inter, Arial, sans-serif" font-size="58" text-anchor="middle" font-weight="800">5</text>
  <text x="450.0" y="684" fill="#cbd5e1" font-family="Inter, Arial, sans-serif" font-size="13" text-anchor="middle">back -Z</text>
  <line x1="450.0" y1="656" x2="450.0" y2="580" stroke="#facc15" stroke-width="3" marker-end="url(#arrow)"/>
  <path d="M370 538 h160 v160 h-160 z" fill="none" stroke="#fb7185" stroke-width="6" stroke-opacity="0.26"/>
</g>
<g font-family="Inter, Arial, sans-serif" font-size="13" fill="#cbd5e1">
  <text x="38" y="712">Use as a source map, not a final game texture. Keep numerals inside the gold safe zone; let material/bleed continue under cyan guides.</text>
  <text x="38" y="735">Face map from src/lib/geometries.ts: 1 bottom, 2 front, 3 right, 4 left, 5 back, 6 top. Opposites sum to 7.</text>
</g>
</svg>