<?xml version='1.0' encoding='utf-8'?>
<svg xmlns="http://www.w3.org/2000/svg" version="1.1" width="600" height="370" viewBox="25 145 600 370" role="img">
<title>Dicesuki hugging dice icon</title>
<defs>
  <clipPath id="dicesuki-icon-silhouette" clipPathUnits="userSpaceOnUse">
    <path d="M0 0 C1.241367 0.244922 2.482734 0.489844 3.761719 0.742188 C12.833063 2.655252 20.610432 5.920718 28.769531 10.292969 C32 12 32 12 35 13 C36.012083 13.987769 37.009153 14.99093 38 16 C39.48691 17.145185 40.975294 18.288669 42.479248 19.411377 C50.96216 25.748404 57.984493 32.516237 64.5 40.875 C64.946257 41.447102 65.392515 42.019204 65.852295 42.608643 C69 46.75049 69 46.75049 69 49 C69.66 49 70.32 49 71 49 C71.129551 48.635195 71.129551 48.635195 71.785156 46.789062 C80.074974 27.757134 102.093055 13.931395 120.710938 6.523438 C124.778252 5.156485 128.83126 4.00717 133 3 C133.808403 2.803901 134.616807 2.607803 135.449707 2.405762 C164.854001 -4.385825 195.122667 -1.908692 224 6 C225.135664 6.284883 226.271328 6.569766 227.441406 6.863281 C238.821183 9.749549 249.937737 13.450794 261.098145 17.077881 C263.84031 17.949255 266.592778 18.766842 269.355469 19.570312 C278.399378 22.260412 286.713594 26.593374 294.6875 31.589844 C296.832576 32.897905 299.003007 34.005634 301.25 35.125 C324.461315 47.924147 339.132466 71.836627 346.3125 96.625 C346.554924 97.458862 346.797349 98.292725 347.047119 99.151855 C350.82235 112.873905 351.400057 126.301162 351.375 140.4375 C351.375786 141.377106 351.376571 142.316711 351.37738 143.28479 C351.359727 160.985298 351.021003 179.762377 345.929688 196.859375 C344.927821 200.243832 344.437485 203.500117 344 207 C343.393072 211.855421 342.393768 216.311406 341 221 C340.658549 222.345622 340.325462 223.69339 340 225.042969 C339.835 225.724238 339.67 226.405508 339.5 227.107422 C339.164003 228.505222 338.83071 229.903674 338.5 231.302734 C337.649559 234.794195 336.633254 237.816431 335 241 C334.320844 243.329729 333.655673 245.663554 333 248 C328.97641 259.670834 324.804953 271.298226 317 281 C316.20194 282.411384 315.445162 283.847694 314.75 285.3125 C314.414844 286.009883 314.079687 286.707266 313.734375 287.425781 C313.492031 287.945273 313.249688 288.464766 313 289 C312.34 289 311.68 289 311 289 C310.690625 289.78375 310.38125 290.5675 310.0625 291.375 C309 294 309 294 308 296 C307.34 296 306.68 296 306 296 C305.770547 296.543984 305.541094 297.087969 305.304688 297.648438 C303.627346 300.67167 301.456032 303.10019 299.125 305.625 C298.641763 306.149165 298.158525 306.67333 297.660645 307.213379 C290.070327 315.276719 281.455972 322.232896 272 328 C271.296172 328.43957 270.592344 328.879141 269.867188 329.332031 C263.881534 332.882661 257.625304 334.952504 251 337 C250.070586 337.345469 249.141172 337.690938 248.183594 338.046875 C244.220259 339.233444 240.355775 339.657557 236.25 340.0625 C228.247627 340.876187 228.247627 340.876187 226 342 C208.071258 343.32191 190.540616 341.611865 173 338 C171.924761 337.780376 170.849521 337.560752 169.741699 337.334473 C150.295771 333.278813 131.185792 328.079724 113 320 C111.910742 319.563008 110.821484 319.126016 109.699219 318.675781 C103.154886 316.018738 97.057968 313.056215 91 309.4375 C90.694613 309.255581 90.694613 309.255581 89.14917 308.334961 C86.13571 306.4855 83.394699 304.545377 80.71875 302.230469 C78 300 78 300 75.5 299.875 C72.147029 301.383837 69.759457 303.585475 67 306 C63.191805 308.538797 59.085869 310.498747 54.988281 312.523438 C53.284752 313.365181 51.587377 314.220419 49.911377 315.115723 C43.020922 318.725775 35.952695 321.231749 28.5625 323.625 C27.412012 324.006562 26.261523 324.388125 25.076172 324.78125 C15.486298 327.932597 5.808184 330.623474 -4 333 C-4.777949 333.189331 -5.555898 333.378662 -6.357422 333.57373 C-31.210702 339.557105 -55.423657 342.554364 -81 342 C-81.693354 341.987432 -82.386709 341.974863 -83.101074 341.961914 C-93.645426 341.726688 -102.891297 340.173136 -113 337 C-114.026094 336.700938 -115.052188 336.401875 -116.109375 336.09375 C-145.450949 327.089457 -173.837716 302.148499 -188.625 275.4375 C-189.01043 274.70918 -189.395859 273.980859 -189.792969 273.230469 C-191.085954 270.841166 -192.500772 268.555448 -193.9375 266.25 C-201.63083 253.454152 -205.991756 239.967744 -209.214844 225.472656 C-210.11095 221.50928 -211.076696 217.566847 -212.0625 213.625 C-212.224922 212.971042 -212.387344 212.317085 -212.554688 211.643311 C-213.338752 208.515418 -214.172193 205.417146 -215.085938 202.324219 C-215.851674 199.539426 -216.326764 197.051436 -216.5625 194.1875 C-216.898551 190.202899 -216.898551 190.202899 -218 188 C-218.182464 186.357824 -218.321628 184.710714 -218.4375 183.0625 C-218.829964 178.29063 -219.539819 173.684478 -220.5 168.996094 C-226.350252 133.940285 -222.240003 94.955095 -201.790527 65.242676 C-194.57647 55.188171 -186.383626 45.893694 -176 39 C-175.34 39 -174.68 39 -174 39 C-174 38.34 -174 37.68 -174 37 C-156.706269 27.02442 -139.737512 19.020215 -120.463867 13.683594 C-118.046699 13.012957 -115.636318 12.321749 -113.226562 11.625 C-90.370314 5.068214 -90.370314 5.068214 -79.160156 4.308594 C-77 4 -77 4 -74.140625 3.105469 C-68.133926 1.336542 -61.881221 0.682828 -55.6875 -0.125 C-55.348044 -0.169523 -55.348044 -0.169523 -53.630188 -0.394836 C-35.985862 -2.661009 -17.47941 -3.98613 0 0 Z" transform="translate(258,157)" />
  </clipPath>
</defs>
<g clip-path="url(#dicesuki-icon-silhouette)"><path d="M0 0 C1.241367 0.244922 2.482734 0.489844 3.761719 0.742188 C12.833063 2.655252 20.610432 5.920718 28.769531 10.292969 C32 12 32 12 35 13 C36.012083 13.987769 37.009153 14.99093 38 16 C39.48691 17.145185 40.975294 18.288669 42.479248 19.411377 C50.96216 25.748404 57.984493 32.516237 64.5 40.875 C64.946257 41.447102 65.392515 42.019204 65.852295 42.608643 C69 46.75049 69 46.75049 69 49 C69.66 49 70.32 49 71 49 C71.129551 48.635195 71.129551 48.635195 71.785156 46.789062 C80.074974 27.757134 102.093055 13.931395 120.710938 6.523438 C124.778252 5.156485 128.83126 4.00717 133 3 C133.808403 2.803901 134.616807 2.607803 135.449707 2.405762 C164.854001 -4.385825 195.122667 -1.908692 224 6 C225.135664 6.284883 226.271328 6.569766 227.441406 6.863281 C238.821183 9.749549 249.937737 13.450794 261.098145 17.077881 C263.84031 17.949255 266.592778 18.766842 269.355469 19.570312 C278.399378 22.260412 286.713594 26.593374 294.6875 31.589844 C296.832576 32.897905 299.003007 34.005634 301.25 35.125 C324.461315 47.924147 339.132466 71.836627 346.3125 96.625 C346.554924 97.458862 346.797349 98.292725 347.047119 99.151855 C350.82235 112.873905 351.400057 126.301162 351.375 140.4375 C351.375786 141.377106 351.376571 142.316711 351.37738 143.28479 C351.359727 160.985298 351.021003 179.762377 345.929688 196.859375 C344.927821 200.243832 344.437485 203.500117 344 207 C343.393072 211.855421 342.393768 216.311406 341 221 C340.658549 222.345622 340.325462 223.69339 340 225.042969 C339.835 225.724238 339.67 226.405508 339.5 227.107422 C339.164003 228.505222 338.83071 229.903674 338.5 231.302734 C337.649559 234.794195 336.633254 237.816431 335 241 C334.320844 243.329729 333.655673 245.663554 333 248 C328.97641 259.670834 324.804953 271.298226 317 281 C316.20194 282.411384 315.445162 283.847694 314.75 285.3125 C314.414844 286.009883 314.079687 286.707266 313.734375 287.425781 C313.492031 287.945273 313.249688 288.464766 313 289 C312.34 289 311.68 289 311 289 C310.690625 289.78375 310.38125 290.5675 310.0625 291.375 C309 294 309 294 308 296 C307.34 296 306.68 296 306 296 C305.770547 296.543984 305.541094 297.087969 305.304688 297.648438 C303.627346 300.67167 301.456032 303.10019 299.125 305.625 C298.641763 306.149165 298.158525 306.67333 297.660645 307.213379 C290.070327 315.276719 281.455972 322.232896 272 328 C271.296172 328.43957 270.592344 328.879141 269.867188 329.332031 C263.881534 332.882661 257.625304 334.952504 251 337 C250.070586 337.345469 249.141172 337.690938 248.183594 338.046875 C244.220259 339.233444 240.355775 339.657557 236.25 340.0625 C228.247627 340.876187 228.247627 340.876187 226 342 C208.071258 343.32191 190.540616 341.611865 173 338 C171.924761 337.780376 170.849521 337.560752 169.741699 337.334473 C150.295771 333.278813 131.185792 328.079724 113 320 C111.910742 319.563008 110.821484 319.126016 109.699219 318.675781 C103.154886 316.018738 97.057968 313.056215 91 309.4375 C90.694613 309.255581 90.694613 309.255581 89.14917 308.334961 C86.13571 306.4855 83.394699 304.545377 80.71875 302.230469 C78 300 78 300 75.5 299.875 C72.147029 301.383837 69.759457 303.585475 67 306 C63.191805 308.538797 59.085869 310.498747 54.988281 312.523438 C53.284752 313.365181 51.587377 314.220419 49.911377 315.115723 C43.020922 318.725775 35.952695 321.231749 28.5625 323.625 C27.412012 324.006562 26.261523 324.388125 25.076172 324.78125 C15.486298 327.932597 5.808184 330.623474 -4 333 C-4.777949 333.189331 -5.555898 333.378662 -6.357422 333.57373 C-31.210702 339.557105 -55.423657 342.554364 -81 342 C-81.693354 341.987432 -82.386709 341.974863 -83.101074 341.961914 C-93.645426 341.726688 -102.891297 340.173136 -113 337 C-114.026094 336.700938 -115.052188 336.401875 -116.109375 336.09375 C-145.450949 327.089457 -173.837716 302.148499 -188.625 275.4375 C-189.01043 274.70918 -189.395859 273.980859 -189.792969 273.230469 C-191.085954 270.841166 -192.500772 268.555448 -193.9375 266.25 C-201.63083 253.454152 -205.991756 239.967744 -209.214844 225.472656 C-210.11095 221.50928 -211.076696 217.566847 -212.0625 213.625 C-212.224922 212.971042 -212.387344 212.317085 -212.554688 211.643311 C-213.338752 208.515418 -214.172193 205.417146 -215.085938 202.324219 C-215.851674 199.539426 -216.326764 197.051436 -216.5625 194.1875 C-216.898551 190.202899 -216.898551 190.202899 -218 188 C-218.182464 186.357824 -218.321628 184.710714 -218.4375 183.0625 C-218.829964 178.29063 -219.539819 173.684478 -220.5 168.996094 C-226.350252 133.940285 -222.240003 94.955095 -201.790527 65.242676 C-194.57647 55.188171 -186.383626 45.893694 -176 39 C-175.34 39 -174.68 39 -174 39 C-174 38.34 -174 37.68 -174 37 C-156.706269 27.02442 -139.737512 19.020215 -120.463867 13.683594 C-118.046699 13.012957 -115.636318 12.321749 -113.226562 11.625 C-90.370314 5.068214 -90.370314 5.068214 -79.160156 4.308594 C-77 4 -77 4 -74.140625 3.105469 C-68.133926 1.336542 -61.881221 0.682828 -55.6875 -0.125 C-55.348044 -0.169523 -55.348044 -0.169523 -53.630188 -0.394836 C-35.985862 -2.661009 -17.47941 -3.98613 0 0 Z " fill="#D1B9E7" transform="translate(258,157)" />
<path d="M0 0 C0.863486 -0.015262 1.726971 -0.030525 2.616623 -0.046249 C38.450306 -0.563222 38.450306 -0.563222 53.671875 6.308594 C54.781758 6.799727 55.891641 7.290859 57.035156 7.796875 C63.1362 10.859781 68.466621 14.921308 73.671875 19.308594 C74.435 19.937656 75.198125 20.566719 75.984375 21.214844 C81.237328 25.686952 85.915739 30.487187 89.671875 36.308594 C89.671875 36.968594 89.671875 37.628594 89.671875 38.308594 C90.331875 38.308594 90.991875 38.308594 91.671875 38.308594 C103.519721 58.991431 108.050494 79.954663 111.265137 103.37207 C111.61011 105.862671 111.980324 108.347087 112.363281 110.832031 C114.232604 123.607797 113.892441 136.430934 113.671875 149.308594 C113.664684 149.744277 113.664684 149.744277 113.628296 151.949097 C113.509816 159.069193 113.375957 166.188922 113.234375 173.308594 C113.214908 174.311343 113.195441 175.314093 113.175385 176.347229 C112.923143 189.020451 112.47636 201.657949 111.671875 214.308594 C109.664327 214.055934 107.656779 213.803274 105.649231 213.550613 C93.106284 212.015412 83.304907 216.134616 73.450684 223.690918 C64.115918 230.51659 52.974854 230.814183 41.796875 230.683594 C41.181146 230.679606 41.181146 230.679606 38.065186 230.659424 C26.820733 230.482926 17.166034 228.64793 6.578125 224.875 C3.887474 224.075524 1.449593 224.030822 -1.328125 224.308594 C-1.658125 224.638594 -1.988125 224.968594 -2.328125 225.308594 C-2.040824 227.648041 -1.708757 229.982508 -1.328125 232.308594 C19.368705 241.709488 46.879526 244.374372 68.671875 237.308594 C76.263871 234.270606 83.154902 230.232529 89.671875 225.308594 C94.289637 223.76934 98.849446 223.786105 103.671875 224.308594 C107.12846 226.354328 108.450411 227.976398 110.671875 231.308594 C111.599513 237.918013 109.818391 241.589782 106.375 247.207031 C104.602981 249.393606 103.262228 250.283715 100.671875 251.308594 C100.671875 251.968594 100.671875 252.628594 100.671875 253.308594 C99.351875 253.638594 98.031875 253.968594 96.671875 254.308594 C96.671875 254.968594 96.671875 255.628594 96.671875 256.308594 C95.681875 256.308594 94.691875 256.308594 93.671875 256.308594 C93.671875 256.968594 93.671875 257.628594 93.671875 258.308594 C82.579614 263.71941 71.686572 267.970929 59.546875 270.371094 C58.529885 270.574363 57.512896 270.777632 56.465088 270.987061 C49.814337 272.198115 43.424191 272.53986 36.671875 272.308594 C36.671875 272.968594 36.671875 273.628594 36.671875 274.308594 C55.0158 276.490482 73.298742 277.176137 90.671875 270.308594 C91.70957 269.905117 92.747266 269.501641 93.816406 269.085938 C95.484885 268.419978 97.145186 267.732378 98.789062 267.007812 C100.671875 266.308594 100.671875 266.308594 103.671875 266.308594 C93.048129 273.94865 83.021367 279.872798 70.671875 284.308594 C69.456289 284.780391 68.240703 285.252187 66.988281 285.738281 C61.818982 287.679232 56.535512 289.210175 51.234375 290.746094 C50.179761 291.052488 49.125146 291.358882 48.038574 291.674561 C9.181833 302.833404 -44.423759 315.348666 -82.328125 295.308594 C-85.01611 293.775776 -87.659914 292.205582 -90.269531 290.542969 C-92.328125 289.308594 -92.328125 289.308594 -95.328125 288.308594 C-95.328125 287.648594 -95.328125 286.988594 -95.328125 286.308594 C-96.09125 286.019844 -96.854375 285.731094 -97.640625 285.433594 C-100.328125 284.308594 -100.328125 284.308594 -103.328125 282.308594 C-103.328125 281.648594 -103.328125 280.988594 -103.328125 280.308594 C-104.029375 280.106211 -104.730625 279.903828 -105.453125 279.695312 C-109.280905 277.849033 -111.53405 275.266201 -114.328125 272.121094 C-114.836016 271.56873 -115.343906 271.016367 -115.867188 270.447266 C-118.476982 267.566454 -120.855088 264.635631 -123.078125 261.445312 C-125.328125 258.308594 -125.328125 258.308594 -127.328125 257.308594 C-128.243734 255.759102 -129.147317 254.201857 -130.007812 252.621094 C-130.978225 250.921436 -132.014617 249.259023 -133.085938 247.621094 C-159.651523 206.783017 -172.171454 140.715891 -162.234375 93.207031 C-161.936959 91.906476 -161.63502 90.606945 -161.328125 89.308594 C-161.049688 88.083984 -160.77125 86.859375 -160.484375 85.597656 C-158.24674 76.859305 -154.595406 69.195871 -150.328125 61.308594 C-149.668125 61.308594 -149.008125 61.308594 -148.328125 61.308594 C-147.668125 59.328594 -147.008125 57.348594 -146.328125 55.308594 C-145.668125 55.308594 -145.008125 55.308594 -144.328125 55.308594 C-143.998125 53.988594 -143.668125 52.668594 -143.328125 51.308594 C-142.668125 51.308594 -142.008125 51.308594 -141.328125 51.308594 C-141.112852 50.759453 -140.897578 50.210312 -140.675781 49.644531 C-138.874431 46.522191 -136.419471 44.317 -133.765625 41.933594 C-133.230583 41.448987 -132.695542 40.96438 -132.144287 40.465088 C-126.345388 35.301187 -120.556557 31.187078 -113.328125 28.308594 C-111.280738 27.257158 -109.239683 26.193354 -107.203125 25.121094 C-75.680059 9.209491 -35.221084 0.609093 0 0 Z " fill="#FBC3C2" transform="translate(219.328125,174.69140625)" /></g>
<path d="M0 0 C1.241367 0.244922 2.482734 0.489844 3.761719 0.742188 C12.833063 2.655252 20.610432 5.920718 28.769531 10.292969 C32 12 32 12 35 13 C36.012083 13.987769 37.009153 14.99093 38 16 C39.48691 17.145185 40.975294 18.288669 42.479248 19.411377 C50.96216 25.748404 57.984493 32.516237 64.5 40.875 C64.946257 41.447102 65.392515 42.019204 65.852295 42.608643 C69 46.75049 69 46.75049 69 49 C69.66 49 70.32 49 71 49 C71.129551 48.635195 71.129551 48.635195 71.785156 46.789062 C80.074974 27.757134 102.093055 13.931395 120.710938 6.523438 C124.778252 5.156485 128.83126 4.00717 133 3 C133.808403 2.803901 134.616807 2.607803 135.449707 2.405762 C164.854001 -4.385825 195.122667 -1.908692 224 6 C225.135664 6.284883 226.271328 6.569766 227.441406 6.863281 C238.821183 9.749549 249.937737 13.450794 261.098145 17.077881 C263.84031 17.949255 266.592778 18.766842 269.355469 19.570312 C278.399378 22.260412 286.713594 26.593374 294.6875 31.589844 C296.832576 32.897905 299.003007 34.005634 301.25 35.125 C324.461315 47.924147 339.132466 71.836627 346.3125 96.625 C346.554924 97.458862 346.797349 98.292725 347.047119 99.151855 C350.82235 112.873905 351.400057 126.301162 351.375 140.4375 C351.375786 141.377106 351.376571 142.316711 351.37738 143.28479 C351.359727 160.985298 351.021003 179.762377 345.929688 196.859375 C344.927821 200.243832 344.437485 203.500117 344 207 C343.393072 211.855421 342.393768 216.311406 341 221 C340.658549 222.345622 340.325462 223.69339 340 225.042969 C339.835 225.724238 339.67 226.405508 339.5 227.107422 C339.164003 228.505222 338.83071 229.903674 338.5 231.302734 C337.649559 234.794195 336.633254 237.816431 335 241 C334.320844 243.329729 333.655673 245.663554 333 248 C328.97641 259.670834 324.804953 271.298226 317 281 C316.20194 282.411384 315.445162 283.847694 314.75 285.3125 C314.414844 286.009883 314.079687 286.707266 313.734375 287.425781 C313.492031 287.945273 313.249688 288.464766 313 289 C312.34 289 311.68 289 311 289 C310.690625 289.78375 310.38125 290.5675 310.0625 291.375 C309 294 309 294 308 296 C307.34 296 306.68 296 306 296 C305.770547 296.543984 305.541094 297.087969 305.304688 297.648438 C303.627346 300.67167 301.456032 303.10019 299.125 305.625 C298.641763 306.149165 298.158525 306.67333 297.660645 307.213379 C290.070327 315.276719 281.455972 322.232896 272 328 C271.296172 328.43957 270.592344 328.879141 269.867188 329.332031 C263.881534 332.882661 257.625304 334.952504 251 337 C250.070586 337.345469 249.141172 337.690938 248.183594 338.046875 C244.220259 339.233444 240.355775 339.657557 236.25 340.0625 C228.247627 340.876187 228.247627 340.876187 226 342 C208.071258 343.32191 190.540616 341.611865 173 338 C171.924761 337.780376 170.849521 337.560752 169.741699 337.334473 C150.295771 333.278813 131.185792 328.079724 113 320 C111.910742 319.563008 110.821484 319.126016 109.699219 318.675781 C103.154886 316.018738 97.057968 313.056215 91 309.4375 C90.694613 309.255581 90.694613 309.255581 89.14917 308.334961 C86.13571 306.4855 83.394699 304.545377 80.71875 302.230469 C78 300 78 300 75.5 299.875 C72.147029 301.383837 69.759457 303.585475 67 306 C63.191805 308.538797 59.085869 310.498747 54.988281 312.523438 C53.284752 313.365181 51.587377 314.220419 49.911377 315.115723 C43.020922 318.725775 35.952695 321.231749 28.5625 323.625 C27.412012 324.006562 26.261523 324.388125 25.076172 324.78125 C15.486298 327.932597 5.808184 330.623474 -4 333 C-4.777949 333.189331 -5.555898 333.378662 -6.357422 333.57373 C-31.210702 339.557105 -55.423657 342.554364 -81 342 C-81.693354 341.987432 -82.386709 341.974863 -83.101074 341.961914 C-93.645426 341.726688 -102.891297 340.173136 -113 337 C-114.026094 336.700938 -115.052188 336.401875 -116.109375 336.09375 C-145.450949 327.089457 -173.837716 302.148499 -188.625 275.4375 C-189.01043 274.70918 -189.395859 273.980859 -189.792969 273.230469 C-191.085954 270.841166 -192.500772 268.555448 -193.9375 266.25 C-201.63083 253.454152 -205.991756 239.967744 -209.214844 225.472656 C-210.11095 221.50928 -211.076696 217.566847 -212.0625 213.625 C-212.224922 212.971042 -212.387344 212.317085 -212.554688 211.643311 C-213.338752 208.515418 -214.172193 205.417146 -215.085938 202.324219 C-215.851674 199.539426 -216.326764 197.051436 -216.5625 194.1875 C-216.898551 190.202899 -216.898551 190.202899 -218 188 C-218.182464 186.357824 -218.321628 184.710714 -218.4375 183.0625 C-218.829964 178.29063 -219.539819 173.684478 -220.5 168.996094 C-226.350252 133.940285 -222.240003 94.955095 -201.790527 65.242676 C-194.57647 55.188171 -186.383626 45.893694 -176 39 C-175.34 39 -174.68 39 -174 39 C-174 38.34 -174 37.68 -174 37 C-156.706269 27.02442 -139.737512 19.020215 -120.463867 13.683594 C-118.046699 13.012957 -115.636318 12.321749 -113.226562 11.625 C-90.370314 5.068214 -90.370314 5.068214 -79.160156 4.308594 C-77 4 -77 4 -74.140625 3.105469 C-68.133926 1.336542 -61.881221 0.682828 -55.6875 -0.125 C-55.348044 -0.169523 -55.348044 -0.169523 -53.630188 -0.394836 C-35.985862 -2.661009 -17.47941 -3.98613 0 0 Z M-76 22 C-76.510549 22.093618 -76.510549 22.093618 -79.094238 22.567383 C-103.85842 27.134499 -130.189488 32.903846 -152 46 C-152.484688 46.226875 -152.484688 46.226875 -154.9375 47.375 C-162.234329 51.246787 -168.529518 56.283998 -174.625 61.8125 C-175.158188 62.292676 -175.691377 62.772852 -176.240723 63.267578 C-177.535902 64.467843 -178.773696 65.729447 -180 67 C-180 67.66 -180 68.32 -180 69 C-180.66 69 -181.32 69 -182 69 C-182.33 70.32 -182.66 71.64 -183 73 C-183.66 73 -184.32 73 -185 73 C-185.66 74.98 -186.32 76.96 -187 79 C-187.66 79 -188.32 79 -189 79 C-212.502197 123.496716 -203.798268 178.07644 -189.804688 224.430176 C-184.759192 240.543308 -178.598707 256.515151 -168.347656 270.082031 C-167 272 -167 272 -166 275 C-164.355503 276.688546 -162.684117 278.350969 -161 280 C-158.426591 282.920163 -155.947315 285.921635 -153.460938 288.916016 C-150.56037 292.355792 -147.723077 295.408066 -144 298 C-143.34 298 -142.68 298 -142 298 C-141.835 298.495 -141.835 298.495 -141 301 C-136.666667 304 -136.666667 304 -134 304 C-134 304.66 -134 305.32 -134 306 C-131.312821 307.4819 -128.621376 308.954688 -125.921875 310.414062 C-124.276383 311.307204 -122.63607 312.210621 -121.015625 313.148438 C-96.432 326.745575 -63.742766 323.279343 -37 319.75 C-36.209019 319.647671 -35.418038 319.545341 -34.603088 319.439911 C-24.122757 318.057474 -14.165131 315.945329 -4 313 C-1.80645 312.392865 0.387545 311.787334 2.582031 311.183594 C4.659124 310.602525 6.735951 310.020506 8.8125 309.4375 C9.853418 309.146816 10.894336 308.856133 11.966797 308.556641 C22.381719 305.637851 32.234126 302.697696 42 298 C42.653555 297.704805 43.307109 297.409609 43.980469 297.105469 C48.695585 294.90374 53.052385 292.161967 57.4375 289.375 C58.065676 288.978291 58.693853 288.581582 59.341064 288.172852 C63.878571 285.242858 63.878571 285.242858 65 283 C64.346445 283.268125 63.692891 283.53625 63.019531 283.8125 C59.268878 285.28753 55.484883 286.65071 51.6875 288 C51.326885 288.130195 51.326885 288.130195 49.501953 288.789062 C39.889459 292.203006 31.840414 293.293911 21.625 293.1875 C20.457109 293.186855 19.289219 293.186211 18.085938 293.185547 C11.333206 293.15148 4.70243 292.832297 -2 292 C-2 291.34 -2 290.68 -2 290 C-1.343706 290.022478 -0.687412 290.044956 -0.01123 290.068115 C7.166487 290.205442 13.84297 289.468015 20.875 288.0625 C21.945486 287.850852 23.015972 287.639204 24.118896 287.421143 C35.046841 285.074196 44.986126 280.884778 55 276 C55 275.34 55 274.68 55 274 C55.99 274 56.98 274 58 274 C58 273.34 58 272.68 58 272 C59.32 271.67 60.64 271.34 62 271 C62 270.34 62 269.68 62 269 C62.592969 268.765391 63.185938 268.530781 63.796875 268.289062 C68.021893 265.816978 70.018012 261.346354 72 257 C72.893558 253.438265 72.879683 250.479027 70.933594 247.207031 C69.181048 245.004578 67.533269 243.266635 65 242 C57.096166 241.328432 52.210226 242.184114 45.582031 246.617188 C32.560591 255.175708 19.525003 258.405247 4 258.3125 C3.008872 258.307585 2.017744 258.302671 0.996582 258.297607 C-13.448029 258.072235 -26.785645 256.002211 -40 250 C-40.380632 247.673914 -40.712699 245.339447 -41 243 C-40.67 242.67 -40.34 242.34 -40 242 C-33.314258 242.046268 -28.096578 243.278313 -22 246 C-13.748295 248.116234 -5.537997 248.335469 2.9375 248.3125 C4.122793 248.328613 5.308086 248.344727 6.529297 248.361328 C17.760033 248.367489 27.454396 246.998746 36.5 240.0625 C44.422868 234.419623 52.823809 230.128262 62.835938 230.601562 C66.874218 231.345073 70.387409 233.107361 74 235 C75.332873 235.667587 76.666068 236.334533 78 237 C78.9075 236.360625 79.815 235.72125 80.75 235.0625 C87.290423 230.911847 95.455155 230.795498 103 232 C109.368718 233.990821 115.312911 237.537829 120.5 241.6875 C132.739574 250.681056 152.407896 249.695944 166.693359 247.605957 C170.357901 246.89162 173.940711 245.975353 177.53125 244.957031 C181.715301 243.802648 185.682391 243.314008 190 243 C189.67 245.64 189.34 248.28 189 251 C168.696041 260.827715 142.389043 260.894591 121.3125 253.75 C118.253089 252.133707 115.407093 250.372498 112.5 248.5 C104.815247 243.561293 98.423184 240.400385 89 242 C85.640381 244.55331 83.372113 246.801149 82.65625 251.03125 C82.23361 257.70897 83.856393 261.524859 87.972656 266.757812 C101.741844 281.986163 124.457911 287.140377 143.902344 290.421875 C147 291 147 291 149 292 C132.450096 297.516635 109.276268 292.499259 94 285 C93.34 285.33 92.68 285.66 92 286 C124.704565 313.171217 181.693946 326.260968 223.625 322.691406 C243.51871 320.349751 260.930133 314.424917 276 301 C276.366094 300.704805 276.366094 300.704805 278.21875 299.210938 C295.078581 285.260021 308.086665 263.207991 315.078125 242.695312 C315.810724 240.553393 316.609095 238.433993 317.429688 236.324219 C334.532392 190.844638 341.875109 131.289891 322.558594 85.589844 C319.23029 78.561409 315.12966 71.869071 310 66 C309.34 66 308.68 66 308 66 C307.769258 65.427656 307.538516 64.855312 307.300781 64.265625 C299.556971 50.777908 279.934385 43.828594 266.029785 38.765869 C264.123497 38.046597 262.247522 37.248399 260.375 36.445312 C219.406858 18.901085 166.037722 9.210725 123.289062 25.152344 C107.531581 31.585054 93.566213 44.396429 85 59 C84.747344 59.397676 84.747344 59.397676 83.46875 61.410156 C78.669311 70.462431 79.741998 79.958384 79.945312 89.929688 C80.071605 97.14168 79.252903 103.892625 78 111 C77.731192 112.635109 77.464391 114.270548 77.199219 115.90625 C76.486832 120.274518 75.749493 124.637953 75 129 C73.457897 125.478725 72.61152 122.297822 72.105469 118.492188 C71.957307 117.432095 71.809146 116.372002 71.656494 115.279785 C71.501726 114.156206 71.346958 113.032627 71.1875 111.875 C68.224286 91.635052 63.221987 73.844569 53 56 C52.34 56 51.68 56 51 56 C50.739609 55.435391 50.479219 54.870781 50.210938 54.289062 C45.291047 44.988883 37.239536 38.26416 29 32 C28.159531 31.349023 27.319062 30.698047 26.453125 30.027344 C14.852691 21.831385 -0.630951 17.894158 -14.691406 17.761719 C-15.116115 17.756844 -15.116115 17.756844 -17.265396 17.732178 C-37.237646 17.55066 -56.329095 18.199129 -76 22 Z " fill="#3E1C3E" transform="translate(258,157)" />
<path d="M0 0 C0.66 0.33 1.32 0.66 2 1 C1.649375 1.309375 1.649375 1.309375 -0.125 2.875 C-4.672139 7.461227 -8.391899 13.014778 -9.6875 19.375 C-7.281973 32.058688 0.13465 41.465596 8.3125 51.0625 C35.231555 83.653618 38.998427 122.313582 43.369629 162.763428 C45.093307 178.675707 46.917088 194.555933 49.445312 210.363281 C49.625852 211.53868 49.806391 212.714078 49.992401 213.925095 C51.827719 224.875012 54.838339 238.165244 62 247 C65.3125 248.75 65.3125 248.75 69 250 C70.183062 250.76695 71.348841 251.560948 72.5 252.375 C94.519183 266.594825 126.172077 262.192098 150.445312 257.085938 C154.656457 256.154498 158.830604 255.102059 163 254 C163.796963 253.790527 164.593926 253.581055 165.415039 253.365234 C167.883511 252.71122 170.34871 252.046423 172.8125 251.375 C173.19225 251.271956 173.19225 251.271956 175.114014 250.750488 C178.610584 249.773872 181.790522 248.686118 185 247 C184.70549 246.93736 184.70549 246.93736 183.215088 246.620361 C180.494093 246.032665 177.778524 245.42274 175.0625 244.8125 C174.136309 244.615918 173.210117 244.419336 172.255859 244.216797 C165.825308 242.75018 160.580259 240.514071 155 237 C155 236.01 155 235.02 155 234 C155.616011 233.940139 156.232021 233.880278 156.866699 233.818604 C159.578442 233.551769 162.28933 233.277519 165 233 C165.763447 232.922495 166.526895 232.84499 167.313477 232.765137 C187.013274 230.630334 206.429886 225.100818 223 214 C223.828867 213.475352 224.657734 212.950703 225.511719 212.410156 C230.168471 209.258279 232.347082 206.542137 234 201 C234.40541 198.678105 234.76073 196.344847 235 194 C235.99 194.33 236.98 194.66 238 195 C238.736628 201.629648 237.1625 205.255114 233.703125 210.898438 C231.931106 213.085012 230.590353 213.975121 228 215 C228 215.66 228 216.32 228 217 C226.68 217.33 225.36 217.66 224 218 C224 218.66 224 219.32 224 220 C223.01 220 222.02 220 221 220 C221 220.66 221 221.32 221 222 C209.907739 227.410816 199.014697 231.662336 186.875 234.0625 C185.85801 234.265769 184.841021 234.469038 183.793213 234.678467 C177.142462 235.889522 170.752316 236.231266 164 236 C164 236.66 164 237.32 164 238 C182.343925 240.181888 200.626867 240.867543 218 234 C219.037695 233.596523 220.075391 233.193047 221.144531 232.777344 C222.81301 232.111384 224.473311 231.423784 226.117188 230.699219 C228 230 228 230 231 230 C220.376254 237.640056 210.349492 243.564204 198 248 C196.784414 248.471797 195.568828 248.943594 194.316406 249.429688 C189.147107 251.370639 183.863637 252.901582 178.5625 254.4375 C177.507886 254.743894 176.453271 255.050288 175.366699 255.365967 C136.509958 266.524811 82.904366 279.040073 45 259 C42.312015 257.467182 39.668211 255.896988 37.058594 254.234375 C35 253 35 253 32 252 C32 251.34 32 250.68 32 250 C31.236875 249.71125 30.47375 249.4225 29.6875 249.125 C27 248 27 248 24 246 C24 245.34 24 244.68 24 244 C23.29875 243.797617 22.5975 243.595234 21.875 243.386719 C18.04722 241.540439 15.794075 238.957607 13 235.8125 C12.492109 235.260137 11.984219 234.707773 11.460938 234.138672 C8.851143 231.25786 6.473037 228.327037 4.25 225.136719 C2 222 2 222 0 221 C-0.915609 219.450508 -1.819192 217.893263 -2.679688 216.3125 C-3.6501 214.612842 -4.686492 212.950429 -5.757812 211.3125 C-32.323398 170.474423 -44.843329 104.407297 -34.90625 56.898438 C-34.608834 55.597882 -34.306895 54.298351 -34 53 C-33.721562 51.775391 -33.443125 50.550781 -33.15625 49.289062 C-30.918615 40.550711 -27.267281 32.887277 -23 25 C-22.34 25 -21.68 25 -21 25 C-20.34 23.02 -19.68 21.04 -19 19 C-18.34 19 -17.68 19 -17 19 C-16.67 17.68 -16.34 16.36 -16 15 C-15.34 15 -14.68 15 -14 15 C-13.796328 14.458594 -13.592656 13.917188 -13.382812 13.359375 C-11.446872 10.056245 -8.713007 7.758772 -5.875 5.25 C-5.31168 4.743398 -4.748359 4.236797 -4.167969 3.714844 C-2.783485 2.471155 -1.392385 1.234837 0 0 Z " fill="#F7959A" transform="translate(92,211)" />
<path d="M0 0 C0.863486 -0.015262 1.726971 -0.030525 2.616623 -0.046249 C38.450306 -0.563222 38.450306 -0.563222 53.671875 6.308594 C54.781758 6.799727 55.891641 7.290859 57.035156 7.796875 C63.136301 10.859831 68.466361 14.921614 73.671875 19.308594 C74.504609 19.995664 75.337344 20.682734 76.195312 21.390625 C82.882913 27.07614 82.882913 27.07614 83.671875 31.308594 C83.838164 31.620547 83.838164 31.620547 84.679688 33.199219 C86.987068 38.104674 87.32691 44.365899 86.15625 49.625 C82.631914 57.811072 74.254849 62.640991 66.338623 65.935791 C61.809052 67.631628 57.228658 69.068387 52.601562 70.472656 C51.606024 70.775032 50.610485 71.077408 49.584778 71.388947 C36.611619 75.282588 23.514767 78.719631 10.421875 82.183594 C6.612536 83.195178 2.803506 84.207915 -1.00531 85.221466 C-3.349872 85.844982 -5.694788 86.467172 -8.0401 87.08786 C-9.086799 87.365502 -10.133497 87.643144 -11.211914 87.929199 C-12.130714 88.172339 -13.049513 88.415478 -13.996155 88.665985 C-15.789078 89.160051 -17.56381 89.720489 -19.328125 90.308594 C-23.734356 90.548934 -26.469285 90.37583 -30.328125 88.308594 C-30.823125 88.473594 -30.823125 88.473594 -33.328125 89.308594 C-34.17375 88.462969 -35.019375 87.617344 -35.890625 86.746094 C-38.752738 84.314323 -39.143627 84.299666 -43.203125 84.496094 C-43.71875 84.630156 -43.71875 84.630156 -46.328125 85.308594 C-46.658125 83.988594 -46.988125 82.668594 -47.328125 81.308594 C-46.998125 80.978594 -46.668125 80.648594 -46.328125 80.308594 C-47.153125 79.524844 -47.978125 78.741094 -48.828125 77.933594 C-51.328125 75.308594 -51.328125 75.308594 -51.328125 73.308594 C-49.678125 73.308594 -48.028125 73.308594 -46.328125 73.308594 C-46.328125 72.648594 -46.328125 71.988594 -46.328125 71.308594 C-45.338125 71.308594 -44.348125 71.308594 -43.328125 71.308594 C-43.658125 69.988594 -43.988125 68.668594 -44.328125 67.308594 C-43.008125 65.988594 -41.688125 64.668594 -40.328125 63.308594 C-40.658125 65.288594 -40.988125 67.268594 -41.328125 69.308594 C-40.4 69.267344 -39.471875 69.226094 -38.515625 69.183594 C-35.328125 69.308594 -35.328125 69.308594 -32.328125 71.308594 C-30.655186 71.008323 -28.988271 70.673016 -27.328125 70.308594 C-25.015625 70.746094 -25.015625 70.746094 -23.328125 71.308594 C-23.18375 70.545469 -23.039375 69.782344 -22.890625 68.996094 C-22.328125 66.308594 -22.328125 66.308594 -21.328125 63.308594 C-23.638125 62.648594 -25.948125 61.988594 -28.328125 61.308594 C-27.338125 60.648594 -26.348125 59.988594 -25.328125 59.308594 C-26.196953 59.101055 -27.065781 58.893516 -27.960938 58.679688 C-39.538616 55.584536 -39.538616 55.584536 -43.449219 50.191406 C-44.851409 47.187603 -44.72365 44.538711 -44.328125 41.308594 C-45.318125 41.968594 -46.308125 42.628594 -47.328125 43.308594 C-47.453125 46.683594 -47.453125 46.683594 -47.328125 50.308594 C-46.668125 50.968594 -46.008125 51.628594 -45.328125 52.308594 C-45.328125 53.298594 -45.328125 54.288594 -45.328125 55.308594 C-45.658125 55.473594 -45.658125 55.473594 -47.328125 56.308594 C-46.998125 56.968594 -46.668125 57.628594 -46.328125 58.308594 C-46.988125 58.308594 -47.648125 58.308594 -48.328125 58.308594 C-48.163125 58.968594 -48.163125 58.968594 -47.328125 62.308594 C-47.823125 62.143594 -47.823125 62.143594 -50.328125 61.308594 C-50.881601 59.233057 -51.328125 57.464934 -51.328125 55.308594 C-51.988125 55.308594 -52.648125 55.308594 -53.328125 55.308594 C-53.493125 55.638594 -53.493125 55.638594 -54.328125 57.308594 C-53.668125 57.968594 -53.008125 58.628594 -52.328125 59.308594 C-52.658125 60.958594 -52.988125 62.608594 -53.328125 64.308594 C-53.988125 64.143594 -53.988125 64.143594 -57.328125 63.308594 C-56.668125 63.308594 -56.008125 63.308594 -55.328125 63.308594 C-55.6375 62.607344 -55.946875 61.906094 -56.265625 61.183594 C-57.363945 58.211668 -57.80845 55.426644 -58.328125 52.308594 C-58.950381 50.624842 -59.603569 48.950921 -60.328125 47.308594 C-60.658125 47.473594 -60.658125 47.473594 -62.328125 48.308594 C-62.328125 47.648594 -62.328125 46.988594 -62.328125 46.308594 C-62.988125 46.143594 -62.988125 46.143594 -66.328125 45.308594 C-66.328125 45.968594 -66.328125 46.628594 -66.328125 47.308594 C-65.668125 47.308594 -65.008125 47.308594 -64.328125 47.308594 C-64.328125 47.968594 -64.328125 48.628594 -64.328125 49.308594 C-63.668125 49.308594 -63.008125 49.308594 -62.328125 49.308594 C-62.493125 49.638594 -62.493125 49.638594 -63.328125 51.308594 C-64.215 51.102344 -65.101875 50.896094 -66.015625 50.683594 C-69.611571 50.276505 -71.132916 50.754168 -74.328125 52.308594 C-75.318125 52.638594 -76.308125 52.968594 -77.328125 53.308594 C-77.493125 53.638594 -77.493125 53.638594 -78.328125 55.308594 C-78.988125 55.308594 -79.648125 55.308594 -80.328125 55.308594 C-80.658125 56.298594 -80.988125 57.288594 -81.328125 58.308594 C-85.738746 59.33432 -88.254431 59.345441 -92.328125 57.308594 C-94.308125 58.628594 -96.288125 59.948594 -98.328125 61.308594 C-98.328125 60.648594 -98.328125 59.988594 -98.328125 59.308594 C-98.988125 59.308594 -99.648125 59.308594 -100.328125 59.308594 C-99.715349 62.270345 -99.0744 63.689182 -97.328125 66.308594 C-100.466509 65.969309 -101.92158 65.758697 -104.078125 63.371094 C-105.328125 61.308594 -105.328125 61.308594 -106.328125 59.308594 C-109.230723 57.933679 -111.089512 57.308594 -114.328125 57.308594 C-114.328125 56.318594 -114.328125 55.328594 -114.328125 54.308594 C-114.988125 53.978594 -115.648125 53.648594 -116.328125 53.308594 C-115.998125 55.288594 -115.668125 57.268594 -115.328125 59.308594 C-119.328125 59.308594 -119.328125 59.308594 -121.328125 58.308594 C-121.658125 58.968594 -121.988125 59.628594 -122.328125 60.308594 C-125.328125 59.308594 -125.328125 59.308594 -127.328125 56.308594 C-127.658125 58.288594 -127.988125 60.268594 -128.328125 62.308594 C-130.273225 59.390944 -130.780888 57.683221 -131.328125 54.308594 C-132.648125 54.968594 -133.968125 55.628594 -135.328125 56.308594 C-135.328125 58.288594 -135.328125 60.268594 -135.328125 62.308594 C-137.905041 58.44322 -137.913719 56.920148 -137.328125 52.308594 C-134.60691 46.474818 -131.133496 41.608136 -126.328125 37.308594 C-125.6475 36.607344 -124.966875 35.906094 -124.265625 35.183594 C-121.707202 32.7077 -119.415891 30.738025 -116.082031 29.421875 C-113.001875 28.176706 -110.14288 26.668892 -107.203125 25.121094 C-75.680059 9.209491 -35.221084 0.609093 0 0 Z " fill="#FBB8B7" transform="translate(219.328125,174.69140625)" />
<path d="M0 0 C0.165 0.33 0.165 0.33 1 2 C1.99 2.33 2.98 2.66 4 3 C5.732222 5.176458 7.285785 7.310506 8.8125 9.625 C9.256099 10.297246 9.699697 10.969492 10.156738 11.662109 C22.156455 30.438188 26.404969 53.26143 26.375 75.25 C26.374789 75.905972 26.374577 76.561943 26.374359 77.237793 C26.302091 100.127913 23.150952 122.962818 17.692871 145.177246 C16.937306 148.255414 16.212817 151.34017 15.488281 154.425781 C14.973215 156.575967 14.456332 158.725719 13.9375 160.875 C13.704341 161.856057 13.471182 162.837114 13.230957 163.8479 C11.725584 169.906478 9.686238 175.37358 7 181 C6.412093 182.352187 5.828193 183.70613 5.25 185.0625 C-7.725661 213.99267 -25.989233 240.337875 -56.375 252.75 C-74.922659 259.502681 -93.568278 259.780976 -113 258 C-111.214748 255.728965 -110.286474 255.052477 -107.398438 254.523438 C-106.400703 254.474453 -105.402969 254.425469 -104.375 254.375 C-103.306367 254.307969 -102.237734 254.240937 -101.136719 254.171875 C-100.101602 254.115156 -99.066484 254.058437 -98 254 C-84.996255 253.121099 -84.996255 253.121099 -80.5 248.4375 C-79 247 -79 247 -75.75 246.3125 C-68.488372 243.77093 -65.093829 237.584337 -61.5 231.0625 C-51.81649 210.217922 -48.660782 186.778858 -44.784485 164.305847 C-43.568441 157.272588 -42.325854 150.243926 -41.085938 143.214844 C-41.019894 142.839506 -41.019894 142.839506 -40.685671 140.940069 C-39.00409 131.397156 -37.24311 121.878461 -35.269531 112.390625 C-35.078095 111.469303 -34.88666 110.547981 -34.689423 109.59874 C-29.754486 86.424156 -20.465064 66.484681 -8.554443 46.076904 C-2.486803 35.631001 2.115721 26.634811 2.1875 14.375 C2.20168 13.268984 2.215859 12.162969 2.230469 11.023438 C2.002292 8.030071 1.380996 6.587321 0 4 C0 2.68 0 1.36 0 0 Z " fill="#AC8AC8" transform="translate(565,221)" />
<path d="M0 0 C5.744186 4.232558 5.744186 4.232558 7 8 C7.233684 9.83609 7.460568 11.673503 7.640625 13.515625 C8.2517 17.740013 9.455535 21.834238 10.574219 25.949219 C11.227979 30.633501 9.671227 33.056088 7 36.8125 C6.67 37.173438 6.67 37.173438 5 39 C4.34 39 3.68 39 3 39 C3 39.66 3 40.32 3 41 C3.825 41.185625 4.65 41.37125 5.5 41.5625 C12.952278 44.623257 18.703367 50.661409 22 58 C22.60917 60.40031 22.844591 62.513451 23 65 C22.34 64.319375 21.68 63.63875 21 62.9375 C20.003408 61.954865 19.002969 60.976125 18 60 C17.418633 59.4225 16.837266 58.845 16.238281 58.25 C6.859866 49.423256 -3.982365 47.45997 -16.566406 47.738281 C-55.720513 49.526339 -124.573775 64.442714 -151.878906 93.539062 C-157.409488 99.955759 -159.850303 105.958758 -162.105469 114.144531 C-163 117 -163 117 -165 120 C-165.171291 122.542296 -165.232429 124.971895 -165.195312 127.511719 C-165.193898 127.875831 -165.193898 127.875831 -165.186737 129.71846 C-165.175553 132.041641 -165.150452 134.364435 -165.125 136.6875 C-165.114968 138.263666 -165.105842 139.839839 -165.097656 141.416016 C-165.075619 145.277493 -165.041101 149.138681 -165 153 C-165.33 153 -165.66 153 -166 153 C-166.33 149.7 -166.66 146.4 -167 143 C-167.165 143.99 -167.165 143.99 -168 149 C-168.33 149 -168.66 149 -169 149 C-169.064695 148.347412 -169.12939 147.694824 -169.196045 147.022461 C-172.702799 112.64724 -181.895636 83.562372 -203.980469 56.511719 C-217.529999 39.659982 -217.529999 39.659982 -217.1875 32.125 C-217.16043 31.343828 -217.133359 30.562656 -217.105469 29.757812 C-217.070664 29.177734 -217.035859 28.597656 -217 28 C-216.34 28 -215.68 28 -215 28 C-214.67 27.01 -214.34 26.02 -214 25 C-213.34 25.33 -212.68 25.66 -212 26 C-211.375 28.5625 -211.375 28.5625 -211 31 C-210.34 29.68 -209.68 28.36 -209 27 C-208.01 28.32 -207.02 29.64 -206 31 C-205.236875 30.814375 -204.47375 30.62875 -203.6875 30.4375 C-201 30 -201 30 -198 31 C-198 29.02 -198 27.04 -198 25 C-197.01 25.33 -196.02 25.66 -195 26 C-195 26.99 -195 27.98 -195 29 C-194.01 29 -193.02 29 -192 29 C-189.996907 29.314211 -187.996287 29.645105 -186 30 C-185.855625 30.598125 -185.71125 31.19625 -185.5625 31.8125 C-185.112756 33.561504 -184.571077 35.28677 -184 37 C-182.68 37 -181.36 37 -180 37 C-180.99 35.68 -181.98 34.36 -183 33 C-182.835 32.67 -182.835 32.67 -182 31 C-180.68 31 -179.36 31 -178 31 C-177.195625 30.46375 -176.39125 29.9275 -175.5625 29.375 C-174.716875 28.92125 -173.87125 28.4675 -173 28 C-172.236875 28.350625 -171.47375 28.70125 -170.6875 29.0625 C-167.428082 30.199506 -166.775404 29.757791 -163.75 28.3125 C-160.150643 26.45193 -160.150643 26.45193 -159 23 C-158.01 23 -157.02 23 -156 23 C-154.865625 22.649375 -153.73125 22.29875 -152.5625 21.9375 C-149.309854 21.08154 -148.025259 20.789896 -145 22 C-145.33 21.67 -145.66 21.34 -146 21 C-146 20.34 -146 19.68 -146 19 C-146.66 19 -147.32 19 -148 19 C-148.165 18.505 -148.165 18.505 -149 16 C-148.236875 16.33 -147.47375 16.66 -146.6875 17 C-144 18 -144 18 -141 18 C-141 18.66 -141 19.32 -141 20 C-140.34 20.33 -139.68 20.66 -139 21 C-139 21.99 -139 22.98 -139 24 C-138.555698 28.072769 -138.125975 31.456709 -136 35 C-136 32.378863 -136.312924 30.490649 -137 28 C-135.68 27.01 -134.36 26.02 -133 25 C-132.67 25.66 -132.67 25.66 -131 29 C-131.66 29 -132.32 29 -133 29 C-132.01 30.32 -131.02 31.64 -130 33 C-130 31.35 -130 29.7 -130 28 C-129.01 27.67 -128.02 27.34 -127 27 C-127.495 26.319375 -127.99 25.63875 -128.5 24.9375 C-130.303651 21.40535 -130.230214 18.91363 -130 15 C-128.68 14.34 -127.36 13.68 -126 13 C-125.938125 14.03125 -125.87625 15.0625 -125.8125 16.125 C-124.896441 20.493895 -123.378333 23.159141 -120 26 C-117.298332 27.209723 -114.584942 27.81053 -111.6875 28.375 C-111.317217 28.456855 -111.317217 28.456855 -109.443359 28.871094 C-107.633331 29.268132 -105.81716 29.636995 -104 30 C-104.99 30.66 -105.98 31.32 -107 32 C-106.67 32.175313 -106.67 32.175313 -105 33.0625 C-103 35 -103 35 -102.75 38.6875 C-102.8325 39.780625 -102.915 40.87375 -103 42 C-106.731301 44.487534 -107.766189 43.720649 -112 43 C-112.33 43.33 -112.33 43.33 -114 45 C-114 44.34 -114 43.68 -114 43 C-116.97 42.67 -119.94 42.34 -123 42 C-123 40.68 -123 39.36 -123 38 C-123.33 37.67 -123.66 37.34 -124 37 C-124.33 38.98 -124.66 40.96 -125 43 C-125.99 43 -126.98 43 -128 43 C-128 43.66 -128 44.32 -128 45 C-128.495 45.165 -128.495 45.165 -131 46 C-131.66 45.67 -132.32 45.34 -133 45 C-131.68 46.98 -130.36 48.96 -129 51 C-128.34 51 -127.68 51 -127 51 C-127 51.66 -127 52.32 -127 53 C-127.66 53 -128.32 53 -129 53 C-128.34 53.99 -127.68 54.98 -127 56 C-126.05125 55.79375 -125.1025 55.5875 -124.125 55.375 C-123.609375 55.313125 -123.609375 55.313125 -121 55 C-120.34 55.66 -119.68 56.32 -119 57 C-118.34 56.67 -117.68 56.34 -117 56 C-117 57.32 -117 58.64 -117 60 C-115.02 59.67 -113.04 59.34 -111 59 C-111 59.66 -111 60.32 -111 61 C-103.114424 61.478123 -96.395935 60.11553 -88.835938 57.964844 C-87.686225 57.648505 -86.536512 57.332166 -85.351959 57.006241 C-81.68955 55.995235 -78.032381 54.966532 -74.375 53.9375 C-71.974272 53.272955 -69.573232 52.609534 -67.171875 51.947266 C-55.647418 48.75857 -44.145413 45.491125 -32.660156 42.164062 C-31.683117 41.882357 -30.706078 41.600652 -29.699432 41.31041 C-18.388728 38.010649 -6.292701 34.351241 1.5 25 C4.531989 18.936023 4.513639 12.551896 3 6 C2.035422 4.640821 1.039794 3.302538 0 2 C0 1.34 0 0.68 0 0 Z " fill="#FCBFBD" transform="translate(301,203)" />
<path d="M0 0 C0.33 0 0.66 0 1 0 C1 1.65 1 3.3 1 5 C1.66 5 2.32 5 3 5 C3.184336 5.580078 3.368672 6.160156 3.558594 6.757812 C5.700794 12.527473 8.161217 15.691974 13.445312 18.871094 C16.970814 20.428999 20.409811 20.860849 24.207031 21.375 C29.026386 22.453457 33.088703 25.03836 37 28 C37.165 28.33 37.165 28.33 38 30 C38.629063 29.95875 38.629063 29.95875 41.8125 29.75 C47.732302 29.731326 52.583101 31.809834 58 34 C59.99659 34.67681 61.994646 35.349615 64 36 C64.33 35.67 64.33 35.67 66 34 C69.607998 32.663704 73.197825 32.733181 77 33 C79.625 34.4375 79.625 34.4375 82 36 C84.8125 36.6875 84.8125 36.6875 87 37 C87.33 37.99 87.66 38.98 88 40 C91.325661 42.217108 94.120771 43.099465 98 44 C98.99 43.67 99.98 43.34 101 43 C101.165 42.67 101.165 42.67 102 41 C107.379928 41.339908 111.532735 41.685578 116 45 C116 44.34 116 43.68 116 43 C119 44 119 44 121 46 C121.763125 45.814375 122.52625 45.62875 123.3125 45.4375 C126 45 126 45 129 46 C131.107169 45.31602 133.048168 44.415514 135.0625 43.496094 C135.382187 43.414238 135.382187 43.414238 137 43 C137.99 43.66 138.98 44.32 140 45 C140 44.34 140 43.68 140 43 C143 42 143 42 146 42 C147.671 41.689116 149.338715 41.359197 151 41 C151.33 39.68 151.66 38.36 152 37 C152.99 37.33 152.99 37.33 158 39 C158.33 38.01 158.66 37.02 159 36 C159.33 36.99 159.66 37.98 160 39 C160.99 39 161.98 39 163 39 C163.10248 38.650664 163.10248 38.650664 163.621094 36.882812 C163.755801 36.427773 163.755801 36.427773 164.4375 34.125 C164.704336 33.220078 164.971172 32.315156 165.246094 31.382812 C166 29 166 29 167 27 C167.66 27 168.32 27 169 27 C169.33 25.02 169.66 23.04 170 21 C170.974439 24.052337 171.012983 25.865564 170.03125 28.90625 C169.793499 29.64448 169.555747 30.38271 169.310791 31.143311 C169.04323 31.921018 168.775669 32.698726 168.5 33.5 C168.226638 34.301555 167.953276 35.10311 167.671631 35.928955 C164.26789 45.529719 159.613202 55.966789 151 62 C147.8125 62.6875 147.8125 62.6875 145 63 C143.645673 64.312004 142.312665 65.646314 141 67 C136.712519 68.894468 132.576424 69.34174 127.953125 69.65625 C126 70 126 70 124 72 C88.229962 75.394759 40.768012 61.067033 12.011719 39.699219 C10 38 10 38 9 36 C9.587812 36.20625 9.587812 36.20625 12.5625 37.25 C22.920336 40.702612 33.742444 44.119834 44.730469 44.132812 C45.78041 44.134102 46.830352 44.135391 47.912109 44.136719 C48.992988 44.132852 50.073867 44.128984 51.1875 44.125 C52.27998 44.128867 53.372461 44.132734 54.498047 44.136719 C55.544121 44.13543 56.590195 44.134141 57.667969 44.132812 C58.619539 44.131685 59.571108 44.130557 60.551514 44.129395 C63 44 63 44 66 43 C65.247187 42.829844 64.494375 42.659688 63.71875 42.484375 C60.79946 41.818323 57.88303 41.14099 54.967773 40.45752 C53.014373 40.003342 51.057964 39.562166 49.101562 39.121094 C32.094185 35.187272 12.698733 29.045653 2.0625 14.25 C-0.671721 9.639352 -0.480783 5.213819 0 0 Z " fill="#C4A7DC" transform="translate(341,406)" />
<path d="M0 0 C0.33 0.66 0.66 1.32 1 2 C2.663215 2.35015 4.330345 2.681971 6 3 C6.99 3.66 7.98 4.32 9 5 C9 5.66 9 6.32 9 7 C9.66 7 10.32 7 11 7 C11 7.99 11 8.98 11 10 C11.278437 10.051562 11.278437 10.051562 12.6875 10.3125 C15.441766 11.131336 17.587277 12.458538 20 14 C20 14.66 20 15.32 20 16 C20.99 15.67 21.98 15.34 23 15 C28.333333 15.444444 28.333333 15.444444 30.875 17.5625 C31.24625 18.036875 31.6175 18.51125 32 19 C32.165 18.505 32.165 18.505 33 16 C34.65 16 36.3 16 38 16 C38.33 15.01 38.66 14.02 39 13 C39.556875 13.309375 40.11375 13.61875 40.6875 13.9375 C43.125404 15.057618 45.362242 15.560374 48 16 C47.67 17.32 47.34 18.64 47 20 C47.286172 19.815664 47.286172 19.815664 48.734375 18.882812 C51 18 51 18 53.140625 18.679688 C53.836719 19.074141 54.532813 19.468594 55.25 19.875 C55.956406 20.264297 56.662813 20.653594 57.390625 21.054688 C57.656172 21.210664 57.656172 21.210664 59 22 C58.67 23.32 58.34 24.64 58 26 C59.60321 26.195513 61.20763 26.38112 62.8125 26.5625 C63.70582 26.666914 64.599141 26.771328 65.519531 26.878906 C68 27 68 27 71 26 C71 26.66 71 27.32 71 28 C73.090024 27.290238 75.171857 26.556329 77.25 25.8125 C77.830078 25.609473 77.830078 25.609473 80.765625 24.582031 C84.339628 22.833878 85.931341 21.374372 88 18 C88 16.68 88 15.36 88 14 C90.8125 13.375 90.8125 13.375 94 13 C94.99 13.66 95.98 14.32 97 15 C97.33 14.01 97.66 13.02 98 12 C100.64 13.32 103.28 14.64 106 16 C106.226875 15.21625 106.45375 14.4325 106.6875 13.625 C108 11 108 11 110.125 9.6875 C113.865169 8.793112 117.157113 8.869733 121 9 C121.33 9.66 121.66 10.32 122 11 C122.61875 10.175 123.2375 9.35 123.875 8.5 C126.399249 5.982881 128.216645 5.612033 131.75 5.5625 C136.635442 5.804571 141.286367 6.724814 146 8 C130.945724 16.006808 113.677092 17.421573 97 19 C103.142858 25.424262 111.39838 26.395882 119.740234 28.193359 C120.198818 28.296162 120.198818 28.296162 122.519531 28.816406 C122.937711 28.906359 122.937711 28.906359 125.053955 29.361572 C125.69615 29.572253 126.338345 29.782935 127 30 C127.33 30.66 127.66 31.32 128 32 C120.576146 34.848635 113.158629 37.169607 105.4375 39.0625 C104.400449 39.319265 103.363398 39.57603 102.294922 39.840576 C93.260178 42.029069 84.203269 43.710429 75 45 C73.775391 45.184336 72.550781 45.368672 71.289062 45.558594 C48.103213 48.370627 25.204842 46.112649 6 32 C5.67 32.66 5.34 33.32 5 34 C-0.968301 24.729649 -6.354153 15.194683 -7 4 C-6.67 4.66 -6.34 5.32 -6 6 C-4.35 5.67 -2.7 5.34 -1 5 C-0.67 3.35 -0.34 1.7 0 0 Z " fill="#FDB9B7" transform="translate(150,427)" />
<path d="M0 0 C5.744186 4.232558 5.744186 4.232558 7 8 C7.233684 9.83609 7.460568 11.673503 7.640625 13.515625 C8.2517 17.740013 9.455535 21.834238 10.574219 25.949219 C11.227979 30.633501 9.671227 33.056088 7 36.8125 C6.67 37.173438 6.67 37.173438 5 39 C4.34 39 3.68 39 3 39 C3 39.66 3 40.32 3 41 C3.825 41.185625 4.65 41.37125 5.5 41.5625 C12.952278 44.623257 18.703367 50.661409 22 58 C22.60917 60.40031 22.844591 62.513451 23 65 C22.34 64.319375 21.68 63.63875 21 62.9375 C20.003408 61.954865 19.002969 60.976125 18 60 C17.418633 59.4225 16.837266 58.845 16.238281 58.25 C6.859866 49.423256 -3.982365 47.45997 -16.566406 47.738281 C-55.720513 49.526339 -124.573775 64.442714 -151.878906 93.539062 C-157.409488 99.955759 -159.850303 105.958758 -162.105469 114.144531 C-163 117 -163 117 -165 120 C-165.171291 122.542296 -165.232429 124.971895 -165.195312 127.511719 C-165.193898 127.875831 -165.193898 127.875831 -165.186737 129.71846 C-165.175553 132.041641 -165.150452 134.364435 -165.125 136.6875 C-165.114968 138.263666 -165.105842 139.839839 -165.097656 141.416016 C-165.075619 145.277493 -165.041101 149.138681 -165 153 C-165.33 153 -165.66 153 -166 153 C-166.97973 145.058494 -167.215438 137.18423 -167.25 129.1875 C-167.270625 128.006074 -167.29125 126.824648 -167.3125 125.607422 C-167.357498 115.342169 -166.342388 104.938868 -161 95.9375 C-160.505 95.080273 -160.01 94.223047 -159.5 93.339844 C-158.091052 91.142031 -156.599938 89.061825 -155 87 C-155.894609 86.997422 -156.789219 86.994844 -157.710938 86.992188 C-169.306142 86.621339 -176.469568 83.248765 -184.363281 74.839844 C-184.903398 74.232695 -185.443516 73.625547 -186 73 C-186.55043 72.382539 -187.100859 71.765078 -187.667969 71.128906 C-188.829048 69.808411 -189.981098 68.479934 -191.125 67.144531 C-192.426885 65.655501 -193.763178 64.196138 -195.125 62.761719 C-199.592208 58.023065 -203.422403 53.152724 -206.9375 47.6875 C-207.315034 47.100815 -207.692568 46.514131 -208.081543 45.909668 C-210.079633 42.718008 -211.910834 39.616033 -213 36 C-212.67 35.01 -212.34 34.02 -212 33 C-211.5875 33.822422 -211.175 34.644844 -210.75 35.492188 C-206.851205 43.028697 -202.678809 49.631242 -197 56 C-196.300039 56.794062 -195.600078 57.588125 -194.878906 58.40625 C-185.049981 68.91847 -173.629364 73.323132 -159.374268 73.991211 C-155.187872 74.069055 -151.153932 73.638993 -147.03125 72.933594 C-146.265119 72.803257 -145.498988 72.672921 -144.709641 72.538635 C-133.723862 70.54158 -123.036116 67.316718 -112.3125 64.25 C-107.536235 62.898513 -102.758268 61.553083 -97.980469 60.207031 C-96.75884 59.861809 -95.537212 59.516587 -94.278564 59.160904 C-85.468358 56.676499 -76.640643 54.263282 -67.800781 51.886719 C-66.564495 51.553567 -65.328208 51.220414 -64.054459 50.877167 C-59.247873 49.582375 -54.441297 48.287765 -49.630768 47.00769 C-4.846326 35.083572 -4.846326 35.083572 2.167969 23.707031 C4.811949 18.282527 4.334143 11.774934 3 6 C2.035422 4.640821 1.039794 3.302538 0 2 C0 1.34 0 0.68 0 0 Z " fill="#F8E7E5" transform="translate(301,203)" />
<path d="M0 0 C1.284121 2.568242 0.819335 3.810878 0.375 6.625 C-0.37969 13.723165 1.529401 18.39515 5.75 24.0625 C16.194514 34.86934 33.640554 37.654015 47.625 41.1875 C49.784415 41.744714 51.943426 42.303499 54.102051 42.86377 C58.53991 44.014594 62.979344 45.159031 67.419922 46.299316 C76.638939 48.673598 85.832254 51.143167 95.02655 53.611084 C108.339213 57.181362 121.659909 60.721032 135 64.1875 C136.073628 64.467065 137.147256 64.746631 138.253418 65.034668 C139.221665 65.284907 140.189912 65.535146 141.1875 65.792969 C142.006055 66.004617 142.824609 66.216265 143.667969 66.434326 C157.680578 69.833323 173.028411 69.852567 185.628906 62.457031 C191.359464 58.724909 195.789887 54.367198 200 49 C200.33 49.66 200.66 50.32 201 51 C182.043288 78.465466 182.043288 78.465466 167.234375 81.582031 C164.75 81.875 164.75 81.875 161 82 C161.493711 82.99 161.987422 83.98 162.496094 85 C163.143838 86.333038 163.790939 87.666388 164.4375 89 C164.762988 89.648398 165.088477 90.296797 165.423828 90.964844 C168.289715 96.93298 169 102.408794 169 109 C168.34 109 167.68 109 167 109 C166.67 109.66 166.34 110.32 166 111 C165.89043 110.582988 165.89043 110.582988 165.335938 108.472656 C161.520022 94.930811 154.882711 84.909125 142.359375 77.867188 C133.260457 73.047711 123.729131 69.324354 114 66 C113.623352 65.869482 113.623352 65.869482 111.717285 65.208984 C26.895173 36.107273 26.895173 36.107273 -1 49 C-4.160876 50.815069 -7.119924 52.767383 -10 55 C-10 54.34 -10 53.68 -10 53 C-10.495 53.165 -10.495 53.165 -13 54 C-12.595872 48.476916 -10.64546 45.014867 -7 41 C-1.871795 37 -1.871795 37 2 37 C1.494687 36.379961 0.989375 35.759922 0.46875 35.121094 C-5.366169 27.167543 -6.19841 20.704979 -5 11 C-4.061425 6.664956 -3.17124 3.17124 0 0 Z " fill="#F7F0EE" transform="translate(356,208)" />
<path d="M0 0 C1.468736 1.195668 2.92681 2.404529 4.375 3.625 C5.207734 4.31207 6.040469 4.999141 6.898438 5.707031 C13.586038 11.392546 13.586038 11.392546 14.375 15.625 C14.541289 15.936953 14.541289 15.936953 15.382812 17.515625 C17.690193 22.42108 18.030035 28.682305 16.859375 33.941406 C13.136118 42.589517 4.347182 47.060436 -3.914062 50.554688 C-4.808672 50.907891 -5.703281 51.261094 -6.625 51.625 C-7.041367 51.791289 -7.041367 51.791289 -9.148438 52.632812 C-13.296478 54.162489 -16.273493 55.169083 -20.625 53.625 C-20.295 53.13 -20.295 53.13 -18.625 50.625 C-18.50125 49.635 -18.3775 48.645 -18.25 47.625 C-17.625 44.625 -17.625 44.625 -15.5625 42.75 C-14.923125 42.37875 -14.28375 42.0075 -13.625 41.625 C-14.285 41.625 -14.945 41.625 -15.625 41.625 C-16.285 42.285 -16.945 42.945 -17.625 43.625 C-17.955 42.965 -18.285 42.305 -18.625 41.625 C-17.6875 39 -17.6875 39 -16.625 36.625 C-16.295 37.285 -15.965 37.945 -15.625 38.625 C-13.0625 39.25 -13.0625 39.25 -10.625 39.625 C-10.625 38.635 -10.625 37.645 -10.625 36.625 C-11.12 36.46 -11.12 36.46 -13.625 35.625 C-12.625 33.625 -12.625 33.625 -9.625 32.625 C-8.965 32.295 -8.305 31.965 -7.625 31.625 C-8.12 31.295 -8.12 31.295 -10.625 29.625 C-10.295 29.295 -9.965 28.965 -9.625 28.625 C-10.285 28.295 -10.945 27.965 -11.625 27.625 C-11.295 24.985 -10.965 22.345 -10.625 19.625 C-11.615 19.625 -12.605 19.625 -13.625 19.625 C-19.339286 16.196429 -19.339286 16.196429 -20.625 13.625 C-21.945 13.625 -23.265 13.625 -24.625 13.625 C-25.285 12.305 -25.945 10.985 -26.625 9.625 C-27.285 9.625 -27.945 9.625 -28.625 9.625 C-29.646046 8.646498 -30.645612 7.645196 -31.625 6.625 C-32.285 6.295 -32.945 5.965 -33.625 5.625 C-30.625 3.625 -30.625 3.625 -27.625 3.625 C-30.625 1.625 -30.625 1.625 -32.625 0.625 C-34.625 -0.375 -34.625 -0.375 -37.625 -2.375 C-38.615 -2.375 -39.605 -2.375 -40.625 -2.375 C-41.615 -3.035 -42.605 -3.695 -43.625 -4.375 C-43.625 -3.715 -43.625 -3.055 -43.625 -2.375 C-45.275 -2.375 -46.925 -2.375 -48.625 -2.375 C-48.955 -3.035 -49.285 -3.695 -49.625 -4.375 C-50.615 -4.705 -51.605 -5.035 -52.625 -5.375 C-54.3125 -7.9375 -54.3125 -7.9375 -55.625 -10.375 C-57.895768 -10.401997 -60.166628 -10.421395 -62.4375 -10.4375 C-63.70207 -10.449102 -64.966641 -10.460703 -66.269531 -10.472656 C-69.625 -10.375 -69.625 -10.375 -72.625 -9.375 C-73.615 -10.035 -74.605 -10.695 -75.625 -11.375 C-73.885433 -13.114567 -71.431338 -12.746904 -69.0625 -12.9375 C-68.165312 -13.009688 -68.165312 -13.009688 -63.625 -13.375 C-67.585 -13.375 -71.545 -13.375 -75.625 -13.375 C-75.625 -13.705 -75.625 -14.035 -75.625 -14.375 C-49.328017 -18.498169 -21.794536 -16.40169 0 0 Z " fill="#FBC0BE" transform="translate(288.625,190.375)" />
<path d="M0 0 C0 0.66 0 1.32 0 2 C0.598125 2.2475 1.19625 2.495 1.8125 2.75 C4.346366 4.197923 5.422963 5.562761 7 8 C7.195938 8.299062 7.195938 8.299062 8.1875 9.8125 C9.37436 13.007893 9.301508 15.623109 9 19 C7.875 21.4375 7.875 21.4375 6 23 C4.000981 23.062626 1.998853 23.067712 0 23 C-0.482109 22.301328 -0.964219 21.602656 -1.460938 20.882812 C-2.092578 19.972734 -2.724219 19.062656 -3.375 18.125 C-4.001484 17.220078 -4.627969 16.315156 -5.273438 15.382812 C-7 13 -7 13 -9 11 C-14.287504 10.566598 -17.757173 10.484514 -22 14 C-24.863381 17.924928 -25.392346 20.873793 -25.5625 25.6875 C-25.790588 31.790588 -25.790588 31.790588 -28 34 C-31.4375 34.375 -31.4375 34.375 -35 34 C-38.738099 30.635711 -38.844593 26.58515 -39.3125 21.8125 C-38.71708 14.548373 -35.8408 7.871549 -30.824219 2.539062 C-20.622596 -6.067874 -11.488526 -5.372505 0 0 Z " fill="#3F1E3F" transform="translate(220,330)" />
<path d="M0 0 C6.340745 3.22466 11.582654 8.132623 14.699219 14.574219 C16.328919 19.639296 16.611059 25.432466 14.632812 30.429688 C13.53125 32.347656 13.53125 32.347656 11.53125 35.160156 C8.15625 35.285156 8.15625 35.285156 4.53125 35.160156 C1.792576 32.421482 2.301562 30.728234 2.21875 26.910156 C1.703745 19.409363 1.703745 19.409363 -0.40625 16.347656 C-4.161802 13.665119 -6.5504 13.293288 -11.097656 13.570312 C-15.010722 14.543744 -16.401979 16.840796 -18.46875 20.160156 C-19.066875 21.108906 -19.665 22.057656 -20.28125 23.035156 C-20.673125 23.736406 -21.065 24.437656 -21.46875 25.160156 C-24.84375 25.285156 -24.84375 25.285156 -28.46875 25.160156 C-30.782485 22.846421 -30.835055 22.256207 -30.96875 19.097656 C-30.837647 13.291651 -28.23168 9.42881 -24.46875 5.160156 C-17.276999 -0.56389 -8.949902 -3.044666 0 0 Z " fill="#3E1D3E" transform="translate(468.46875,329.83984375)" />
<path d="M0 0 C4.962216 3.747834 4.962216 3.747834 6.375 6.75 C6.895832 10.767847 6.634227 13.160849 5 16.875 C0.434338 21.875487 -4.387639 24.369134 -11.144531 25.164062 C-18.343806 25.332736 -24.515617 25.322003 -30.148438 20.425781 C-32.457627 17.995391 -33.570412 16.041138 -34.1875 12.75 C-33.253446 7.768377 -30.357893 4.074182 -26.625 0.75 C-18.815095 -3.357807 -7.744513 -4.621035 0 0 Z " fill="#3F1D3E" transform="translate(208.625,207.25)" />
<path d="M0 0 C3.695253 2.132791 6.547269 3.907038 8.5 7.8125 C9.217143 11.007046 9.323311 13.631271 8.5 16.8125 C5.409882 21.218953 1.009281 23.588599 -4.269531 24.558594 C-13.041854 25.557194 -19.251855 25.271165 -26.5 19.8125 C-29.605148 16.934558 -30.378536 15.554778 -31.0625 11.375 C-30.239373 6.161863 -27.872223 3.58208 -23.808594 0.550781 C-16.351541 -3.886087 -7.732933 -3.60414 0 0 Z " fill="#3D1C3D" transform="translate(520.5,231.1875)" />
<path d="M0 0 C4.002045 2.920411 6.061116 5.151266 6.875 10.125 C6.187873 14.476806 4.686052 16.972202 1.3125 19.6875 C-5.208971 23.612186 -12.917797 23.638492 -20.214844 22.183594 C-25.230271 20.723195 -28.258888 18.758976 -31.6875 14.6875 C-32.0175 14.3575 -32.3475 14.0275 -32.6875 13.6875 C-33.265813 6.747741 -33.265813 6.747741 -31.1875 2.9375 C-22.080446 -5.258849 -10.843596 -5.29571 0 0 Z " fill="#3D1B3D" transform="translate(412.6875,198.3125)" />
<path d="M0 0 C4.940007 4.054922 7.009199 7.573398 7.6875 13.976562 C7.771305 15.496371 7.84132 17.017318 7.875 18.539062 C5.592506 20.652483 4.495777 21.546679 1.328125 21.507812 C-1.802773 20.271407 -2.60393 18.865618 -4.375 16.039062 C-6.879866 12.622841 -8.436949 10.864153 -12.6875 10.164062 C-16.437782 10.151285 -19.133864 10.960665 -21.914062 13.664062 C-24.004506 16.900878 -24.704975 20.473817 -25.484375 24.210938 C-25.695781 24.979219 -25.907188 25.7475 -26.125 26.539062 C-28.9237 27.938413 -31.029988 27.791717 -34.125 27.539062 C-35.804688 26.410156 -35.804688 26.410156 -37.125 24.539062 C-37.417969 21.621094 -37.417969 21.621094 -37.3125 18.351562 C-37.28543 17.264883 -37.258359 16.178203 -37.230469 15.058594 C-37.195664 14.227148 -37.160859 13.395703 -37.125 12.539062 C-36.465 12.539062 -35.805 12.539062 -35.125 12.539062 C-35.024453 11.799141 -34.923906 11.059219 -34.820312 10.296875 C-33.378426 4.577933 -28.833564 0.632544 -24 -2.460938 C-16.035001 -5.187694 -7.03711 -4.631039 0 0 Z " fill="#3E1D3E" transform="translate(304.125,313.4609375)" />
<path d="M0 0 C5.947424 2.078802 10.584717 6.798435 14 12 C16.1531 17.187013 17.150013 23.425362 16 29 C13.752284 31.139336 12.522373 31.923555 9.4375 32.375 C6.501281 31.923274 5.807527 31.307043 4 29 C3.664062 26.914062 3.664062 26.914062 3.625 24.625 C3.339156 20.809604 3.102909 20.123491 0.5 17 C0.0875 16.67 0.0875 16.67 -2 15 C-2.33 14.67 -2.66 14.34 -3 14 C-10.088608 13.291139 -10.088608 13.291139 -13.8125 16.1875 C-16 19 -16 19 -17.4375 21.75 C-19 24 -19 24 -21.9375 25.0625 C-25 25 -25 25 -27.375 23.4375 C-29.528217 20.207674 -29.663782 18.835185 -29 15 C-23.446165 2.203146 -13.084218 -1.250909 0 0 Z " fill="#3E1C3E" transform="translate(381,311)" />
<path d="M0 0 C6.461538 0.461538 6.461538 0.461538 9 3 C10.00564 7.209449 9.738687 10.741862 7.539062 14.488281 C5.776481 16.760301 3.966628 18.902825 2 21 C1.758301 21.26748 1.758301 21.26748 0.535156 22.621094 C-5.782877 28.296071 -14.42512 28.681045 -22.5 28.453125 C-27.395536 27.819328 -30.369505 26.254927 -34 23 C-34.99 22.195625 -35.98 21.39125 -37 20.5625 C-39 18 -39 18 -39.5 14.9375 C-38.962487 11.77961 -38.149787 10.328936 -36 8 C-30.769612 8.402338 -28.45202 9.054834 -25 13 C-19.445019 14.85166 -13.989056 14.884025 -8.625 12.5 C-5.768851 9.779858 -4.40036 7.386802 -2.859375 3.804688 C-2 2 -2 2 0 0 Z " fill="#3E1D3E" transform="translate(268,352)" />
<path d="M0 0 C2.5625 0.5 2.5625 0.5 4.6875 2.6875 C6.5625 5.5 6.5625 5.5 8 8.0625 C9.960413 11.120744 11.387349 12.675977 14.5625 14.5 C20.550069 15.401139 25.406243 14.851567 30.5625 11.5 C31.2225 10.84 31.8825 10.18 32.5625 9.5 C35.372342 9.139764 36.944919 9.116674 39.375 10.625 C41.104238 13.355376 40.886207 15.327671 40.5625 18.5 C39.896395 21.016397 39.137433 22.114823 36.976562 23.5625 C35.769602 24.255102 34.549671 24.925712 33.316406 25.570312 C31.5625 26.5 31.5625 26.5 28.5625 28.5 C19.296944 29.566943 11.34949 28.993148 3.5625 23.5 C0.6875 21.0625 0.6875 21.0625 -1.4375 18.5 C-2.200625 17.5925 -2.96375 16.685 -3.75 15.75 C-5.864568 11.677499 -6.39324 8.020393 -5.4375 3.5 C-3.64004 1.227643 -2.8737 0.589477 0 0 Z " fill="#3F1D3F" transform="translate(394.4375,352.5)" />
<path d="M0 0 C6.543454 -0.370384 6.543454 -0.370384 8.59375 1.292969 C13.758549 7.562461 14.366766 13.863473 14.375 21.75 C14.376531 22.578223 14.378062 23.406445 14.379639 24.259766 C14.285875 29.435074 13.706645 33.395121 10.8125 37.8125 C7.750837 39.818417 5.548198 39.550582 2 39 C-3.620097 34.018551 -5.718706 27.916134 -6.25 20.519531 C-6.351036 14.526843 -6.1511 9.647708 -4 4 C-3.34 4 -2.68 4 -2 4 C-1.34 2.68 -0.68 1.36 0 0 Z " fill="#3E1C3D" transform="translate(70,281)" />
<path d="M0 0 C7.704368 6.420307 10.367334 14.884225 11.375 24.625 C10.893348 28.959871 9.8536 33.037717 8 37 C4.95016 38.52492 2.357663 38.235625 -1 38 C-2.9375 36.625 -2.9375 36.625 -4 35 C-4 34.34 -4 33.68 -4 33 C-4.66 33 -5.32 33 -6 33 C-9.945431 24.576963 -12.928917 16.263372 -10.433594 6.867188 C-8.358094 1.673004 -5.724903 -0.954151 0 0 Z " fill="#3F1D3E" transform="translate(111,382)" />
<path d="M0 0 C5.020077 4.733216 6.953899 10.401839 7.253906 17.121094 C7.284726 18.643042 7.304097 20.165262 7.3125 21.6875 C7.317979 22.424521 7.323457 23.161543 7.329102 23.920898 C7.274919 28.040634 6.83413 31.295203 5 35 C4.34 35 3.68 35 3 35 C3 35.66 3 36.32 3 37 C0.076924 37.297262 -2.146058 37.48273 -5 37 C-10.926694 32.126941 -12.403906 25.005558 -13.285156 17.605469 C-13.512273 11.96706 -12.067955 7.206815 -10 2 C-9.34 2 -8.68 2 -8 2 C-8 1.34 -8 0.68 -8 0 C-4.997338 -1.501331 -3.186693 -0.892274 0 0 Z " fill="#3F1D3E" transform="translate(94,333)" />
<path d="M0 0 C0.66 0 1.32 0 2 0 C2 0.66 2 1.32 2 2 C2.66 2 3.32 2 4 2 C18.823437 27.87734 25.357356 58.907084 25.0625 88.6875 C25.053477 89.887617 25.044453 91.087734 25.035156 92.324219 C25.023555 93.207227 25.011953 94.090234 25 95 C24.34 94.67 23.68 94.34 23 94 C21.178097 80.348506 19.453373 66.695903 18 53 C17.34 53 16.68 53 16 53 C15.769258 52.480508 15.538516 51.961016 15.300781 51.425781 C13.117471 46.757122 10.921963 43.455063 7 40 C6.750566 39.778281 6.750566 39.778281 5.488281 38.65625 C2.816889 36.341492 0.264741 34.381236 -3 33 C-3 32.34 -3 31.68 -3 31 C-2.21625 30.2575 -1.4325 29.515 -0.625 28.75 C2.298787 25.686985 3.114991 24.107595 4 20 C3.678475 17.19682 2.931157 14.573873 2.125 11.875 C0.971196 7.818075 0 4.26914 0 0 Z " fill="#F5BBBC" transform="translate(307,211)" />
<path d="M0 0 C2.06764 1.025169 4.109972 2.061455 6.125 3.1875 C6.74375 3.455625 7.3625 3.72375 8 4 C8.66 3.67 9.32 3.34 10 3 C9.34 4.32 8.68 5.64 8 7 C7.34 7 6.68 7 6 7 C6 7.66 6 8.32 6 9 C6.825 9.185625 7.65 9.37125 8.5 9.5625 C15.952278 12.623257 21.703367 18.661409 25 26 C25.60917 28.40031 25.844591 30.513451 26 33 C25.67 32.659688 25.67 32.659688 24 30.9375 C23.003408 29.954865 22.002969 28.976125 21 28 C20.418633 27.4225 19.837266 26.845 19.238281 26.25 C9.802637 17.369393 -0.835605 15.636231 -13.460938 15.710938 C-24.897879 16.218449 -36.360942 19.052942 -47.4375 21.8125 C-52.05244 22.938981 -55.397765 23.177316 -60 22 C-56.650986 19.767324 -53.942746 19.057234 -50.050781 18.046875 C-48.629525 17.670693 -47.208303 17.294387 -45.787109 16.917969 C-43.572576 16.338496 -41.35741 15.761625 -39.141357 15.187988 C-31.039836 13.082383 -23.07772 10.81195 -15.230469 7.882812 C-14.576214 7.63924 -13.92196 7.395668 -13.247879 7.144714 C-8.393226 5.277824 -4.235072 2.999843 0 0 Z " fill="#F8E2E0" transform="translate(298,235)" />
<path d="M0 0 C2.460938 0.398438 2.460938 0.398438 4.25 1.425781 C6.110693 4.45691 5.904331 7.513035 5.835938 10.960938 C5.827236 11.67822 5.818535 12.395503 5.80957 13.134521 C5.572282 21.779019 3.379127 29.244707 -1.539062 36.398438 C-4.020069 38.319217 -5.035521 38.434405 -8.164062 38.210938 C-10.539062 37.398438 -10.539062 37.398438 -12.539062 34.398438 C-13.498623 23.419573 -13.303046 12.701056 -6.164062 3.773438 C-4.078892 1.364542 -3.173966 0.498068 0 0 Z " fill="#3A193A" transform="translate(549.5390625,331.6015625)" />
<path d="M0 0 C2.390481 0.869266 3.471905 1.780692 5.0625 3.75 C8.116722 12.912665 5.848393 22.576135 1.996094 31.113281 C0.834341 33.271917 -0.217392 35.002517 -1.9375 36.75 C-5.75 37.75 -5.75 37.75 -8.9375 37.75 C-11.944671 33.618131 -12.448405 30.105316 -12.375 25.125 C-12.368877 24.420769 -12.362754 23.716538 -12.356445 22.990967 C-12.110899 14.700011 -9.949915 6.762415 -3.9375 0.75 C-1.9375 -0.25 -1.9375 -0.25 0 0 Z " fill="#3C1B3C" transform="translate(577.9375,298.25)" />
<path d="M0 0 C0.99 0.33 1.98 0.66 3 1 C3.027306 3.812567 3.046985 6.624862 3.0625 9.4375 C3.070879 10.220605 3.079258 11.003711 3.087891 11.810547 C3.091113 12.593652 3.094336 13.376758 3.097656 14.183594 C3.102893 14.890564 3.10813 15.597534 3.113525 16.325928 C3.017505 18.587666 2.788632 20.741922 2.502197 22.983887 C1.80663 29.008512 1.856781 35.016357 1.867188 41.074219 C1.866231 42.315651 1.865274 43.557084 1.864288 44.836136 C1.86361 47.454153 1.865438 50.072172 1.869629 52.690186 C1.87496 56.657429 1.869683 60.624557 1.863281 64.591797 C1.863943 67.148438 1.865225 69.705079 1.867188 72.261719 C1.865163 73.429906 1.863139 74.598094 1.861053 75.801682 C1.883633 83.904061 2.329921 91.92605 3 100 C4.051875 100.268125 5.10375 100.53625 6.1875 100.8125 C9.575192 101.867683 12.070896 103.047264 15 105 C15 105.66 15 106.32 15 107 C17.97 107.33 20.94 107.66 24 108 C24 108.33 24 108.66 24 109 C22.926211 109.097969 21.852422 109.195938 20.746094 109.296875 C19.309808 109.447075 17.873614 109.598164 16.4375 109.75 C15.733027 109.811875 15.028555 109.87375 14.302734 109.9375 C8.98641 110.525481 5.492371 112.095602 1 115 C-0.98 113.68 -2.96 112.36 -5 111 C-4.67 110.835 -4.67 110.835 -3 110 C-3.005801 109.019668 -3.011602 108.039336 -3.017578 107.029297 C-3.07777 91.637895 -2.735452 76.255235 -2.427246 60.867676 C-1.955628 37.123145 -1.955628 37.123145 -1.9375 26.757812 C-1.936352 26.41329 -1.936352 26.41329 -1.930542 24.6698 C-1.940308 18.414989 -2.384298 12.222992 -3 6 C-2.34 6.33 -1.68 6.66 -1 7 C-0.67 4.69 -0.34 2.38 0 0 Z " fill="#C2A5D8" transform="translate(334,279)" />
<path d="M0 0 C2.719627 1.071368 3.523393 2.350791 5.0625 4.8125 C6.519394 12.696867 4.61643 22.402435 0.632812 29.28125 C-1.693062 32.474989 -3.624245 34.603663 -6.9375 36.8125 C-9 36.625 -9 36.625 -10.9375 35.8125 C-14.451857 30.540965 -13.429632 23.94288 -12.9375 17.8125 C-11.416183 11.02825 -8.851781 5.726781 -3.9375 0.8125 C-1.9375 -0.1875 -1.9375 -0.1875 0 0 Z " fill="#3C1A3C" transform="translate(539.9375,395.1875)" />
<path d="M0 0 C2.675838 2.675838 2.329781 4.072856 2.375 7.8125 C2.237912 16.644855 0.389842 27.427591 -6 34 C-9.75 34.875 -9.75 34.875 -13 35 C-17.043017 28.598556 -16.844846 22.865396 -15.273438 15.675781 C-13.504918 9.370938 -11.789564 4.537482 -7 0 C-4.29393 -1.353035 -2.867163 -0.78847 0 0 Z " fill="#3C1B3C" transform="translate(568,370)" />
<path d="M0 0 C0.33 0 0.66 0 1 0 C1 1.65 1 3.3 1 5 C1.66 5 2.32 5 3 5 C3.184336 5.580078 3.368672 6.160156 3.558594 6.757812 C6.105296 13.616929 9.652955 16.541674 16 20 C16 20.66 16 21.32 16 22 C16.650977 22.251367 17.301953 22.502734 17.972656 22.761719 C20.305555 23.71595 22.583172 24.71657 24.871094 25.769531 C40.263564 32.730805 56.261599 37.272342 73.222656 37.859375 C75.910605 37.995474 78.379487 38.403773 81 39 C80 42 80 42 77.199219 43.570312 C76.040352 44.083359 74.881484 44.596406 73.6875 45.125 C72.536367 45.643203 71.385234 46.161406 70.199219 46.695312 C65.609482 48.567073 62.213086 49.121584 57.25 49.0625 C56.265156 49.053477 55.280312 49.044453 54.265625 49.035156 C53.517969 49.023555 52.770312 49.011953 52 49 C51.67 48.34 51.34 47.68 51 47 C48.9375 45.875 48.9375 45.875 47 45 C48.120195 44.939414 49.240391 44.878828 50.394531 44.816406 C51.8672 44.731986 53.339855 44.647339 54.8125 44.5625 C55.550488 44.523184 56.288477 44.483867 57.048828 44.443359 C60.230713 44.25619 62.961624 44.012792 66 43 C65.247187 42.829844 64.494375 42.659688 63.71875 42.484375 C60.79946 41.818323 57.88303 41.14099 54.967773 40.45752 C53.014373 40.003342 51.057964 39.562166 49.101562 39.121094 C32.094185 35.187272 12.698733 29.045653 2.0625 14.25 C-0.671721 9.639352 -0.480783 5.213819 0 0 Z " fill="#AC8AC5" transform="translate(341,406)" />
<path d="M0 0 C0.560742 0.71543 1.121484 1.430859 1.699219 2.167969 C3.982225 4.97812 6.362906 7.646879 8.8125 10.3125 C11.78022 13.558308 14.734977 16.809778 17.625 20.125 C18.178008 20.754062 18.731016 21.383125 19.300781 22.03125 C20.507498 23.429377 21.690108 24.84847 22.855469 26.28125 C30.744363 35.729027 38.024403 39.439754 50.289062 40.773438 C51.183672 40.848203 52.078281 40.922969 53 41 C51.386172 44.402123 49.413962 47.103245 47 50 C45.582494 49.884903 44.165988 49.757463 42.75 49.625 C41.961094 49.555391 41.172188 49.485781 40.359375 49.414062 C37.8532 48.974237 36.14787 48.358008 34 47 C33.401875 46.01 32.80375 45.02 32.1875 44 C30 41 30 41 26.597656 40.199219 C23 39 23 39 20.953125 36.269531 C20.391094 35.128711 19.829062 33.987891 19.25 32.8125 C15.976407 26.496187 12.174129 20.887741 7.856445 15.239502 C0 4.88679 0 4.88679 0 0 Z " fill="#F9C9C9" transform="translate(93,249)" />
<path d="M0 0 C0.66 0.33 1.32 0.66 2 1 C2 1.66 2 2.32 2 3 C5.75 4.125 5.75 4.125 8 3 C7.67 5.31 7.34 7.62 7 10 C7.66 10 8.32 10 9 10 C7.312205 20.037937 4.833845 32.472054 -1 41 C-3.125 41.738281 -3.125 41.738281 -5 42 C-7.613433 33.343002 -7.613433 33.343002 -6.195312 30.238281 C-5.842109 29.602773 -5.488906 28.967266 -5.125 28.3125 C-0.507097 19.256188 -0.458926 9.951446 0 0 Z M-10 35 C-8 36 -8 36 -8 36 Z " fill="#A784BC" transform="translate(570,369)" />
<path d="M0 0 C1.175625 0.4125 2.35125 0.825 3.5625 1.25 C12.16842 4.11864 21.02375 6.648737 30 8 C29.67 8.165 29.67 8.165 28 9 C28 9.66 28 10.32 28 11 C28.9075 11.103125 29.815 11.20625 30.75 11.3125 C34.030718 12.006498 35.608891 12.700857 38 15 C38 15.66 38 16.32 38 17 C38.68707 17.181758 39.374141 17.363516 40.082031 17.550781 C40.983086 17.802148 41.884141 18.053516 42.8125 18.3125 C43.70582 18.556133 44.599141 18.799766 45.519531 19.050781 C48.052477 20.020082 49.27165 20.950096 51 23 C44.648484 25.062886 39.47703 22.425249 33.5625 20.125 C32.496606 19.717334 31.430713 19.309668 30.33252 18.889648 C19.145215 14.478374 9.054399 8.993974 0 1 C0 0.67 0 0.34 0 0 Z " fill="#AF8FC8" transform="translate(350,442)" />
<path d="M0 0 C0.33 0.495 0.33 0.495 2 3 C2.66 2.67 3.32 2.34 4 2 C8.352256 21.574107 11.987974 41.874606 11 62 C10.34 61.67 9.68 61.34 9 61 C7.178097 47.348506 5.453373 33.695903 4 20 C3.34 20 2.68 20 2 20 C0.387949 13.235144 -0.266186 6.950411 0 0 Z " fill="#F9B6B6" transform="translate(321,244)" />
<path d="M0 0 C0.66 0 1.32 0 2 0 C2 0.66 2 1.32 2 2 C2.66 2 3.32 2 4 2 C4.990265 3.701924 5.966732 5.41188 6.9375 7.125 C7.482773 8.076328 8.028047 9.027656 8.589844 10.007812 C10.029485 13.062564 10.608674 15.661344 11 19 C10.67 19 10.34 19 10 19 C9.913633 19.675469 9.827266 20.350937 9.738281 21.046875 C8.576329 28.423671 8.576329 28.423671 5.5 31.5 C4.675 31.995 3.85 32.49 3 33 C2.34 33.66 1.68 34.32 1 35 C-0.32 34.34 -1.64 33.68 -3 33 C-3 32.34 -3 31.68 -3 31 C-2.21625 30.2575 -1.4325 29.515 -0.625 28.75 C2.298787 25.686985 3.114991 24.107595 4 20 C3.678475 17.19682 2.931157 14.573873 2.125 11.875 C0.971196 7.818075 0 4.26914 0 0 Z " fill="#F4C6C9" transform="translate(307,211)" />
<path d="M0 0 C4.574468 4.148936 4.574468 4.148936 6 7 C1.708392 7.058715 -2.583111 7.093835 -6.875 7.125 C-8.078984 7.141758 -9.282969 7.158516 -10.523438 7.175781 C-17.607517 7.214282 -24.126672 6.760509 -31 5 C-31 4.34 -31 3.68 -31 3 C-29.805039 2.878828 -28.610078 2.757656 -27.378906 2.632812 C-12.893546 1.118531 -12.893546 1.118531 -7.625 -0.1875 C-4.195165 -0.956256 -3.135777 -1.135694 0 0 Z " fill="#462445" transform="translate(287,444)" />
<path d="M0 0 C0.33 0 0.66 0 1 0 C1 21.78 1 43.56 1 66 C0.67 66 0.34 66 0 66 C-0.085642 65.208274 -0.171284 64.416548 -0.259521 63.60083 C-0.649864 60.004464 -1.043646 56.408483 -1.4375 52.8125 C-1.572207 51.566621 -1.706914 50.320742 -1.845703 49.037109 C-1.977832 47.835059 -2.109961 46.633008 -2.246094 45.394531 C-2.366541 44.289563 -2.486987 43.184595 -2.611084 42.046143 C-3 39 -3 39 -3.541016 36.568359 C-4.145127 33.187908 -4.111335 29.94497 -4.097656 26.511719 C-4.096241 25.80852 -4.094826 25.105321 -4.093369 24.380814 C-4.087801 22.149665 -4.075255 19.918618 -4.0625 17.6875 C-4.057481 16.168621 -4.052919 14.649741 -4.048828 13.130859 C-4.037842 9.42054 -4.0206 5.71028 -4 2 C-3.67 2 -3.34 2 -3 2 C-2.67 9.92 -2.34 17.84 -2 26 C-2.125 14.6875 -2.125 14.6875 -2.180176 11.131592 C-2.185171 10.205159 -2.190166 9.278726 -2.195312 8.324219 C-2.205786 7.376355 -2.21626 6.428491 -2.227051 5.451904 C-2 3 -2 3 0 0 Z " fill="#F9CACB" transform="translate(137,320)" />
<path d="M0 0 C4.75 0.75 4.75 0.75 7 3 C8.333179 13.246875 6.175586 23.702347 1.1875 32.75 C-1.714069 35.734471 -3.925333 35.843282 -8 36 C-11.393669 30.626691 -11.327123 26.130535 -11 20 C-8.352611 18.539371 -7.105517 18 -4 18 C-3.34 20.64 -2.68 23.28 -2 26 C-3.98 26.66 -5.96 27.32 -8 28 C-7.67 29.98 -7.34 31.96 -7 34 C-5.35 34 -3.7 34 -2 34 C-1.7525 33.21625 -1.505 32.4325 -1.25 31.625 C0 28 0 28 1.023438 25.867188 C4.391883 18.628614 4.648719 11.912251 4 4 C3.67 3.34 3.34 2.68 3 2 C2.01 2 1.02 2 0 2 C0 1.34 0 0.68 0 0 Z " fill="#361636" transform="translate(563,369)" />
<path d="M0 0 C0.66 0 1.32 0 2 0 C2.941318 2.823955 3.290555 5.119858 3.578125 8.066406 C5.12532 23.040965 7.491725 37.656472 10.49707 52.403809 C11.114988 55.593583 11.589784 58.777526 12 62 C11.67 61.34 11.34 60.68 11 60 C10.34 60 9.68 60 9 60 C4.397818 40.108194 0.8379 20.427413 0 0 Z " fill="#462645" transform="translate(53,307)" />
<path d="M0 0 C0.964481 2.893443 1.083156 4.501676 0.992188 7.488281 C0.72304 20.79068 1.457809 33.737329 3.020996 46.932861 C4.309396 58.164084 4.309396 58.164084 3 64 C2.67 64 2.34 64 2 64 C1.951016 63.333555 1.902031 62.667109 1.851562 61.980469 C1.38518 56.231096 0.657443 50.647672 -0.5 44.996094 C-1.968598 36.195977 -2.186382 27.45044 -2.185303 18.538086 C-2.187526 16.475712 -2.205857 14.413845 -2.224609 12.351562 C-2.226543 11.049609 -2.228477 9.747656 -2.230469 8.40625 C-2.234578 7.223535 -2.238687 6.04082 -2.24292 4.822266 C-2 2 -2 2 0 0 Z " fill="#553656" transform="translate(38,281)" />
<path d="M0 0 C0.66 0.33 1.32 0.66 2 1 C-18.746439 15.919779 -18.746439 15.919779 -27 17 C-27.99 16.34 -28.98 15.68 -30 15 C-29.5 12.660156 -29.5 12.660156 -28 10 C-25.256991 8.890164 -22.846995 8.120049 -20 7.4375 C-18.457351 7.028425 -16.915674 6.61567 -15.375 6.199219 C-14.626055 5.999897 -13.877109 5.800576 -13.105469 5.595215 C-2.635306 2.635306 -2.635306 2.635306 0 0 Z " fill="#E4939D" transform="translate(321,440)" />
<path d="M0 0 C0.33 0 0.66 0 1 0 C1.019819 0.612949 1.039639 1.225898 1.060059 1.857422 C2.194946 35.389892 2.194946 35.389892 5 41 C4.505 41.165 4.505 41.165 2 42 C-1.1875 40.0625 -1.1875 40.0625 -4 38 C-3.67 37.835 -3.67 37.835 -2 37 C-2 31.06 -2 25.12 -2 19 C-1.34 19 -0.68 19 0 19 C0 12.73 0 6.46 0 0 Z " fill="#AE8CC8" transform="translate(333,352)" />
<path d="M0 0 C5.744186 4.232558 5.744186 4.232558 7 8 C7.233684 9.83609 7.460568 11.673503 7.640625 13.515625 C8.2517 17.740013 9.455535 21.834238 10.574219 25.949219 C11.05313 29.38068 10.671171 30.998382 9 34 C8.67 34.165 8.67 34.165 7 35 C7.33 33.35 7.66 31.7 8 30 C6.02 29.67 4.04 29.34 2 29 C2.155977 28.177578 2.311953 27.355156 2.472656 26.507812 C4.864027 12.793064 4.864027 12.793064 3 6 C2.025706 4.647769 1.0286 3.311396 0 2 C0 1.34 0 0.68 0 0 Z " fill="#F7E0E0" transform="translate(301,203)" />
<path d="M0 0 C0.33 0.99 0.66 1.98 1 3 C1.61875 3.28875 2.2375 3.5775 2.875 3.875 C5.679209 5.359581 6.547233 7.239742 8 10 C5.764369 8.962029 3.960087 7.966524 2.0625 6.375 C-0.465597 4.689602 -2.021676 4.751806 -5 5 C-7.399545 8.599317 -7.814801 9.763034 -7 14 C-4.571129 16.649678 -1.829377 18.795586 1 21 C1.66 21.66 2.32 22.32 3 23 C-1.832563 22.58578 -3.826792 20.53586 -7 17 C-7.66 17.33 -8.32 17.66 -9 18 C-9.99 17.34 -10.98 16.68 -12 16 C-11.343621 4.343621 -11.343621 4.343621 -8 1 C-5.266605 0.28694 -2.851569 0.140241 0 0 Z " fill="#E8C1CA" transform="translate(237,356)" />
<path d="M0 0 C0 0.33 0 0.66 0 1 C-1.142512 0.98429 -2.285024 0.968579 -3.462158 0.952393 C-7.79916 0.897101 -12.136133 0.863299 -16.473389 0.835205 C-18.332166 0.82034 -20.19091 0.800042 -22.049561 0.773682 C-32.916583 0.62369 -43.295758 0.98904 -53.995926 3.030228 C-57.695652 3.72657 -60.396457 4.092216 -64 3 C-45.031433 -5.29424 -19.927782 -3.738545 0 0 Z " fill="#341534" transform="translate(455,175)" />
<path d="M0 0 C0.66 0.33 1.32 0.66 2 1 C2.33 1.99 2.66 2.98 3 4 C3.99 4.66 4.98 5.32 6 6 C6.165 6.33 6.165 6.33 7 8 C-4.095322 10.431528 -14.643243 11.160205 -26 11 C-26 10.67 -26 10.34 -26 10 C-24.185 9.835 -24.185 9.835 -15 9 C-15 8.34 -15 7.68 -15 7 C-14.252344 6.746055 -13.504687 6.492109 -12.734375 6.230469 C-11.749531 5.886289 -10.764687 5.542109 -9.75 5.1875 C-8.775469 4.851055 -7.800937 4.514609 -6.796875 4.167969 C-4.140517 3.05868 -2.203101 1.830672 0 0 Z " fill="#9B77A8" transform="translate(491,469)" />
<path d="M0 0 C1.258125 -0.04125 2.51625 -0.0825 3.8125 -0.125 C4.520195 -0.148203 5.227891 -0.171406 5.957031 -0.195312 C8 0 8 0 11 2 C5.471317 5.960184 -0.021573 9.750855 -6 13 C-6.66 12.67 -7.32 12.34 -8 12 C-7.907188 11.700938 -7.907188 11.700938 -7.4375 10.1875 C-7 8 -7 8 -8 5 C-5 3 -5 3 -2.875 2.5 C-2.25625 2.335 -1.6375 2.17 -1 2 C-0.67 1.34 -0.34 0.68 0 0 Z " fill="#FDB9B7" transform="translate(311,419)" />
<path d="M0 0 C3.96 0 7.92 0 12 0 C11 3 11 3 9.292969 4.132812 C8.598164 4.460234 7.903359 4.787656 7.1875 5.125 C6.50043 5.457578 5.813359 5.790156 5.105469 6.132812 C1.050888 7.802788 -2.363393 8.114722 -6.75 8.0625 C-7.734844 8.053477 -8.719688 8.044453 -9.734375 8.035156 C-10.482031 8.023555 -11.229688 8.011953 -12 8 C-12.33 7.34 -12.66 6.68 -13 6 C-15.0625 4.875 -15.0625 4.875 -17 4 C-15.879805 3.939414 -14.759609 3.878828 -13.605469 3.816406 C-12.1328 3.731986 -10.660145 3.647339 -9.1875 3.5625 C-8.449512 3.523184 -7.711523 3.483867 -6.951172 3.443359 C-3.769287 3.25619 -1.038376 3.012792 2 2 C1.34 1.34 0.68 0.68 0 0 Z " fill="#9E7CB0" transform="translate(405,447)" />
<path d="M0 0 C4.494943 -0.214045 7.792829 0.445176 12 2 C12.763125 2.165 13.52625 2.33 14.3125 2.5 C14.869375 2.665 15.42625 2.83 16 3 C16.33 3.66 16.66 4.32 17 5 C15.906875 5.061875 14.81375 5.12375 13.6875 5.1875 C10 6 10 6 8.3125 8.1875 C8.095937 8.651563 8.095937 8.651563 7 11 C5.675413 13.005803 4.344009 15.007159 3 17 C1.68 16.67 0.36 16.34 -1 16 C-1 15.01 -1 14.02 -1 13 C2 11 2 11 5 11 C4.54625 10.113125 4.0925 9.22625 3.625 8.3125 C2.279957 5.570682 1.089613 2.849757 0 0 Z " fill="#F2C9CD" transform="translate(258,347)" />
<path d="M0 0 C4.229508 1.409836 5.082109 4.164218 7 8 C8.65 7.67 10.3 7.34 12 7 C12 7.66 12 8.32 12 9 C11.34 9 10.68 9 10 9 C10.33 9.99 10.66 10.98 11 12 C7.337081 14.477857 4.389082 15.489642 0 16 C0.04125 15.01 0.0825 14.02 0.125 13 C0.142335 8.761641 -0.858088 5.06806 -2 1 C-1.34 0.67 -0.68 0.34 0 0 Z " fill="#F3C8CC" transform="translate(311,317)" />
<path d="M0 0 C0.495 0.33 0.495 0.33 3 2 C4.32 2 5.64 2 7 2 C7.33 3.32 7.66 4.64 8 6 C7.34 6 6.68 6 6 6 C6.519492 6.908789 7.038984 7.817578 7.574219 8.753906 C14.625092 21.356116 21.757707 36.224708 21 51 C18.220031 48.220031 18.019541 45.099711 17.25 41.375 C14.198869 27.757029 9.719163 16.1958 1.757812 4.695312 C0 2 0 2 0 0 Z " fill="#351635" transform="translate(570,225)" />
<path d="M0 0 C13.589739 -1.235431 25.566721 7.10918 35.63916 15.339355 C38.517167 17.79851 41.288761 20.358934 44 23 C43.01 23 42.02 23 41 23 C40.34 22.34 39.68 21.68 39 21 C38.175 20.71125 37.35 20.4225 36.5 20.125 C33.533022 18.78986 33.291718 17.860233 32 15 C31.01 14.67 30.02 14.34 29 14 C29 13.34 29 12.68 29 12 C27.68 12 26.36 12 25 12 C25 11.34 25 10.68 25 10 C24.294883 9.895586 23.589766 9.791172 22.863281 9.683594 C19.623128 8.910024 17.120823 7.634884 14.1875 6.0625 C9.448401 3.619726 5.222729 2.004371 0 1 C0 0.67 0 0.34 0 0 Z " fill="#EACDD4" transform="translate(257,178)" />
<path d="M0 0 C0.33 0.165 0.33 0.165 2 1 C2 1.66 2 2.32 2 3 C5.75 4.125 5.75 4.125 8 3 C7.67 5.31 7.34 7.62 7 10 C7.66 10 8.32 10 9 10 C8.34 13.3 7.68 16.6 7 20 C6.67 18.68 6.34 17.36 6 16 C5.34 16.66 4.68 17.32 4 18 C3.34 17.34 2.68 16.68 2 16 C1.34 16 0.68 16 0 16 C0 10.72 0 5.44 0 0 Z " fill="#A27BAF" transform="translate(570,369)" />
<path d="M0 0 C0 2.31 0 4.62 0 7 C2.64 6.67 5.28 6.34 8 6 C4.577018 9.422982 -0.063942 9.911997 -4.75 10.125 C-7.170079 10.125 -9.581686 10.0892 -12 10 C-10.68 9.34 -9.36 8.68 -8 8 C-8.33 7.01 -8.66 6.02 -9 5 C-9.99 4.67 -10.98 4.34 -12 4 C-11 2 -11 2 -7.6875 0.875 C-4 0 -4 0 0 0 Z " fill="#351635" transform="translate(298,440)" />
<path d="M0 0 C0.33 0.495 0.33 0.495 2 3 C2.66 2.67 3.32 2.34 4 2 C4.701748 5.247092 5.383881 8.498003 6.0625 11.75 C6.26166 12.670391 6.46082 13.590781 6.666016 14.539062 C6.849707 15.428516 7.033398 16.317969 7.222656 17.234375 C7.395471 18.051318 7.568286 18.868262 7.746338 19.709961 C8.011299 22.102005 7.733127 23.725251 7 26 C6.34 26 5.68 26 5 26 C4.67 24.02 4.34 22.04 4 20 C3.34 20 2.68 20 2 20 C0.387949 13.235144 -0.266186 6.950411 0 0 Z " fill="#E6A7AE" transform="translate(321,244)" />
<path d="M0 0 C0.33 0 0.66 0 1 0 C1 1.65 1 3.3 1 5 C1.66 5 2.32 5 3 5 C3.184336 5.580078 3.368672 6.160156 3.558594 6.757812 C6.105296 13.616929 9.652955 16.541674 16 20 C15.34 20.66 14.68 21.32 14 22 C14.33 22.66 14.66 23.32 15 24 C9.964235 23.41895 6.637042 19.923418 3.503906 16.242188 C-0.301446 10.91685 -0.591694 6.416591 0 0 Z " fill="#B99AD1" transform="translate(341,406)" />
<path d="M0 0 C-0.33 0.99 -0.66 1.98 -1 3 C-0.34 3 0.32 3 1 3 C1 3.66 1 4.32 1 5 C-6.94958 5.224283 -14.271112 4.95403 -22 3 C-22 2.34 -22 1.68 -22 1 C-14.639591 0.202741 -7.402396 -0.128862 0 0 Z " fill="#51304E" transform="translate(278,446)" />
<path d="M0 0 C0.999193 3.108601 0.83037 4.886113 0 8 C0.33 8.66 0.66 9.32 1 10 C0.34 10 -0.32 10 -1 10 C-1 10.66 -1 11.32 -1 12 C-3.64 11.67 -6.28 11.34 -9 11 C-8.34 10.34 -7.68 9.68 -7 9 C-7.66 8.67 -8.32 8.34 -9 8 C-9 7.34 -9 6.68 -9 6 C-8.34 5.67 -7.68 5.34 -7 5 C-7.99 4.01 -8.98 3.02 -10 2 C-6.492232 0.396449 -3.856451 -0.220369 0 0 Z " fill="#492748" transform="translate(361,388)" />
<path d="M0 0 C1.175625 0.4125 2.35125 0.825 3.5625 1.25 C10.28026 3.500019 17.146068 5.221048 24 7 C22.140392 9.058852 20.583434 10.725856 18.054688 11.914062 C12.496415 12.146538 6.527978 6.559323 2.375 3.1875 C1.59125 2.465625 0.8075 1.74375 0 1 C0 0.67 0 0.34 0 0 Z " fill="#A381B5" transform="translate(350,442)" />
<path d="M0 0 C0.33 0.66 0.66 1.32 1 2 C-8.225513 6.776765 -8.225513 6.776765 -14 5 C-12.725373 -0.462687 -12.725373 -0.462687 -10.3125 -2.25 C-6.485301 -3.491254 -3.457484 -1.728742 0 0 Z " fill="#9877A9" transform="translate(516,468)" />
<path d="M0 0 C0.103125 0.53625 0.20625 1.0725 0.3125 1.625 C1 4 1 4 2.6875 7 C4 10 4 10 3.1875 12.375 C2.795625 12.91125 2.40375 13.4475 2 14 C1.01 13.835 1.01 13.835 -4 13 C-4.33 13.66 -4.66 14.32 -5 15 C-5.766816 7.331839 -5.766816 7.331839 -3.886719 4.066406 C-2.5 2.4375 -2.5 2.4375 0 0 Z " fill="#F3C8CD" transform="translate(284,325)" />
<path d="M0 0 C-0.66 0.33 -0.66 0.33 -4 2 C-3.34 2.66 -2.68 3.32 -2 4 C-3.65 5.65 -5.3 7.3 -7 9 C-8.65 8.67 -10.3 8.34 -12 8 C-12.66 6.35 -13.32 4.7 -14 3 C-13.34 3 -12.68 3 -12 3 C-12 2.34 -12 1.68 -12 1 C-7.936313 0.225964 -4.135748 -0.09847 0 0 Z " fill="#F8CECF" transform="translate(259,380)" />
<path d="M0 0 C1.65 1.32 3.3 2.64 5 4 C5.33 3.34 5.66 2.68 6 2 C5.67 3.32 5.34 4.64 5 6 C4.34 5.67 3.68 5.34 3 5 C3 5.66 3 6.32 3 7 C2.38125 7.226875 1.7625 7.45375 1.125 7.6875 C-1.614102 9.379298 -2.050245 10.992442 -3 14 C-3.33 14 -3.66 14 -4 14 C-4.33 16.64 -4.66 19.28 -5 22 C-5.33 22 -5.66 22 -6 22 C-6.318061 14.272307 -6.322708 8.060755 -3 1 C-2.34 1.33 -1.68 1.66 -1 2 C-0.67 1.34 -0.34 0.68 0 0 Z " fill="#B799C9" transform="translate(344,219)" />
<path d="M0 0 C2.4375 1.0625 2.4375 1.0625 5 3 C5.8125 6.6875 5.8125 6.6875 6 10 C7.32 10.33 8.64 10.66 10 11 C9.67 14.3 9.34 17.6 9 21 C8.67 20.34 8.34 19.68 8 19 C7.34 19 6.68 19 6 19 C5.89043 18.31293 5.780859 17.625859 5.667969 16.917969 C5.509414 16.016914 5.350859 15.115859 5.1875 14.1875 C5.03668 13.29418 4.885859 12.400859 4.730469 11.480469 C3.930363 8.763532 3.224976 7.70779 1 6 C0.01 5.67 -0.98 5.34 -2 5 C-1.34 3.35 -0.68 1.7 0 0 Z " fill="#F5BFC0" transform="translate(209,203)" />
<path d="M0 0 C0.66 0.99 1.32 1.98 2 3 C3.98 3 5.96 3 8 3 C8.33 4.32 8.66 5.64 9 7 C8.556562 7.28875 8.556562 7.28875 6.3125 8.75 C4.20509 10.136844 2.413561 11.513134 0.5 13.1875 C-2.378267 15.274244 -4.496932 15.674133 -8 16 C-6.310306 14.873537 -4.606058 13.766366 -2.859375 12.730469 C-0.314001 10.361559 -0.41083 8.730127 -0.25 5.3125 C-0.193281 4.318633 -0.136562 3.324766 -0.078125 2.300781 C-0.052344 1.541523 -0.026563 0.782266 0 0 Z " fill="#F8D0D1" transform="translate(195,350)" />
<path d="M0 0 C1.32 0.33 2.64 0.66 4 1 C3.561719 1.317109 3.123437 1.634219 2.671875 1.960938 C-3.777713 6.706366 -9.881817 11.840332 -16 17 C-16.66 16.67 -17.32 16.34 -18 16 C-13.870936 8.331739 -9.283511 3.923592 -1 1 C-0.67 0.67 -0.34 0.34 0 0 Z " fill="#F4C7C9" transform="translate(107,202)" />
<path d="M0 0 C2.730691 1.075727 3.533466 2.327281 5.0625 4.8125 C5.390625 7.179688 5.390625 7.179688 5.3125 9.6875 C5.286719 10.558906 5.260937 11.430313 5.234375 12.328125 C5.03548 15.203055 4.656229 17.992289 4.0625 20.8125 C3.4025 20.8125 2.7425 20.8125 2.0625 20.8125 C2.085703 19.897266 2.108906 18.982031 2.132812 18.039062 C2.150859 16.850547 2.168906 15.662031 2.1875 14.4375 C2.210703 13.254141 2.233906 12.070781 2.257812 10.851562 C2.0625 7.8125 2.0625 7.8125 0.0625 5.8125 C-1.254973 5.115014 -2.586642 4.4429 -3.9375 3.8125 C-3.9375 2.8225 -3.9375 1.8325 -3.9375 0.8125 C-1.9375 -0.1875 -1.9375 -0.1875 0 0 Z " fill="#432242" transform="translate(539.9375,395.1875)" />
<path d="M0 0 C0 3.112576 -0.173616 5.107657 -1 8 C-1.66 8 -2.32 8 -3 8 C-3 8.66 -3 9.32 -3 10 C-4.65 10 -6.3 10 -8 10 C-8.625 6.625 -8.625 6.625 -9 3 C-6.018001 0.018001 -4.212448 0 0 0 Z " fill="#3E1C3E" transform="translate(306,437)" />
</svg>