<?xml version='1.0' encoding='utf-8'?>
<svg xmlns="http://www.w3.org/2000/svg" version="1.1" width="1900" height="480" viewBox="40 30 1900 480" role="img">
<title>Dicesuki wordmark</title><defs><mask id="dicesuki-wordmark-counters" maskUnits="userSpaceOnUse" x="40" y="30" width="1900" height="480" style="mask-type:luminance"><rect x="40" y="30" width="1900" height="480" fill="#fff" /><path d="M0 0 C10.009264 8.265909 14.155903 20.127199 15.9375 32.75 C16.850099 47.612319 12.034032 61.821379 2.421875 72.957031 C-5.471427 81.0413 -15.866696 85.859042 -27.160156 86.460938 C-38.521403 86.367172 -49.435971 82.98991 -58.230469 75.550781 C-60.021267 73.601855 -61.51957 71.630288 -63 69.4375 C-63.541406 68.675664 -64.082812 67.913828 -64.640625 67.128906 C-72.935179 54.546149 -73.59184 39.914712 -70.804688 25.40625 C-67.348453 12.655095 -59.16163 2.318739 -48 -4.625 C-32.165946 -13.099564 -14.120528 -10.433269 0 0 Z M-46 -2.5625 C-46.777305 -2.126797 -47.554609 -1.691094 -48.355469 -1.242188 C-57.8078 4.552709 -65.022612 13.210901 -67.972656 23.992188 C-71.339692 39.558857 -70.519347 53.61982 -62 67.4375 C-55.899934 76.595775 -46.49795 80.916158 -36 83.4375 C-24.164681 84.548676 -13.470166 83.013633 -4 75.4375 C5.210349 67.572273 11.146226 57.47924 13 45.4375 C13.998803 30.518875 11.928545 18.172178 3.128906 5.808594 C-3.478458 -1.550434 -13.239881 -6.111168 -22.988281 -6.875 C-31.497646 -7.114069 -38.540541 -6.828834 -46 -2.5625 Z " fill="#000" transform="translate(237,286.5625)" />
<path d="M0 0 C5.833707 3.611343 12.440496 8.810396 14.625 15.5625 C15.524726 23.83998 15.558695 29.262487 10.9375 36.4375 C-4.604541 51.979541 -34.148152 50.624792 -54.886719 50.703125 C-58.0625 50.4375 -58.0625 50.4375 -60.0625 48.4375 C-58.628486 34.916799 -52.23509 22.325552 -43.0625 12.4375 C-42.52625 11.81875 -42.52625 11.81875 -39.8125 8.6875 C-29.173701 -0.532793 -13.662605 -5.540814 0 0 Z M-44.816406 17.386719 C-51.371321 26.290003 -57.0625 37.232816 -57.0625 48.4375 C-47.292997 48.606995 -37.720304 48.156036 -28 47.1875 C-26.74123 47.07793 -25.482461 46.968359 -24.185547 46.855469 C-11.719767 45.632702 1.49242 43.378355 10.375 33.8125 C13.533316 29.011859 13.509595 24.009209 12.9375 18.4375 C9.990302 10.209906 4.797001 5.431575 -2.8125 1.5 C-20.10673 -2.823558 -33.541382 4.509352 -44.816406 17.386719 Z " fill="#000" transform="translate(891.0625,267.5625)" />
</mask></defs><g mask="url(#dicesuki-wordmark-counters)"><path d="M0 0 C1.36125 0.556875 2.7225 1.11375 4.125 1.6875 C17.502806 9.671029 25.763174 22.020908 32 36 C32.203672 36.451172 32.203672 36.451172 33.234375 38.734375 C42.20698 60.291933 46.307952 84.238575 51 107 C51.223975 108.076367 51.447949 109.152734 51.678711 110.261719 C57.64241 139.326611 61.560456 169.023761 64.875 198.5 C64.982798 199.45584 65.090596 200.41168 65.20166 201.396484 C66.978658 218.276471 67.240991 235.169302 67.25 252.125 C67.250675 253.27141 67.251349 254.417819 67.252045 255.598969 C67.203761 307.400744 59.877583 357.093088 24 397 C22.9275 398.19625 21.855 399.3925 20.75 400.625 C0.943384 419.719148 -25.193888 430.601173 -52 435 C-52.582012 435.111504 -52.582012 435.111504 -55.527344 435.675781 C-92.20747 441.85216 -134.48555 434.995926 -165.519531 413.777344 C-166.338086 413.19082 -167.156641 412.604297 -168 412 C-168.911367 411.382539 -169.822734 410.765078 -170.761719 410.128906 C-183.217329 401.33182 -195.007985 390.052176 -203 377 C-203.5775 376.132461 -204.155 375.264922 -204.75 374.371094 C-221.306843 349.286049 -228.431901 320.53765 -228.3125 290.6875 C-228.307585 289.230698 -228.302671 287.773896 -228.297607 286.272949 C-228.187131 276.148809 -227.49781 266.840161 -225 257 C-224.659688 255.482773 -224.319375 253.965547 -223.96875 252.402344 C-215.386051 216.47679 -193.013379 184.529716 -161.988281 164.417969 C-132.940483 146.807208 -103.408018 139.92757 -70.097656 147.355469 C-61.815194 149.417315 -54.450009 152.870215 -47 157 C-48.374325 151.375447 -49.88965 145.811324 -51.5 140.25 C-52.332166 137.342903 -53.161872 134.435109 -53.991699 131.527344 C-54.717678 128.987648 -55.446174 126.448671 -56.17627 123.910156 C-77.749702 48.707053 -77.749702 48.707053 -65 23 C-61.932725 17.701979 -58.569107 13.112196 -54 9 C-53.154375 8.195625 -52.30875 7.39125 -51.4375 6.5625 C-36.083266 -4.883384 -17.663597 -7.5103 0 0 Z " fill="#F98797" transform="translate(290,47)" />
<path d="M0 0 C13.497809 7.785426 20.022169 19.504729 24.886719 33.765625 C27.760961 44.697829 28.352772 55.422472 28.3125 66.6875 C28.310486 68.296733 28.308472 69.905967 28.306396 71.563965 C28.185616 93.190835 27.107941 114.806406 26.155518 136.408936 C25.209626 157.93706 24.513413 179.457719 24 201 C28.481912 199.879522 29.115474 199.113254 31.984375 195.707031 C37.45867 189.408902 43.32786 183.562233 49.25 177.6875 C50.312187 176.629824 51.374375 175.572148 52.46875 174.482422 C54.435357 172.524462 56.402998 170.56754 58.37207 168.612061 C60.143606 166.851222 61.911189 165.086399 63.675049 163.317871 C68.295361 158.711629 73.158105 154.370609 78 150 C79.122773 148.964883 80.245547 147.929766 81.402344 146.863281 C95.427771 134.289305 110.166344 127.055901 129.253906 127.582031 C142.02226 128.706487 153.017578 134.943577 161.242188 144.667969 C169.579372 155.728633 169.70722 167.753654 169 181 C167.152611 193.357324 158.792128 202.776954 151 212 C150.291016 212.931992 149.582031 213.863984 148.851562 214.824219 C148.240547 215.542227 147.629531 216.260234 147 217 C146.34 217 145.68 217 145 217 C145 217.66 145 218.32 145 219 C143.131419 220.664736 141.256053 222.322467 139.347656 223.941406 C136.956853 226.037834 134.72862 228.232621 132.5 230.5 C125.424632 237.635228 117.713288 243.907573 109.898193 250.206055 C105.531069 253.72967 101.244565 257.329472 97 261 C99.390352 265.780705 102.709974 269.130651 106.375 272.9375 C107.835135 274.470879 109.294766 276.004737 110.753906 277.539062 C111.475942 278.296064 112.197979 279.053066 112.941895 279.833008 C117.689234 284.831512 122.337817 289.922246 127 295 C127.946172 296.028672 128.892344 297.057344 129.867188 298.117188 C132.582985 301.073721 135.29282 304.035576 138 307 C138.782461 307.853359 139.564922 308.706719 140.371094 309.585938 C145.018045 314.691946 149.477468 319.915429 153.8125 325.289062 C155.213732 327.025589 156.629216 328.750769 158.0625 330.460938 C170.827637 345.868857 177.564548 359.719548 176 380 C174.382879 391.623056 167.838574 401.487212 159 409 C145.579682 417.746987 131.289858 420.495539 115.421875 417.273438 C112.499123 416.351647 109.778463 415.289546 107 414 C106.227852 413.649375 105.455703 413.29875 104.660156 412.9375 C89.394181 405.210609 77.427198 391.202039 67 378 C66.086055 376.868203 65.172109 375.736406 64.230469 374.570312 C37.835066 341.844165 37.835066 341.844165 26.753906 324.480469 C26.175117 323.661914 25.596328 322.843359 25 322 C24.34 322 23.68 322 23 322 C22.985417 323.142512 22.970835 324.285024 22.955811 325.462158 C22.893876 329.799533 22.819577 334.136364 22.737549 338.473389 C22.704784 340.332035 22.676611 342.190769 22.653564 344.049561 C22.369718 366.364692 21.379839 389.641148 5.4375 406.75 C-5.064094 416.443779 -15.80214 419.232039 -30 419 C-40.78014 418.335755 -50.477799 414.117943 -57.9375 406.25 C-73.590461 387.206506 -73.274957 360.148908 -74.113281 336.644531 C-74.155275 335.495788 -74.197268 334.347045 -74.240534 333.163492 C-75.705406 291.272618 -75.262045 249.317772 -75.200597 207.40826 C-75.187207 197.824058 -75.184898 188.239878 -75.185546 178.655668 C-75.186226 167.009814 -75.179276 155.363974 -75.170099 143.718125 C-75.167995 140.428417 -75.167262 137.138713 -75.166861 133.849005 C-75.142082 29.528964 -75.142082 29.528964 -53.609375 7.34375 C-39.096753 -5.691539 -17.646728 -8.140754 0 0 Z " fill="#9C89C4" transform="translate(1605,63)" />
<path d="M0 0 C1.254258 0.350625 2.508516 0.70125 3.800781 1.0625 C17.649265 5.204103 30.273051 12.308107 41 22 C41.755391 22.67418 42.510781 23.348359 43.289062 24.042969 C59.737097 39.558383 69.997585 61.224003 71.203125 83.804688 C71.486368 108.399603 65.522162 130.207935 48.3125 148.3125 C26.424877 169.172405 -4.4005 177.474231 -33.9375 178.535156 C-35.058179 178.578133 -36.178857 178.621111 -37.333496 178.66539 C-40.888884 178.800997 -44.444428 178.931819 -48 179.0625 C-50.420585 179.15398 -52.841158 179.245774 -55.261719 179.337891 C-61.174349 179.56222 -67.087124 179.782261 -73 180 C-71.584958 188.409341 -65.000066 194.814648 -58.375 199.875 C-47.985255 206.549527 -36.256781 209.526845 -24 208 C-19.517279 206.999891 -15.290128 205.630817 -11 204 C-9.515 203.443125 -8.03 202.88625 -6.5 202.3125 C-1.47214 199.976507 2.87147 196.659423 7.375 193.457031 C21.684615 183.757949 33.341287 178.799174 50.835938 181.425781 C58.413511 183.592701 64.664241 189.576654 69 196 C74.644582 207.70728 74.810659 221.43456 71.0625 233.8125 C62.620487 256.125242 43.880065 268.505284 23 278 C-11.650701 292.806348 -54.136285 293.703456 -89.446777 280.054199 C-120.702108 267.066655 -143.119241 243.113381 -156 212 C-170.12214 174.440412 -171.012534 132.289952 -159 94 C-158.747344 93.178062 -158.494688 92.356123 -158.234375 91.509277 C-147.174746 55.978865 -122.935346 26.511636 -90 9 C-62.553208 -4.482635 -29.571455 -9.315774 0 0 Z " fill="#F98797" transform="translate(913,195)" />
<path d="M0 0 C14.073182 8.786928 20.295625 21.161824 24.077637 37.012207 C36.555797 95.607612 46.794403 205.482691 14.214844 258.585938 C6.556996 269.908378 -1.135182 275.977445 -14.347656 279.710938 C-17.747545 280.011645 -20.897596 280.189753 -24.285156 280.148438 C-25.1647 280.140139 -26.044243 280.131841 -26.950439 280.123291 C-37.701756 279.843013 -45.658146 276.224016 -53.347656 268.710938 C-57.303349 263.772675 -61.347656 258.232336 -61.347656 251.710938 C-62.667656 251.710938 -63.987656 251.710938 -65.347656 251.710938 C-66.007656 253.030937 -66.667656 254.350937 -67.347656 255.710938 C-83.166708 271.84637 -106.02021 278.503968 -128.097656 279.023438 C-153.840472 278.604254 -175.830209 269.31035 -194.347656 251.710938 C-214.498457 230.537756 -221.506647 200.907403 -224.347656 172.710938 C-224.444094 171.78386 -224.540532 170.856782 -224.639893 169.901611 C-225.663407 158.223708 -225.533721 146.497736 -225.532959 134.784912 C-225.535125 131.077191 -225.553272 127.369778 -225.572266 123.662109 C-225.781019 36.303378 -225.781019 36.303378 -199.289062 8.554688 C-188.670687 -1.590499 -177.783339 -3.605233 -163.523438 -3.507812 C-158.394474 -3.23913 -155.025189 -2.367966 -150.347656 -0.289062 C-149.646406 0.020312 -149.646406 0.020312 -146.097656 1.585938 C-137.756472 6.312609 -132.145425 14.09293 -129.535156 23.273438 C-126.364074 36.759865 -127.182796 50.009577 -128.660156 63.671875 C-128.934111 66.359322 -129.20753 69.046824 -129.480469 71.734375 C-129.908553 75.880288 -130.341204 80.025572 -130.78418 84.169922 C-132.384808 99.247046 -133.620663 114.203662 -133.660156 129.375 C-133.665554 130.610033 -133.670952 131.845065 -133.676514 133.117523 C-133.554376 148.743307 -132.449794 166.754789 -121.347656 178.710938 C-115.269435 183.552911 -109.975064 185.06248 -102.347656 184.710938 C-93.261242 183.282684 -86.176388 178.866062 -80.097656 172.085938 C-67.272352 153.095985 -67.149592 127.104385 -67.222656 105.023438 C-67.22459 103.583877 -67.226523 102.144316 -67.228516 100.661133 C-67.263991 91.750973 -67.46327 82.862506 -67.847656 73.960938 C-69.87225 26.364724 -69.87225 26.364724 -56.324219 9.847656 C-42.589209 -5.000269 -18.051035 -9.91155 0 0 Z " fill="#9C89C4" transform="translate(1468.34765625,201.2890625)" />
<path d="M0 0 C16.64355 14.067462 27.056356 31.673897 28.957031 53.589844 C29.313573 66.781893 26.605197 78.519665 18.574219 89.175781 C9.885788 98.037981 -0.187609 103.278174 -12.550781 103.488281 C-24.937974 103.372709 -32.448909 99.63294 -41.425781 91.175781 C-44.753423 87.481166 -46.61828 83.775062 -48.613281 79.238281 C-51.783845 72.78899 -54.68435 68.88378 -61.425781 66.175781 C-69.372437 64.072255 -75.995875 66.205779 -83.425781 69.175781 C-86.988281 71.300781 -86.988281 71.300781 -89.425781 73.175781 C-90.085781 73.505781 -90.085781 73.505781 -93.425781 75.175781 C-93.755781 75.835781 -93.755781 75.835781 -95.425781 79.175781 C-95.869219 79.629531 -95.869219 79.629531 -98.113281 81.925781 C-109.736627 95.176967 -111.43401 113.408163 -110.425781 130.175781 C-109.767265 134.641195 -108.758491 138.86611 -107.425781 143.175781 C-107.158945 144.045898 -106.892109 144.916016 -106.617188 145.8125 C-102.090618 158.627721 -93.659222 167.059061 -81.675781 173.050781 C-68.625252 177.568272 -54.81962 175.504682 -42.484375 169.820312 C-37.770473 167.319195 -33.326442 164.469963 -28.863281 161.550781 C-18.153644 154.728682 -9.491705 152.919388 3.234375 154.507812 C12.335998 156.564927 20.494371 162.920181 25.886719 170.371094 C32.564624 182.140902 34.391687 194.06408 30.886719 207.175781 C27.267956 218.78337 21.675806 228.02744 13.574219 237.175781 C12.914219 237.175781 12.254219 237.175781 11.574219 237.175781 C11.574219 237.835781 11.574219 238.495781 11.574219 239.175781 C-8.936415 257.78408 -36.99201 267.169037 -64.425781 268.175781 C-64.919492 268.201563 -64.919492 268.201563 -67.417969 268.332031 C-102.284904 269.316509 -135.989435 257.070531 -161.425781 233.175781 C-171.233211 223.34045 -179.191623 212.579159 -185.425781 200.175781 C-186.003281 199.067187 -186.580781 197.958594 -187.175781 196.816406 C-192.133834 186.857558 -194.928248 176.970363 -197.425781 166.175781 C-197.780273 164.688203 -198.134766 163.200625 -198.5 161.667969 C-200.678592 151.096741 -200.668166 140.547447 -200.675781 129.800781 C-200.676456 128.947855 -200.677131 128.094929 -200.677826 127.216156 C-200.662348 114.919167 -200.280424 103.192906 -197.425781 91.175781 C-197.085469 89.644375 -196.745156 88.112969 -196.394531 86.535156 C-188.381237 53.290814 -169.947037 20.991498 -141.363281 1.238281 C-140.621587 0.722495 -139.879893 0.206709 -139.115723 -0.324707 C-124.379983 -10.446257 -109.031298 -18.197434 -91.425781 -21.824219 C-90.532461 -22.02918 -89.639141 -22.234141 -88.71875 -22.445312 C-57.798495 -28.715854 -24.488349 -19.343457 0 0 Z " fill="#F98797" transform="translate(703.42578125,214.82421875)" />
<path d="M0 0 C0.579434 0.138574 0.579434 0.138574 3.511719 0.839844 C23.534002 6.184045 40.356137 18.216543 51.3125 35.6875 C56.429316 48.763809 57.524404 61.258874 52.277344 74.367188 C48.024952 83.132055 41.691141 88.690245 33 93 C23.687735 96.211496 12.752136 96.779779 3.675781 92.539062 C-3.41896 88.458292 -10.356136 83.957035 -16.714844 78.796875 C-22.555186 74.204469 -28.770626 73.397552 -36 74 C-40.724893 75.232581 -43.245569 76.151265 -46.5 79.8125 C-48.203043 83.431466 -48.708308 85.064957 -48 89 C-42.234929 102.747478 -23.501968 107.618444 -10.833984 113.168701 C16.749594 125.263526 42.618895 139.668831 54.3125 168.875 C62.591916 192.322307 60.1412 217.518317 49.660156 239.855469 C38.837809 261.11044 19.893177 273.829042 -2 282 C-17.391193 286.727821 -32.637078 288.374921 -48.6875 288.3125 C-50.18394 288.307585 -51.680381 288.302671 -53.222168 288.297607 C-84.762988 287.96396 -116.326397 278.909786 -139 256 C-149.548963 244.668106 -152.339691 232.324325 -152.210938 217.234375 C-151.65294 206.033093 -146.852253 196.391487 -138.8125 188.625 C-130.857196 182.075133 -122.6054 180.283666 -112.421875 180.617188 C-100.031689 182.003304 -90.257452 189.26923 -80.5625 196.5625 C-70.245704 204.160541 -61.177741 209.019525 -48 208 C-42.701186 206.492935 -39.114622 204.496777 -35.8125 200.0625 C-34.818561 196.316115 -34.677763 194.672881 -36 191 C-43.722104 180.017452 -56.080827 176.515444 -68.007324 171.455078 C-87.911476 162.964719 -106.657592 153.495832 -122 138 C-122.442148 137.564297 -122.442148 137.564297 -124.679688 135.359375 C-138.8863 120.913594 -143.49443 103.573612 -143.351807 83.930664 C-142.805253 59.655366 -132.32729 39.747394 -115 23 C-111.15972 19.734491 -107.18284 16.810346 -103 14 C-102.113125 13.396719 -101.22625 12.793438 -100.3125 12.171875 C-71.028283 -6.297148 -32.906897 -8.72048 0 0 Z " fill="#9C89C4" transform="translate(1166,195)" />
<path d="M0 0 C16.6742 13.429317 19.742103 35.570981 21.964844 55.570312 C38.180834 215.052944 38.180834 215.052944 6.964844 255.570312 C-1.941728 265.844621 -11.156521 270.598297 -24.6875 271.929688 C-37.196357 272.394413 -47.693367 268.945709 -57.035156 260.570312 C-74.338764 242.342367 -74.966159 214.50003 -75.597656 190.757812 C-75.63939 189.189023 -75.681123 187.620234 -75.724121 186.003906 C-76.199593 166.193236 -76.216818 146.38507 -76.035156 126.570312 C-76.026556 125.62835 -76.017955 124.686388 -76.009094 123.715881 C-75.040389 25.321903 -75.040389 25.321903 -53.320312 2.695312 C-38.815243 -10.793162 -15.998523 -11.238885 0 0 Z " fill="#9C88C4" transform="translate(1880.03515625,208.4296875)" />
<path d="M0 0 C15.29604 9.816861 19.408612 24.287897 23.203125 41.347656 C28.01334 69.430822 26.188309 99.172976 26.185303 127.592285 C26.185222 131.603399 26.192166 135.614398 26.205811 139.625488 C26.549528 242.446883 26.549528 242.446883 5.1875 265.25 C-3.000167 273.049258 -11.879933 275.955722 -23.0625 276.25 C-35.263071 275.63225 -45.324152 271.675848 -54 263 C-56.222731 260.118484 -58.146187 257.129323 -60 254 C-60.70125 252.824375 -61.4025 251.64875 -62.125 250.4375 C-66.517964 240.040818 -68.293552 229.136781 -69.6875 218 C-69.747159 217.535978 -69.747159 217.535978 -70.049072 215.187744 C-72.682309 192.276871 -72.187983 169.047944 -72.185303 146.022949 C-72.185222 142.442168 -72.192125 138.861516 -72.205811 135.280762 C-72.594687 31.820373 -72.594687 31.820373 -49.210938 7.085938 C-36.16789 -5.219694 -16.066447 -8.978309 0 0 Z " fill="#F98797" transform="translate(453,203)" />
<path d="M0 0 C6.015889 4.144279 9.34586 9.428712 12.933594 15.710938 C14.660156 18.699219 14.660156 18.699219 17.660156 22.699219 C18.20543 22.240313 18.750703 21.781406 19.3125 21.308594 C28.173287 14.098791 36.775764 10.25247 48.355469 10.351562 C56.267052 11.183869 64.281179 14.819872 69.660156 20.699219 C77.586114 32.192698 79.531617 41.938476 77.660156 55.699219 C74.562062 72.555777 62.620621 85.009924 49.035156 94.574219 C46.920004 95.964319 44.795735 97.340708 42.660156 98.699219 C41.853203 99.240625 41.04625 99.782031 40.214844 100.339844 C27.685448 108.409624 12.69729 114.650936 -2.339844 113.699219 C-18.271527 109.273751 -32.922148 92.247488 -41.339844 78.699219 C-41.59959 78.306055 -41.59959 78.306055 -42.914062 76.316406 C-53.086198 60.379207 -56.623263 42.938569 -52.621094 24.363281 C-49.154376 12.737823 -42.863285 4.703084 -32.339844 -1.300781 C-22.025603 -6.457901 -9.99024 -5.55384 0 0 Z " fill="#9C89C4" transform="translate(432.33984375,52.30078125)" />
<path d="M0 0 C3.713788 2.613406 6.329798 5.657398 9.1875 9.1875 C10.1775 9.1875 11.1675 9.1875 12.1875 9.1875 C13.198125 7.970625 14.20875 6.75375 15.25 5.5 C20.062561 -0.275073 25.982094 -3.011149 33.1875 -4.8125 C43.547341 -5.673062 52.566532 -3.771999 61.082031 2.332031 C68.968581 9.282145 72.732678 18.05877 73.5 28.398438 C73.751949 37.799282 73.026203 45.588299 69.1875 54.1875 C68.836875 55.034414 68.48625 55.881328 68.125 56.753906 C64.947089 63.804897 60.311489 69.447281 55.1875 75.1875 C54.497852 75.960938 53.808203 76.734375 53.097656 77.53125 C41.401046 89.903084 25.578237 100.891622 8.3125 102.5625 C3.01338 102.080762 -1.036577 100.454642 -5.8125 98.1875 C-6.67875 97.786602 -7.545 97.385703 -8.4375 96.972656 C-16.555425 92.901894 -23.108981 87.254664 -29.8125 81.1875 C-30.566602 80.517188 -31.320703 79.846875 -32.097656 79.15625 C-43.784972 68.189226 -52.848844 53.26222 -54.136719 37.125 C-54.455236 24.823642 -52.86644 14.700557 -44.722656 5.15625 C-32.324242 -7.622484 -15.031707 -9.481921 0 0 Z " fill="#F98797" transform="translate(1843.8125,65.8125)" />
<path d="M0 0 C13.497809 7.785426 20.022169 19.504729 24.886719 33.765625 C27.760961 44.697829 28.352772 55.422472 28.3125 66.6875 C28.310486 68.296733 28.308472 69.905967 28.306396 71.563965 C28.185616 93.190835 27.107941 114.806406 26.155518 136.408936 C25.209626 157.93706 24.513413 179.457719 24 201 C28.481912 199.879522 29.115474 199.113254 31.984375 195.707031 C37.45867 189.408902 43.32786 183.562233 49.25 177.6875 C50.312187 176.629824 51.374375 175.572148 52.46875 174.482422 C54.435357 172.524462 56.402998 170.56754 58.37207 168.612061 C60.143606 166.851222 61.911189 165.086399 63.675049 163.317871 C68.295361 158.711629 73.158105 154.370609 78 150 C79.122773 148.964883 80.245547 147.929766 81.402344 146.863281 C95.427771 134.289305 110.166344 127.055901 129.253906 127.582031 C142.02226 128.706487 153.017578 134.943577 161.242188 144.667969 C169.579372 155.728633 169.70722 167.753654 169 181 C167.152611 193.357324 158.792128 202.776954 151 212 C150.291016 212.931992 149.582031 213.863984 148.851562 214.824219 C148.240547 215.542227 147.629531 216.260234 147 217 C146.34 217 145.68 217 145 217 C145 217.66 145 218.32 145 219 C143.131419 220.664736 141.256053 222.322467 139.347656 223.941406 C136.956853 226.037834 134.72862 228.232621 132.5 230.5 C125.424632 237.635228 117.713288 243.907573 109.898193 250.206055 C105.531069 253.72967 101.244565 257.329472 97 261 C99.390352 265.780705 102.709974 269.130651 106.375 272.9375 C107.835135 274.470879 109.294766 276.004737 110.753906 277.539062 C111.475942 278.296064 112.197979 279.053066 112.941895 279.833008 C117.689234 284.831512 122.337817 289.922246 127 295 C127.946172 296.028672 128.892344 297.057344 129.867188 298.117188 C132.582985 301.073721 135.29282 304.035576 138 307 C138.782461 307.853359 139.564922 308.706719 140.371094 309.585938 C145.018045 314.691946 149.477468 319.915429 153.8125 325.289062 C155.213732 327.025589 156.629216 328.750769 158.0625 330.460938 C170.827637 345.868857 177.564548 359.719548 176 380 C174.382879 391.623056 167.838574 401.487212 159 409 C145.579682 417.746987 131.289858 420.495539 115.421875 417.273438 C112.499123 416.351647 109.778463 415.289546 107 414 C106.227852 413.649375 105.455703 413.29875 104.660156 412.9375 C89.394181 405.210609 77.427198 391.202039 67 378 C66.086055 376.868203 65.172109 375.736406 64.230469 374.570312 C37.835066 341.844165 37.835066 341.844165 26.753906 324.480469 C26.175117 323.661914 25.596328 322.843359 25 322 C24.34 322 23.68 322 23 322 C22.985417 323.142512 22.970835 324.285024 22.955811 325.462158 C22.893876 329.799533 22.819577 334.136364 22.737549 338.473389 C22.704784 340.332035 22.676611 342.190769 22.653564 344.049561 C22.369718 366.364692 21.379839 389.641148 5.4375 406.75 C-5.064094 416.443779 -15.80214 419.232039 -30 419 C-40.78014 418.335755 -50.477799 414.117943 -57.9375 406.25 C-73.590461 387.206506 -73.274957 360.148908 -74.113281 336.644531 C-74.155275 335.495788 -74.197268 334.347045 -74.240534 333.163492 C-75.705406 291.272618 -75.262045 249.317772 -75.200597 207.40826 C-75.187207 197.824058 -75.184898 188.239878 -75.185546 178.655668 C-75.186226 167.009814 -75.179276 155.363974 -75.170099 143.718125 C-75.167995 140.428417 -75.167262 137.138713 -75.166861 133.849005 C-75.142082 29.528964 -75.142082 29.528964 -53.609375 7.34375 C-39.096753 -5.691539 -17.646728 -8.140754 0 0 Z M-56.6875 14 C-72.858694 35.073263 -72.10638 64.743166 -72.221191 90.065186 C-72.232444 91.828967 -72.244077 93.592745 -72.256058 95.356522 C-72.287157 100.120359 -72.312441 104.884211 -72.336255 109.64809 C-72.356937 113.686073 -72.380403 117.724038 -72.403792 121.762006 C-72.459318 131.36565 -72.509974 140.969312 -72.557617 150.572998 C-72.600596 159.221149 -72.649068 167.869246 -72.703125 176.517334 C-72.960658 217.87473 -73.214457 259.226816 -72.585938 300.582031 C-72.565681 301.93577 -72.545425 303.289509 -72.524555 304.684271 C-71.77989 352.25133 -71.77989 352.25133 -69.75 367.5625 C-69.622141 368.541543 -69.494282 369.520586 -69.362549 370.529297 C-67.671778 382.471531 -65.291054 393.896098 -57 403 C-56.356758 403.707695 -55.713516 404.415391 -55.050781 405.144531 C-47.063004 413.588753 -37.322127 416.889103 -25.75 417.5 C-15.011756 417.157124 -3.764723 413.48237 4 406 C20.650549 386.363593 20.187449 360.057202 20.0625 335.6875 C20.057471 333.964194 20.052911 332.240887 20.048828 330.517578 C20.03714 326.345015 20.020756 322.172527 20 318 C24.484593 319.201504 26.7729 320.280262 29.472656 324.070312 C29.767529 324.477656 29.767529 324.477656 31.259766 326.539062 C31.854668 327.392422 32.44957 328.245781 33.0625 329.125 C33.66127 329.955156 34.260039 330.785312 34.876953 331.640625 C37.675286 335.551549 40.330178 339.495879 42.808594 343.617188 C43.531758 344.733516 44.254922 345.849844 45 347 C45.66 347 46.32 347 47 347 C47.185625 347.66 47.37125 348.32 47.5625 349 C49.17324 352.361544 51.332254 354.770852 53.824219 357.515625 C56.423472 360.483533 58.830065 363.571704 61.25 366.6875 C93.01633 407.362309 93.01633 407.362309 114 414 C115.258125 414.4125 116.51625 414.825 117.8125 415.25 C132.516539 417.883559 145.617735 414.9439 158.269531 407.105469 C167.17796 400.236165 171.44904 390.237813 173.75 379.5 C175.325989 357.43616 165.916234 342.846913 151.757812 326.394531 C149.856802 324.245724 147.930697 322.122102 146 320 C144.9275 318.7625 143.855 317.525 142.75 316.25 C138.630309 311.531081 134.362156 306.950575 130.105469 302.355469 C127.247317 299.267226 124.402293 296.167617 121.5625 293.0625 C117.481351 288.603358 113.370939 284.172328 109.25 279.75 C104.743127 274.905112 100.32216 270.009776 96 265 C95.67 264.67 95.34 264.34 95 264 C95 262.35 95 260.7 95 259 C97.605469 256.492188 97.605469 256.492188 101.1875 253.875 C108.357144 248.492341 115.217857 242.861329 122 237 C122.390586 236.666133 122.390586 236.666133 124.367188 234.976562 C161.773892 202.229517 161.773892 202.229517 166.8125 181.6875 C167.553724 167.1101 167.045777 155.08901 157.375 143.3125 C150.26536 135.648862 139.778579 131.600892 129.492188 130.53125 C110.303072 130.401374 97.296293 135.934985 83.398438 148.785156 C81.323985 150.700816 79.212367 152.545419 77.0625 154.375 C72.615817 158.231817 68.531441 162.438231 64.417969 166.644531 C62 169 62 169 59 171 C59 171.66 59 172.32 59 173 C58.34 173.33 58.34 173.33 55 175 C52.75 177 52.75 177 51 179 C51 179.66 51 180.32 51 181 C50.34 181.33 50.34 181.33 47 183 C44.866091 184.945948 42.787165 186.952993 40.75 189 C39.672344 190.0725 38.594687 191.145 37.484375 192.25 C35 195 35 195 35 197 C34.34 197 33.68 197 33 197 C32.071875 198.155 31.14375 199.31 30.1875 200.5 C29.135625 201.655 28.08375 202.81 27 204 C25.35 204 23.7 204 22 204 C21.764407 188.92206 22.058794 173.933543 22.875 158.875 C23.731951 143.001158 24.424345 127.126816 24.991272 111.239807 C25.078919 108.788697 25.168175 106.337644 25.259216 103.886658 C25.715558 91.549258 26.07729 79.221712 26.09375 66.875 C26.095694 65.915817 26.097637 64.956633 26.09964 63.968384 C26.041026 43.360914 22.545167 24.403035 8.3125 8.75 C-0.092057 0.63693 -10.33508 -1.200051 -21.625 -1.3125 C-22.572461 -1.341504 -23.519922 -1.370508 -24.496094 -1.400391 C-37.423134 -1.515337 -48.242391 4.382744 -56.6875 14 Z " fill="#AE9ECD" transform="translate(1605,63)" />
<path d="M0 0 C14.073182 8.786928 20.295625 21.161824 24.077637 37.012207 C36.555797 95.607612 46.794403 205.482691 14.214844 258.585938 C6.556996 269.908378 -1.135182 275.977445 -14.347656 279.710938 C-17.747545 280.011645 -20.897596 280.189753 -24.285156 280.148438 C-25.1647 280.140139 -26.044243 280.131841 -26.950439 280.123291 C-37.701756 279.843013 -45.658146 276.224016 -53.347656 268.710938 C-57.303349 263.772675 -61.347656 258.232336 -61.347656 251.710938 C-62.667656 251.710938 -63.987656 251.710938 -65.347656 251.710938 C-66.007656 253.030937 -66.667656 254.350937 -67.347656 255.710938 C-83.166708 271.84637 -106.02021 278.503968 -128.097656 279.023438 C-153.840472 278.604254 -175.830209 269.31035 -194.347656 251.710938 C-214.498457 230.537756 -221.506647 200.907403 -224.347656 172.710938 C-224.444094 171.78386 -224.540532 170.856782 -224.639893 169.901611 C-225.663407 158.223708 -225.533721 146.497736 -225.532959 134.784912 C-225.535125 131.077191 -225.553272 127.369778 -225.572266 123.662109 C-225.781019 36.303378 -225.781019 36.303378 -199.289062 8.554688 C-188.670687 -1.590499 -177.783339 -3.605233 -163.523438 -3.507812 C-158.394474 -3.23913 -155.025189 -2.367966 -150.347656 -0.289062 C-149.646406 0.020312 -149.646406 0.020312 -146.097656 1.585938 C-137.756472 6.312609 -132.145425 14.09293 -129.535156 23.273438 C-126.364074 36.759865 -127.182796 50.009577 -128.660156 63.671875 C-128.934111 66.359322 -129.20753 69.046824 -129.480469 71.734375 C-129.908553 75.880288 -130.341204 80.025572 -130.78418 84.169922 C-132.384808 99.247046 -133.620663 114.203662 -133.660156 129.375 C-133.665554 130.610033 -133.670952 131.845065 -133.676514 133.117523 C-133.554376 148.743307 -132.449794 166.754789 -121.347656 178.710938 C-115.269435 183.552911 -109.975064 185.06248 -102.347656 184.710938 C-93.261242 183.282684 -86.176388 178.866062 -80.097656 172.085938 C-67.272352 153.095985 -67.149592 127.104385 -67.222656 105.023438 C-67.22459 103.583877 -67.226523 102.144316 -67.228516 100.661133 C-67.263991 91.750973 -67.46327 82.862506 -67.847656 73.960938 C-69.87225 26.364724 -69.87225 26.364724 -56.324219 9.847656 C-42.589209 -5.000269 -18.051035 -9.91155 0 0 Z M-49.347656 5.710938 C-50.736286 7.331821 -52.079081 8.994466 -53.347656 10.710938 C-53.667344 10.999687 -53.667344 10.999687 -55.285156 12.460938 C-67.715846 26.02169 -66.55278 45.969064 -65.995026 63.063843 C-65.849027 67.617576 -65.731099 72.172026 -65.613281 76.726562 C-65.589298 77.648987 -65.565314 78.571412 -65.540604 79.52179 C-63.690301 153.031427 -63.690301 153.031427 -78.347656 174.710938 C-86.082079 182.793534 -94.129314 186.102015 -105.191406 186.710938 C-112.005044 186.710938 -117.065832 184.959361 -122.347656 180.710938 C-134.769503 168.289091 -136.728814 148.848167 -136.847656 132.023438 C-136.730794 110.661529 -133.946998 89.22238 -131.261719 68.058594 C-128.794507 48.542534 -126.321987 26.647853 -138.347656 9.710938 C-142.083027 6.169479 -145.582539 3.871948 -150.347656 1.960938 C-151.337656 1.553594 -152.327656 1.14625 -153.347656 0.726562 C-165.215688 -3.291261 -177.523533 -1.385243 -188.867188 3.398438 C-197.083565 7.746001 -202.574519 14.927606 -207.347656 22.710938 C-207.798828 23.434102 -208.25 24.157266 -208.714844 24.902344 C-234.91124 71.681622 -229.246076 159.008529 -215.347656 208.710938 C-213.943569 213.194498 -212.300327 217.43947 -210.347656 221.710938 C-210.048594 222.369004 -210.048594 222.369004 -208.535156 225.699219 C-203.570143 236.123806 -197.834289 244.845278 -189.347656 252.710938 C-189.048594 253.006777 -189.048594 253.006777 -187.535156 254.503906 C-176.882393 264.627948 -164.461189 270.102198 -150.347656 273.710938 C-149.411797 273.957148 -148.475938 274.203359 -147.511719 274.457031 C-123.949996 279.466488 -99.018575 275.032904 -78.671875 262.320312 C-73.479697 258.725056 -69.154175 254.786296 -65.347656 249.710938 C-63.697656 249.710938 -62.047656 249.710938 -60.347656 249.710938 C-60.140117 250.400586 -59.932578 251.090234 -59.71875 251.800781 C-56.27963 262.290815 -51.536547 269.023254 -41.875 274.519531 C-32.173154 279.093045 -20.295295 279.303041 -9.910156 276.710938 C2.966084 271.066558 12.024376 261.646029 17.464844 248.648438 C30.386061 211.128065 28.824706 168.336295 28.902344 129.210938 C28.907611 127.861279 28.912878 126.51162 28.918304 125.121063 C28.99225 100.598766 27.997096 76.243371 24.402344 51.960938 C24.223164 50.599688 24.043984 49.238438 23.859375 47.835938 C21.914952 34.466443 18.093682 21.454459 9.652344 10.710938 C8.992344 10.710938 8.332344 10.710938 7.652344 10.710938 C7.322344 10.050938 7.322344 10.050938 5.652344 6.710938 C-9.624146 -5.815784 -33.209198 -5.204081 -49.347656 5.710938 Z " fill="#AE9ECD" transform="translate(1468.34765625,201.2890625)" />
<path d="M0 0 C1.36125 0.556875 2.7225 1.11375 4.125 1.6875 C17.502806 9.671029 25.763174 22.020908 32 36 C32.203672 36.451172 32.203672 36.451172 33.234375 38.734375 C42.20698 60.291933 46.307952 84.238575 51 107 C51.223975 108.076367 51.447949 109.152734 51.678711 110.261719 C57.64241 139.326611 61.560456 169.023761 64.875 198.5 C64.982798 199.45584 65.090596 200.41168 65.20166 201.396484 C66.978658 218.276471 67.240991 235.169302 67.25 252.125 C67.250675 253.27141 67.251349 254.417819 67.252045 255.598969 C67.203761 307.400744 59.877583 357.093088 24 397 C22.9275 398.19625 21.855 399.3925 20.75 400.625 C0.943384 419.719148 -25.193888 430.601173 -52 435 C-52.582012 435.111504 -52.582012 435.111504 -55.527344 435.675781 C-92.20747 441.85216 -134.48555 434.995926 -165.519531 413.777344 C-166.338086 413.19082 -167.156641 412.604297 -168 412 C-168.911367 411.382539 -169.822734 410.765078 -170.761719 410.128906 C-183.217329 401.33182 -195.007985 390.052176 -203 377 C-203.5775 376.132461 -204.155 375.264922 -204.75 374.371094 C-221.306843 349.286049 -228.431901 320.53765 -228.3125 290.6875 C-228.307585 289.230698 -228.302671 287.773896 -228.297607 286.272949 C-228.187131 276.148809 -227.49781 266.840161 -225 257 C-224.659688 255.482773 -224.319375 253.965547 -223.96875 252.402344 C-215.386051 216.47679 -193.013379 184.529716 -161.988281 164.417969 C-132.940483 146.807208 -103.408018 139.92757 -70.097656 147.355469 C-61.815194 149.417315 -54.450009 152.870215 -47 157 C-48.374325 151.375447 -49.88965 145.811324 -51.5 140.25 C-52.332166 137.342903 -53.161872 134.435109 -53.991699 131.527344 C-54.717678 128.987648 -55.446174 126.448671 -56.17627 123.910156 C-77.749702 48.707053 -77.749702 48.707053 -65 23 C-61.932725 17.701979 -58.569107 13.112196 -54 9 C-53.154375 8.195625 -52.30875 7.39125 -51.4375 6.5625 C-36.083266 -4.883384 -17.663597 -7.5103 0 0 Z M-29.8125 -0.5 C-31.345195 -0.221562 -32.877891 0.056875 -34.457031 0.34375 C-35.626211 0.560313 -36.795391 0.776875 -38 1 C-38 1.66 -38 2.32 -38 3 C-38.804375 3.020625 -39.60875 3.04125 -40.4375 3.0625 C-48.522885 5.190233 -55.262112 12.301216 -60 19 C-75.080647 45.373758 -67.406534 75.312756 -59.891602 103.098145 C-56.382765 115.691714 -52.719784 128.241455 -48.984375 140.769531 C-48.840604 141.257361 -48.840604 141.257361 -48.113037 143.726074 C-47.59699 145.473928 -47.072396 147.219293 -46.537354 148.961426 C-45.361338 152.947354 -44.966491 154.865964 -46 159 C-50.257307 158.417339 -53.076533 156.864542 -56.75 154.6875 C-79.939065 142.824463 -109.969378 145.287959 -134 153 C-149.510275 158.758766 -163.454082 167.246356 -176 178 C-176.681914 178.549141 -177.363828 179.098281 -178.066406 179.664062 C-183.00771 183.744747 -186.94055 188.376503 -190.917969 193.390625 C-192.521997 195.400927 -194.212998 197.34204 -195.9375 199.25 C-222.100875 231.286786 -229.056211 272.433369 -225.37915 312.783447 C-222.046589 342.031366 -209.079215 369.554571 -189 391 C-188.261367 391.791484 -187.522734 392.582969 -186.761719 393.398438 C-160.37578 420.752281 -124.284648 433.402252 -87.027344 435.246094 C-47.499403 435.810304 -9.717183 425.760145 19.699219 398.269531 C27.245152 390.826089 33.419477 383.012987 39 374 C39.670313 372.930078 40.340625 371.860156 41.03125 370.757812 C53.473292 350.037027 60.598448 324.936119 63.0625 300.9375 C63.218477 299.461523 63.374453 297.985547 63.535156 296.464844 C64.772363 282.793176 65.167065 269.160483 65.125 255.4375 C65.123892 255.022231 65.123892 255.022231 65.118286 252.920715 C64.952418 199.591645 57.599109 146.041434 46 94 C45.717695 92.725278 45.435391 91.450557 45.144531 90.137207 C29.671761 20.805347 29.671761 20.805347 5 5 C-6.541067 -0.940255 -16.982819 -2.850476 -29.8125 -0.5 Z " fill="#F8A6B1" transform="translate(290,47)" />
<path d="M0 0 C0.579434 0.138574 0.579434 0.138574 3.511719 0.839844 C23.534002 6.184045 40.356137 18.216543 51.3125 35.6875 C56.429316 48.763809 57.524404 61.258874 52.277344 74.367188 C48.024952 83.132055 41.691141 88.690245 33 93 C23.687735 96.211496 12.752136 96.779779 3.675781 92.539062 C-3.41896 88.458292 -10.356136 83.957035 -16.714844 78.796875 C-22.555186 74.204469 -28.770626 73.397552 -36 74 C-40.724893 75.232581 -43.245569 76.151265 -46.5 79.8125 C-48.203043 83.431466 -48.708308 85.064957 -48 89 C-42.234929 102.747478 -23.501968 107.618444 -10.833984 113.168701 C16.749594 125.263526 42.618895 139.668831 54.3125 168.875 C62.591916 192.322307 60.1412 217.518317 49.660156 239.855469 C38.837809 261.11044 19.893177 273.829042 -2 282 C-17.391193 286.727821 -32.637078 288.374921 -48.6875 288.3125 C-50.18394 288.307585 -51.680381 288.302671 -53.222168 288.297607 C-84.762988 287.96396 -116.326397 278.909786 -139 256 C-149.548963 244.668106 -152.339691 232.324325 -152.210938 217.234375 C-151.65294 206.033093 -146.852253 196.391487 -138.8125 188.625 C-130.857196 182.075133 -122.6054 180.283666 -112.421875 180.617188 C-100.031689 182.003304 -90.257452 189.26923 -80.5625 196.5625 C-70.245704 204.160541 -61.177741 209.019525 -48 208 C-42.701186 206.492935 -39.114622 204.496777 -35.8125 200.0625 C-34.818561 196.316115 -34.677763 194.672881 -36 191 C-43.722104 180.017452 -56.080827 176.515444 -68.007324 171.455078 C-87.911476 162.964719 -106.657592 153.495832 -122 138 C-122.442148 137.564297 -122.442148 137.564297 -124.679688 135.359375 C-138.8863 120.913594 -143.49443 103.573612 -143.351807 83.930664 C-142.805253 59.655366 -132.32729 39.747394 -115 23 C-111.15972 19.734491 -107.18284 16.810346 -103 14 C-102.113125 13.396719 -101.22625 12.793438 -100.3125 12.171875 C-71.028283 -6.297148 -32.906897 -8.72048 0 0 Z M-80.875 5.75 C-81.755591 6.109246 -82.636182 6.468491 -83.543457 6.838623 C-105.623502 15.982575 -121.926594 29.701261 -133 51 C-133.496289 51.916523 -133.992578 52.833047 -134.503906 53.777344 C-142.146582 68.948626 -144.010145 89.674643 -139.175781 105.964844 C-131.805454 124.990573 -120.351689 140.084833 -103 151 C-102.445059 151.359648 -102.445059 151.359648 -99.636719 153.179688 C-91.762127 158.118977 -83.839506 161.914423 -75.199219 165.320312 C-68.664179 167.934328 -62.342454 170.954534 -56 174 C-54.745742 174.5775 -53.491484 175.155 -52.199219 175.75 C-43.821352 179.713341 -36.970992 182.95426 -33.4375 192 C-32.94998 196.457325 -33.15145 198.917785 -35 203 C-39.003138 207.189331 -42.413479 208.735346 -48 210 C-64.619513 210.366607 -74.723937 203.35386 -87.851562 194.183594 C-99.039221 186.424412 -107.656119 182.868396 -121.4375 183.0625 C-130.971603 185.021562 -137.583779 189.530103 -143.34375 197.332031 C-150.283771 208.511357 -151.6357 220.936289 -149.539062 233.835938 C-143.935674 252.096392 -128.529177 264.084569 -112.46875 272.824219 C-81.471634 287.916346 -39.986148 291.522463 -7 281 C18.224127 272.027958 35.917296 259.632219 49.1875 236.125 C57.883394 216.334344 60.146986 192.222341 53.417969 171.476562 C48.854271 160.287331 43.060797 150.988513 34 143 C33.195625 142.13375 32.39125 141.2675 31.5625 140.375 C20.576514 130.192866 6.618133 122.944071 -7 117 C-9.294858 115.976967 -11.589697 114.95389 -13.884033 113.929688 C-18.378478 111.926179 -22.878003 109.933974 -27.381836 107.95166 C-37.092252 103.665062 -43.973199 100.040201 -50 91 C-50.30225 86.768506 -50.461093 83.268005 -49 79.25 C-44.917509 74.657198 -41.551333 72.355141 -35.492188 71.511719 C-23.581741 71.090642 -16.548857 74.343676 -8.007812 82.296875 C-4.650165 85.144997 -0.89763 86.966454 3 89 C3.45375 89.28875 3.45375 89.28875 5.75 90.75 C12.47563 94.486461 21.221906 93.342505 28.5625 92.4375 C37.724125 89.46965 43.863744 84.017571 49 76 C54.061228 65.703019 55.106862 53.010329 51.375 42.0625 C49.208918 36.95454 46.335631 32.41971 43 28 C42.398008 27.190469 41.796016 26.380938 41.175781 25.546875 C27.191413 9.177381 3.511107 1.147014 -17.4375 -0.625 C-38.794431 -1.920762 -60.830999 -2.451224 -80.875 5.75 Z " fill="#AE9ECD" transform="translate(1166,195)" />
<path d="M0 0 C16.64355 14.067462 27.056356 31.673897 28.957031 53.589844 C29.313573 66.781893 26.605197 78.519665 18.574219 89.175781 C9.885788 98.037981 -0.187609 103.278174 -12.550781 103.488281 C-24.937974 103.372709 -32.448909 99.63294 -41.425781 91.175781 C-44.753423 87.481166 -46.61828 83.775062 -48.613281 79.238281 C-51.783845 72.78899 -54.68435 68.88378 -61.425781 66.175781 C-69.372437 64.072255 -75.995875 66.205779 -83.425781 69.175781 C-86.988281 71.300781 -86.988281 71.300781 -89.425781 73.175781 C-90.085781 73.505781 -90.085781 73.505781 -93.425781 75.175781 C-93.755781 75.835781 -93.755781 75.835781 -95.425781 79.175781 C-95.869219 79.629531 -95.869219 79.629531 -98.113281 81.925781 C-109.736627 95.176967 -111.43401 113.408163 -110.425781 130.175781 C-109.767265 134.641195 -108.758491 138.86611 -107.425781 143.175781 C-107.158945 144.045898 -106.892109 144.916016 -106.617188 145.8125 C-102.090618 158.627721 -93.659222 167.059061 -81.675781 173.050781 C-68.625252 177.568272 -54.81962 175.504682 -42.484375 169.820312 C-37.770473 167.319195 -33.326442 164.469963 -28.863281 161.550781 C-18.153644 154.728682 -9.491705 152.919388 3.234375 154.507812 C12.335998 156.564927 20.494371 162.920181 25.886719 170.371094 C32.564624 182.140902 34.391687 194.06408 30.886719 207.175781 C27.267956 218.78337 21.675806 228.02744 13.574219 237.175781 C12.914219 237.175781 12.254219 237.175781 11.574219 237.175781 C11.574219 237.835781 11.574219 238.495781 11.574219 239.175781 C-8.936415 257.78408 -36.99201 267.169037 -64.425781 268.175781 C-64.919492 268.201563 -64.919492 268.201563 -67.417969 268.332031 C-102.284904 269.316509 -135.989435 257.070531 -161.425781 233.175781 C-171.233211 223.34045 -179.191623 212.579159 -185.425781 200.175781 C-186.003281 199.067187 -186.580781 197.958594 -187.175781 196.816406 C-192.133834 186.857558 -194.928248 176.970363 -197.425781 166.175781 C-197.780273 164.688203 -198.134766 163.200625 -198.5 161.667969 C-200.678592 151.096741 -200.668166 140.547447 -200.675781 129.800781 C-200.676456 128.947855 -200.677131 128.094929 -200.677826 127.216156 C-200.662348 114.919167 -200.280424 103.192906 -197.425781 91.175781 C-197.085469 89.644375 -196.745156 88.112969 -196.394531 86.535156 C-188.381237 53.290814 -169.947037 20.991498 -141.363281 1.238281 C-140.621587 0.722495 -139.879893 0.206709 -139.115723 -0.324707 C-124.379983 -10.446257 -109.031298 -18.197434 -91.425781 -21.824219 C-90.532461 -22.02918 -89.639141 -22.234141 -88.71875 -22.445312 C-57.798495 -28.715854 -24.488349 -19.343457 0 0 Z M-158.425781 19.175781 C-161.582621 22.730257 -164.536301 26.40212 -167.425781 30.175781 C-167.967188 30.862852 -168.508594 31.549922 -169.066406 32.257812 C-176.274584 41.571537 -181.849478 51.343574 -186.425781 62.175781 C-186.678437 62.759727 -186.678437 62.759727 -187.957031 65.714844 C-202.923749 102.597113 -204.162441 150.316897 -189.140625 187.343506 C-187.74965 190.484283 -186.298201 193.58438 -184.800781 196.675781 C-184.275891 197.762944 -183.751001 198.850107 -183.210205 199.970215 C-177.574454 211.337051 -170.565787 220.387314 -161.425781 229.175781 C-160.580156 230.268906 -159.734531 231.362031 -158.863281 232.488281 C-142.129257 252.285031 -111.643046 262.887061 -86.425781 265.175781 C-54.880564 267.047524 -21.244496 263.639771 3.851562 242.402344 C6.822132 239.716229 9.719523 236.984298 12.574219 234.175781 C13.013145 233.747813 13.013145 233.747813 15.234375 231.582031 C24.621134 221.92887 30.574219 207.640263 30.574219 194.175781 C29.898418 183.321596 26.957042 173.816418 19.386719 165.800781 C8.143299 158.05941 -0.681056 154.731096 -14.5625 156.789062 C-20.402158 158.146773 -24.975602 161.279484 -29.925781 164.550781 C-45.676216 174.821807 -59.265442 178.991209 -78.300781 176.550781 C-90.720239 172.410962 -100.215976 163.945521 -106.363281 152.425781 C-114.526248 134.521161 -115.059422 113.683247 -108.425781 95.175781 C-101.850071 79.792708 -92.671902 70.973528 -77.425781 64.175781 C-68.596818 61.968541 -62.21986 62.755259 -54.425781 67.175781 C-50.552284 71.294739 -48.122857 75.47885 -45.675781 80.550781 C-40.807636 89.91897 -34.203691 96.824422 -24.070312 100.339844 C-11.545488 103.212633 -1.351104 100.977726 9.324219 94.363281 C18.711387 87.757496 23.973007 78.181841 26.199219 67.050781 C28.033359 48.098001 24.355548 31.656338 12.664062 16.371094 C5.763695 8.118569 -1.290168 0.93519 -10.425781 -4.824219 C-11.276562 -5.437813 -12.127344 -6.051406 -13.003906 -6.683594 C-17.161128 -9.28423 -21.503063 -11.10314 -26.050781 -12.886719 C-26.495105 -13.062072 -26.495105 -13.062072 -28.743652 -13.949463 C-75.573142 -32.087045 -124.082105 -15.262898 -158.425781 19.175781 Z " fill="#F8A6B1" transform="translate(703.42578125,214.82421875)" />
<path d="M0 0 C1.254258 0.350625 2.508516 0.70125 3.800781 1.0625 C17.649265 5.204103 30.273051 12.308107 41 22 C41.755391 22.67418 42.510781 23.348359 43.289062 24.042969 C59.737097 39.558383 69.997585 61.224003 71.203125 83.804688 C71.486368 108.399603 65.522162 130.207935 48.3125 148.3125 C26.424877 169.172405 -4.4005 177.474231 -33.9375 178.535156 C-35.058179 178.578133 -36.178857 178.621111 -37.333496 178.66539 C-40.888884 178.800997 -44.444428 178.931819 -48 179.0625 C-50.420585 179.15398 -52.841158 179.245774 -55.261719 179.337891 C-61.174349 179.56222 -67.087124 179.782261 -73 180 C-71.584958 188.409341 -65.000066 194.814648 -58.375 199.875 C-47.985255 206.549527 -36.256781 209.526845 -24 208 C-19.517279 206.999891 -15.290128 205.630817 -11 204 C-9.515 203.443125 -8.03 202.88625 -6.5 202.3125 C-1.47214 199.976507 2.87147 196.659423 7.375 193.457031 C21.684615 183.757949 33.341287 178.799174 50.835938 181.425781 C58.413511 183.592701 64.664241 189.576654 69 196 C74.644582 207.70728 74.810659 221.43456 71.0625 233.8125 C62.620487 256.125242 43.880065 268.505284 23 278 C-11.650701 292.806348 -54.136285 293.703456 -89.446777 280.054199 C-120.702108 267.066655 -143.119241 243.113381 -156 212 C-170.12214 174.440412 -171.012534 132.289952 -159 94 C-158.747344 93.178062 -158.494688 92.356123 -158.234375 91.509277 C-147.174746 55.978865 -122.935346 26.511636 -90 9 C-62.553208 -4.482635 -29.571455 -9.315774 0 0 Z M-74 5 C-75.100859 5.369961 -76.201719 5.739922 -77.335938 6.121094 C-91.489263 11.073044 -103.417508 19.659801 -115 29 C-115.946172 29.71543 -116.892344 30.430859 -117.867188 31.167969 C-118.571016 31.772539 -119.274844 32.377109 -120 33 C-120 33.66 -120 34.32 -120 35 C-121.32 35.66 -122.64 36.32 -124 37 C-153.946846 68.435599 -165.647705 111.382688 -164.980957 153.89209 C-164.039126 187.073186 -155.55459 223.791826 -131.1875 248 C-130.135625 248.99 -129.08375 249.98 -128 251 C-127.247187 251.94875 -126.494375 252.8975 -125.71875 253.875 C-120.988778 259.311749 -114.94142 262.990856 -109 267 C-108.185313 267.559453 -107.370625 268.118906 -106.53125 268.695312 C-74.726561 289.189179 -35.587728 289.554726 0.4375 283.414062 C23.773706 278.309268 50.457464 264.98633 63.582031 244.542969 C68.339671 236.010672 71.147292 228.066921 71.1875 218.3125 C71.20168 216.761758 71.215859 215.211016 71.230469 213.613281 C70.798376 204.964109 68.780762 198.064513 62.9375 191.625 C60 189 60 189 58 189 C58 188.34 58 187.68 58 187 C49.148607 181.9708 40.971317 181.739802 31 183 C20.970783 186.287043 12.822668 192.478747 4.45166 198.69165 C-8.409881 207.934124 -24.49029 211.961399 -40.164062 209.503906 C-55.422343 206.01461 -65.799534 197.9564 -74.917969 185.359375 C-76.247181 182.46102 -75.919323 180.9971 -75 178 C-66.833364 177.307073 -58.759795 176.963099 -50.5625 177.0625 C-16.503604 177.282978 21.417852 171.633133 47 147 C60.629812 132.561224 67.801537 114.704966 69 95 C69.032871 94.49791 69.032871 94.49791 69.199219 91.957031 C69.717581 76.710038 66.507163 61.317996 59 48 C58.46375 47.048672 57.9275 46.097344 57.375 45.117188 C43.564279 22.163258 21.74172 8.184198 -3.75 1.375 C-26.690587 -4.084203 -51.891261 -3.407203 -74 5 Z " fill="#F8A6B1" transform="translate(913,195)" />
<path d="M0 0 C15.29604 9.816861 19.408612 24.287897 23.203125 41.347656 C28.01334 69.430822 26.188309 99.172976 26.185303 127.592285 C26.185222 131.603399 26.192166 135.614398 26.205811 139.625488 C26.549528 242.446883 26.549528 242.446883 5.1875 265.25 C-3.000167 273.049258 -11.879933 275.955722 -23.0625 276.25 C-35.263071 275.63225 -45.324152 271.675848 -54 263 C-56.222731 260.118484 -58.146187 257.129323 -60 254 C-60.70125 252.824375 -61.4025 251.64875 -62.125 250.4375 C-66.517964 240.040818 -68.293552 229.136781 -69.6875 218 C-69.747159 217.535978 -69.747159 217.535978 -70.049072 215.187744 C-72.682309 192.276871 -72.187983 169.047944 -72.185303 146.022949 C-72.185222 142.442168 -72.192125 138.861516 -72.205811 135.280762 C-72.594687 31.820373 -72.594687 31.820373 -49.210938 7.085938 C-36.16789 -5.219694 -16.066447 -8.978309 0 0 Z M-50.136719 10.699219 C-65.391902 29.536332 -67.203557 53.804899 -68.6875 77.0625 C-68.750372 78.02401 -68.813244 78.985519 -68.878021 79.976166 C-70.164648 100.408689 -70.297438 120.845239 -70.3125 141.3125 C-70.315995 142.83167 -70.319489 144.35084 -70.32309 145.916046 C-70.446765 242.830024 -70.446765 242.830024 -50.957031 263.253906 C-42.712413 270.609883 -33.053021 273.744349 -22.046875 274.09375 C-11.66214 273.500337 -2.765289 269.843984 5 263 C26.113416 238.574676 23.472784 198.999294 23.433594 168.875 C23.438171 165.74593 23.44348 162.616861 23.449478 159.487793 C23.458344 152.97294 23.45606 146.45821 23.446045 139.943359 C23.43455 131.666781 23.454809 123.390628 23.483962 115.114105 C23.502457 108.665582 23.502006 102.217159 23.496325 95.768616 C23.496173 92.719904 23.502074 89.671184 23.514616 86.622498 C23.70354 33.200436 23.70354 33.200436 11.875 14.25 C11.377422 13.430156 10.879844 12.610312 10.367188 11.765625 C9.916016 11.182969 9.464844 10.600313 9 10 C8.34 10 7.68 10 7 10 C6.67 9.34 6.67 9.34 5 6 C-11.414611 -7.734674 -35.709451 -4.239881 -50.136719 10.699219 Z " fill="#F8A6B1" transform="translate(453,203)" />
<path d="M0 0 C16.6742 13.429317 19.742103 35.570981 21.964844 55.570312 C38.180834 215.052944 38.180834 215.052944 6.964844 255.570312 C-1.941728 265.844621 -11.156521 270.598297 -24.6875 271.929688 C-37.196357 272.394413 -47.693367 268.945709 -57.035156 260.570312 C-74.338764 242.342367 -74.966159 214.50003 -75.597656 190.757812 C-75.63939 189.189023 -75.681123 187.620234 -75.724121 186.003906 C-76.199593 166.193236 -76.216818 146.38507 -76.035156 126.570312 C-76.026556 125.62835 -76.017955 124.686388 -76.009094 123.715881 C-75.040389 25.321903 -75.040389 25.321903 -53.320312 2.695312 C-38.815243 -10.793162 -15.998523 -11.238885 0 0 Z M-51.035156 3.570312 C-51.035156 4.230312 -51.035156 4.890312 -51.035156 5.570312 C-51.695156 5.570312 -52.355156 5.570312 -53.035156 5.570312 C-70.195417 24.765037 -70.887514 53.52352 -72.636719 77.792969 C-72.702024 78.694069 -72.767329 79.59517 -72.834614 80.523577 C-74.204508 99.870725 -74.499919 119.169852 -74.42627 138.559326 C-74.409089 143.118615 -74.419441 147.677382 -74.436581 152.236654 C-74.705907 236.686698 -74.705907 236.686698 -57.035156 257.570312 C-48.248352 266.086754 -38.197572 269.705953 -26.035156 269.570312 C-13.005547 268.58894 -3.951303 264.162856 4.964844 254.570312 C6.992881 251.634487 8.412296 248.816549 9.964844 245.570312 C10.461133 244.643477 10.957422 243.716641 11.46875 242.761719 C17.717048 229.433105 18.483608 213.053975 19.964844 198.570312 C20.054439 197.727356 20.144034 196.8844 20.236343 196.0159 C21.306884 184.333733 21.148943 172.610653 21.167969 160.890625 C21.170796 159.705593 21.173624 158.52056 21.176537 157.299618 C21.191473 151.013382 21.200734 144.727169 21.205078 138.440918 C21.209443 133.309334 21.223263 128.177921 21.246094 123.046387 C21.674719 24.793583 21.674719 24.793583 1.96875 4.25 C-13.535421 -8.745699 -35.05335 -8.416042 -51.035156 3.570312 Z " fill="#AE9ECD" transform="translate(1880.03515625,208.4296875)" />
<path d="M0 0 C6.015889 4.144279 9.34586 9.428712 12.933594 15.710938 C14.660156 18.699219 14.660156 18.699219 17.660156 22.699219 C18.20543 22.240313 18.750703 21.781406 19.3125 21.308594 C28.173287 14.098791 36.775764 10.25247 48.355469 10.351562 C56.267052 11.183869 64.281179 14.819872 69.660156 20.699219 C77.586114 32.192698 79.531617 41.938476 77.660156 55.699219 C74.562062 72.555777 62.620621 85.009924 49.035156 94.574219 C46.920004 95.964319 44.795735 97.340708 42.660156 98.699219 C41.853203 99.240625 41.04625 99.782031 40.214844 100.339844 C27.685448 108.409624 12.69729 114.650936 -2.339844 113.699219 C-18.271527 109.273751 -32.922148 92.247488 -41.339844 78.699219 C-41.59959 78.306055 -41.59959 78.306055 -42.914062 76.316406 C-53.086198 60.379207 -56.623263 42.938569 -52.621094 24.363281 C-49.154376 12.737823 -42.863285 4.703084 -32.339844 -1.300781 C-22.025603 -6.457901 -9.99024 -5.55384 0 0 Z M-40.339844 6.699219 C-49.607029 18.459248 -52.190281 28.922447 -52.339844 43.699219 C-50.385733 58.15964 -43.789714 71.716279 -35.144531 83.28125 C-33.824564 85.049778 -32.563961 86.863043 -31.339844 88.699219 C-30.679844 88.699219 -30.019844 88.699219 -29.339844 88.699219 C-28.679844 90.019219 -28.019844 91.339219 -27.339844 92.699219 C-20.484024 100.877013 -11.839981 106.94915 -2.339844 111.699219 C18.666419 113.290602 40.04805 99.226397 55.542969 86.292969 C62.495978 80.191752 62.495978 80.191752 63.660156 76.699219 C64.320156 76.699219 64.980156 76.699219 65.660156 76.699219 C67.316406 74.25 67.316406 74.25 69.160156 71.011719 C69.768594 69.955977 70.377031 68.900234 71.003906 67.8125 C76.316489 57.826348 77.57296 45.735073 74.941406 34.679688 C74.00563 32.223275 72.942687 29.991583 71.660156 27.699219 C71.000156 26.482344 70.340156 25.265469 69.660156 24.011719 C64.130169 17.905691 58.545827 14.276677 50.296875 13.050781 C40.461567 12.702775 32.763664 13.951382 24.660156 19.699219 C22.975666 21.347869 21.301764 23.007865 19.660156 24.699219 C18.010156 24.699219 16.360156 24.699219 14.660156 24.699219 C14.288906 23.729844 13.917656 22.760469 13.535156 21.761719 C9.117195 12.18947 3.419865 4.725506 -6.027344 -0.238281 C-18.215782 -3.24123 -30.593679 -1.52133 -40.339844 6.699219 Z " fill="#AE9ECD" transform="translate(432.33984375,52.30078125)" />
<path d="M0 0 C3.713788 2.613406 6.329798 5.657398 9.1875 9.1875 C10.1775 9.1875 11.1675 9.1875 12.1875 9.1875 C13.198125 7.970625 14.20875 6.75375 15.25 5.5 C20.062561 -0.275073 25.982094 -3.011149 33.1875 -4.8125 C43.547341 -5.673062 52.566532 -3.771999 61.082031 2.332031 C68.968581 9.282145 72.732678 18.05877 73.5 28.398438 C73.751949 37.799282 73.026203 45.588299 69.1875 54.1875 C68.836875 55.034414 68.48625 55.881328 68.125 56.753906 C64.947089 63.804897 60.311489 69.447281 55.1875 75.1875 C54.497852 75.960938 53.808203 76.734375 53.097656 77.53125 C41.401046 89.903084 25.578237 100.891622 8.3125 102.5625 C3.01338 102.080762 -1.036577 100.454642 -5.8125 98.1875 C-6.67875 97.786602 -7.545 97.385703 -8.4375 96.972656 C-16.555425 92.901894 -23.108981 87.254664 -29.8125 81.1875 C-30.566602 80.517188 -31.320703 79.846875 -32.097656 79.15625 C-43.784972 68.189226 -52.848844 53.26222 -54.136719 37.125 C-54.455236 24.823642 -52.86644 14.700557 -44.722656 5.15625 C-32.324242 -7.622484 -15.031707 -9.481921 0 0 Z M-45.125 9.4375 C-52.216594 19.332748 -52.774372 29.227835 -51.8125 41.1875 C-49.054454 56.584935 -38.360355 70.991903 -26.8125 81.1875 C-26.015859 81.913242 -25.219219 82.638984 -24.398438 83.386719 C-13.103449 93.199032 -0.416177 100.894412 14.875 99.875 C35.48076 94.68274 53.996327 76.449763 64.753906 58.710938 C71.347076 47.105522 73.409785 32.912756 70.125 19.875 C67.048641 11.024999 60.544961 4.699782 52.589844 0.113281 C47.751647 -2.003161 44.440715 -2.348481 39.1875 -2.3125 C37.681875 -2.322812 36.17625 -2.333125 34.625 -2.34375 C26.939823 -1.423694 22.055386 1.791316 16.9375 7.4375 C14.484375 10.140625 14.484375 10.140625 12.1875 12.1875 C10.8675 12.1875 9.5475 12.1875 8.1875 12.1875 C6.679719 10.220829 5.178543 8.247616 3.75 6.222656 C-0.134949 1.162511 -5.824169 -1.125646 -11.8125 -2.8125 C-26.364716 -3.996347 -34.86917 -0.624824 -45.125 9.4375 Z " fill="#F8A6B1" transform="translate(1843.8125,65.8125)" />
</g></svg>