<?xml version="1.0" encoding="UTF-8"?>
<svg xmlns="http://www.w3.org/2000/svg" width="2048" height="2048" viewBox="0 0 2048 2048" role="img" aria-label="Daisu D10 clean ImageGen UV template">
  <defs>
    <style>
      .background { fill: #111827; }
      .bleed { fill: #0e7490; fill-opacity: 0.32; stroke: #67e8f9; stroke-width: 6; }
      .safe { fill: #f59e0b; fill-opacity: 0.09; stroke: #fde68a; stroke-width: 4; stroke-dasharray: 18 12; }
    </style>
  </defs>
  <rect class="background" width="100%" height="100%" />
  <g id="uv-islands">
    <g id="d10-face-0" data-face-value="0" data-material-index="0">
      <polygon class="bleed" points="259.6,418.642 333.613,546.25 259.6,673.858 185.587,546.25" />
      <polygon class="safe" points="259.6,462.029 308.448,546.25 259.6,630.471 210.752,546.25" />
    </g>
    <g id="d10-face-1" data-face-value="1" data-material-index="6">
      <polygon class="bleed" points="641.8,418.642 715.813,546.25 641.8,673.858 567.787,546.25" />
      <polygon class="safe" points="641.8,462.029 690.648,546.25 641.8,630.471 592.952,546.25" />
    </g>
    <g id="d10-face-2" data-face-value="2" data-material-index="1">
      <polygon class="bleed" points="1024,418.642 1098.013,546.25 1024,673.858 949.987,546.25" />
      <polygon class="safe" points="1024,462.029 1072.848,546.25 1024,630.471 975.152,546.25" />
    </g>
    <g id="d10-face-3" data-face-value="3" data-material-index="5">
      <polygon class="bleed" points="1406.2,418.642 1480.213,546.25 1406.2,673.858 1332.187,546.25" />
      <polygon class="safe" points="1406.2,462.029 1455.048,546.25 1406.2,630.471 1357.352,546.25" />
    </g>
    <g id="d10-face-4" data-face-value="4" data-material-index="2">
      <polygon class="bleed" points="1788.4,418.642 1862.413,546.25 1788.4,673.858 1714.387,546.25" />
      <polygon class="safe" points="1788.4,462.029 1837.248,546.25 1788.4,630.471 1739.552,546.25" />
    </g>
    <g id="d10-face-5" data-face-value="5" data-material-index="9">
      <polygon class="bleed" points="259.6,1374.142 333.613,1501.75 259.6,1629.358 185.587,1501.75" />
      <polygon class="safe" points="259.6,1417.529 308.448,1501.75 259.6,1585.971 210.752,1501.75" />
    </g>
    <g id="d10-face-6" data-face-value="6" data-material-index="3">
      <polygon class="bleed" points="641.8,1374.142 715.813,1501.75 641.8,1629.358 567.787,1501.75" />
      <polygon class="safe" points="641.8,1417.529 690.648,1501.75 641.8,1585.971 592.952,1501.75" />
    </g>
    <g id="d10-face-7" data-face-value="7" data-material-index="8">
      <polygon class="bleed" points="1024,1374.142 1098.013,1501.75 1024,1629.358 949.987,1501.75" />
      <polygon class="safe" points="1024,1417.529 1072.848,1501.75 1024,1585.971 975.152,1501.75" />
    </g>
    <g id="d10-face-8" data-face-value="8" data-material-index="4">
      <polygon class="bleed" points="1406.2,1374.142 1480.213,1501.75 1406.2,1629.358 1332.187,1501.75" />
      <polygon class="safe" points="1406.2,1417.529 1455.048,1501.75 1406.2,1585.971 1357.352,1501.75" />
    </g>
    <g id="d10-face-9" data-face-value="9" data-material-index="7">
      <polygon class="bleed" points="1788.4,1374.142 1862.413,1501.75 1788.4,1629.358 1714.387,1501.75" />
      <polygon class="safe" points="1788.4,1417.529 1837.248,1501.75 1788.4,1585.971 1739.552,1501.75" />
    </g>
  </g>
</svg>
