<?xml version="1.0" encoding="UTF-8"?>
<svg xmlns="http://www.w3.org/2000/svg" width="2048" height="2048" viewBox="0 0 2048 2048" role="img" aria-label="Daisu D10 UV mask">
  <rect width="100%" height="100%" fill="#000000" />
  <g id="paintable-uv-islands" fill="#ffffff">
    <polygon points="259.6,418.642 333.613,546.25 259.6,673.858 185.587,546.25" />
    <polygon points="641.8,418.642 715.813,546.25 641.8,673.858 567.787,546.25" />
    <polygon points="1024,418.642 1098.013,546.25 1024,673.858 949.987,546.25" />
    <polygon points="1406.2,418.642 1480.213,546.25 1406.2,673.858 1332.187,546.25" />
    <polygon points="1788.4,418.642 1862.413,546.25 1788.4,673.858 1714.387,546.25" />
    <polygon points="259.6,1374.142 333.613,1501.75 259.6,1629.358 185.587,1501.75" />
    <polygon points="641.8,1374.142 715.813,1501.75 641.8,1629.358 567.787,1501.75" />
    <polygon points="1024,1374.142 1098.013,1501.75 1024,1629.358 949.987,1501.75" />
    <polygon points="1406.2,1374.142 1480.213,1501.75 1406.2,1629.358 1332.187,1501.75" />
    <polygon points="1788.4,1374.142 1862.413,1501.75 1788.4,1629.358 1714.387,1501.75" />
  </g>
</svg>
