<?xml version="1.0" encoding="UTF-8"?>
<svg xmlns="http://www.w3.org/2000/svg" width="2048" height="2048" viewBox="0 0 2048 2048" role="img" aria-label="Daisu D12 UV mask">
  <rect width="100%" height="100%" fill="#000000" />
  <g id="paintable-uv-islands" fill="#ffffff">
    <polygon points="307.375,222.127 464.178,336.052 404.285,520.385 210.465,520.385 150.572,336.052" />
    <polygon points="785.125,222.127 941.928,336.052 882.035,520.385 688.215,520.385 628.322,336.052" />
    <polygon points="1262.875,222.127 1419.678,336.052 1359.785,520.385 1165.965,520.385 1106.072,336.052" />
    <polygon points="1740.625,222.127 1897.428,336.052 1837.535,520.385 1643.715,520.385 1583.822,336.052" />
    <polygon points="307.375,859.128 464.178,973.052 404.285,1157.385 210.465,1157.385 150.572,973.052" />
    <polygon points="785.125,859.128 941.928,973.052 882.035,1157.385 688.215,1157.385 628.322,973.052" />
    <polygon points="1262.875,859.128 1419.678,973.052 1359.785,1157.385 1165.965,1157.385 1106.072,973.052" />
    <polygon points="1740.625,859.128 1897.428,973.052 1837.535,1157.385 1643.715,1157.385 1583.822,973.052" />
    <polygon points="307.375,1496.128 464.178,1610.052 404.285,1794.385 210.465,1794.385 150.572,1610.052" />
    <polygon points="785.125,1496.128 941.928,1610.052 882.035,1794.385 688.215,1794.385 628.322,1610.052" />
    <polygon points="1262.875,1496.128 1419.678,1610.052 1359.785,1794.385 1165.965,1794.385 1106.072,1610.052" />
    <polygon points="1740.625,1496.128 1897.428,1610.052 1837.535,1794.385 1643.715,1794.385 1583.822,1610.052" />
  </g>
</svg>
