<?xml version="1.0" encoding="UTF-8"?>
<svg xmlns="http://www.w3.org/2000/svg" width="2048" height="2048" viewBox="0 0 2048 2048" role="img" aria-label="Daisu D20 UV mask">
  <rect width="100%" height="100%" fill="#000000" />
  <g id="paintable-uv-islands" fill="#ffffff">
    <polygon points="259.6,179.767 370.112,371.179 149.088,371.179" />
    <polygon points="641.8,179.767 752.312,371.179 531.288,371.179" />
    <polygon points="1024,179.767 1134.512,371.179 913.488,371.179" />
    <polygon points="1406.2,179.767 1516.712,371.179 1295.688,371.179" />
    <polygon points="1788.4,179.767 1898.912,371.179 1677.888,371.179" />
    <polygon points="259.6,657.517 370.112,848.929 149.088,848.929" />
    <polygon points="641.8,657.517 752.312,848.929 531.288,848.929" />
    <polygon points="1024,657.517 1134.512,848.929 913.488,848.929" />
    <polygon points="1406.2,657.517 1516.712,848.929 1295.688,848.929" />
    <polygon points="1788.4,657.517 1898.912,848.929 1677.888,848.929" />
    <polygon points="259.6,1135.267 370.112,1326.679 149.088,1326.679" />
    <polygon points="641.8,1135.267 752.312,1326.679 531.288,1326.679" />
    <polygon points="1024,1135.267 1134.512,1326.679 913.488,1326.679" />
    <polygon points="1406.2,1135.267 1516.712,1326.679 1295.688,1326.679" />
    <polygon points="1788.4,1135.267 1898.912,1326.679 1677.888,1326.679" />
    <polygon points="259.6,1613.017 370.112,1804.429 149.088,1804.429" />
    <polygon points="641.8,1613.017 752.312,1804.429 531.288,1804.429" />
    <polygon points="1024,1613.017 1134.512,1804.429 913.488,1804.429" />
    <polygon points="1406.2,1613.017 1516.712,1804.429 1295.688,1804.429" />
    <polygon points="1788.4,1613.017 1898.912,1804.429 1677.888,1804.429" />
  </g>
</svg>
