<?xml version="1.0" encoding="UTF-8"?>
<svg xmlns="http://www.w3.org/2000/svg" width="2048" height="2048" viewBox="0 0 2048 2048" role="img" aria-label="Daisu D8 clean ImageGen UV template">
  <defs>
    <style>
      .background { fill: #111827; }
      .bleed { fill: #0e7490; fill-opacity: 0.32; stroke: #67e8f9; stroke-width: 6; }
      .safe { fill: #f59e0b; fill-opacity: 0.09; stroke: #fde68a; stroke-width: 4; stroke-dasharray: 18 12; }
    </style>
  </defs>
  <rect class="background" width="100%" height="100%" />
  <g id="uv-islands">
    <g id="d8-face-1" data-face-value="1" data-material-index="0">
      <polygon class="bleed" points="307.375,381.377 450.159,628.686 164.591,628.686" />
      <polygon class="safe" points="307.375,437.434 401.612,600.658 213.138,600.658" />
    </g>
    <g id="d8-face-2" data-face-value="2" data-material-index="1">
      <polygon class="bleed" points="785.125,381.377 927.909,628.686 642.341,628.686" />
      <polygon class="safe" points="785.125,437.434 879.362,600.658 690.888,600.658" />
    </g>
    <g id="d8-face-3" data-face-value="3" data-material-index="2">
      <polygon class="bleed" points="1262.875,381.377 1405.659,628.686 1120.091,628.686" />
      <polygon class="safe" points="1262.875,437.434 1357.112,600.658 1168.638,600.658" />
    </g>
    <g id="d8-face-4" data-face-value="4" data-material-index="3">
      <polygon class="bleed" points="1740.625,381.377 1883.409,628.686 1597.841,628.686" />
      <polygon class="safe" points="1740.625,437.434 1834.862,600.658 1646.388,600.658" />
    </g>
    <g id="d8-face-5" data-face-value="5" data-material-index="6">
      <polygon class="bleed" points="307.375,1336.878 450.159,1584.186 164.591,1584.186" />
      <polygon class="safe" points="307.375,1392.934 401.612,1556.158 213.138,1556.158" />
    </g>
    <g id="d8-face-6" data-face-value="6" data-material-index="7">
      <polygon class="bleed" points="785.125,1336.878 927.909,1584.186 642.341,1584.186" />
      <polygon class="safe" points="785.125,1392.934 879.362,1556.158 690.888,1556.158" />
    </g>
    <g id="d8-face-7" data-face-value="7" data-material-index="4">
      <polygon class="bleed" points="1262.875,1336.878 1405.659,1584.186 1120.091,1584.186" />
      <polygon class="safe" points="1262.875,1392.934 1357.112,1556.158 1168.638,1556.158" />
    </g>
    <g id="d8-face-8" data-face-value="8" data-material-index="5">
      <polygon class="bleed" points="1740.625,1336.878 1883.409,1584.186 1597.841,1584.186" />
      <polygon class="safe" points="1740.625,1392.934 1834.862,1556.158 1646.388,1556.158" />
    </g>
  </g>
</svg>
