<?xml version="1.0" encoding="UTF-8"?>
<svg xmlns="http://www.w3.org/2000/svg" width="2048" height="2048" viewBox="0 0 2048 2048" role="img" aria-label="D20 canonical mesh UV mask">
  <rect width="100%" height="100%" fill="#000000" />
  <g fill="#ffffff">
    <polygon points="179.032,432.696 393.827,266.316 142.341,163.488" />
    <polygon points="631.2,130.636 495.352,365.932 767.048,365.932" />
    <polygon points="888.152,209.068 1024,444.364 1159.848,209.068" />
    <polygon points="1261.373,266.316 1476.168,432.696 1512.859,163.488" />
    <polygon points="1673.752,365.932 1945.448,365.932 1809.6,130.636" />
    <polygon points="82.973,757.316 297.768,923.696 334.459,654.488" />
    <polygon points="474.336,778.5 709.632,914.348 709.632,642.652" />
    <polygon points="888.152,700.068 1024,935.364 1159.848,700.068" />
    <polygon points="1338.368,642.652 1338.368,914.348 1573.664,778.5" />
    <polygon points="1713.541,654.488 1750.232,923.696 1965.027,757.316" />
    <polygon points="393.827,1290.684 179.032,1124.304 142.341,1393.512" />
    <polygon points="788.064,1269.5 552.768,1133.652 552.768,1405.348" />
    <polygon points="1159.848,1347.932 1024,1112.636 888.152,1347.932" />
    <polygon points="1495.232,1405.348 1495.232,1133.652 1259.936,1269.5" />
    <polygon points="1905.659,1393.512 1868.968,1124.304 1654.173,1290.684" />
    <polygon points="374.248,1682.068 102.552,1682.068 238.4,1917.364" />
    <polygon points="690.568,1615.304 475.773,1781.684 727.259,1884.512" />
    <polygon points="1024,1603.636 888.152,1838.932 1159.848,1838.932" />
    <polygon points="1280.952,1682.068 1416.8,1917.364 1552.648,1682.068" />
    <polygon points="1965.027,1781.684 1750.232,1615.304 1713.541,1884.512" />
  </g>
</svg>
