<?xml version="1.0" encoding="UTF-8"?>
<svg xmlns="http://www.w3.org/2000/svg" width="2048" height="2048" viewBox="0 0 2048 2048" role="img" aria-label="D20 UV island mask">
  <rect width="100%" height="100%" fill="#000000" />
  <g fill="#ffffff">
    <polygon points="140.392,179.767 378.808,277.251 175.176,434.983" />
    <polygon points="641.8,196.863 769.408,417.887 514.192,417.887" />
    <polygon points="896.392,196.863 1151.608,196.863 1024,417.887" />
    <polygon points="1286.992,277.251 1525.408,179.767 1490.624,434.983" />
    <polygon points="1788.4,196.863 1916.008,417.887 1660.792,417.887" />
    <polygon points="140.392,755.001 378.808,657.517 344.024,912.733" />
    <polygon points="752.312,657.517 752.312,912.733 531.288,785.125" />
    <polygon points="896.392,674.613 1151.608,674.613 1024,895.637" />
    <polygon points="1295.688,657.517 1516.712,785.125 1295.688,912.733" />
    <polygon points="1669.192,657.517 1907.608,755.001 1703.976,912.733" />
    <polygon points="175.176,1135.267 378.808,1292.999 140.392,1390.483" />
    <polygon points="531.288,1135.267 752.312,1262.875 531.288,1390.483" />
    <polygon points="1024,1152.363 1151.608,1373.387 896.392,1373.387" />
    <polygon points="1516.712,1135.267 1516.712,1390.483 1295.688,1262.875" />
    <polygon points="1872.824,1135.267 1907.608,1390.483 1669.192,1292.999" />
    <polygon points="131.992,1630.113 387.208,1630.113 259.6,1851.137" />
    <polygon points="726.224,1613.017 761.008,1868.233 522.592,1770.749" />
    <polygon points="1024,1630.113 1151.608,1851.137 896.392,1851.137" />
    <polygon points="1278.592,1630.113 1533.808,1630.113 1406.2,1851.137" />
    <polygon points="1703.976,1613.017 1907.608,1770.749 1669.192,1868.233" />
  </g>
</svg>
