<svg xmlns="http://www.w3.org/2000/svg" viewBox="0 0 24 24" stroke="currentColor" stroke-width="2" fill="none" stroke-linecap="round" stroke-linejoin="round">
  <rect x="3" y="3" width="18" height="18" rx="4.5"/>
  <path fill="currentColor" stroke="none" d="M6.6 8a1.4 1.4 0 1 0 2.8 0a1.4 1.4 0 1 0-2.8 0M14.6 8a1.4 1.4 0 1 0 2.8 0a1.4 1.4 0 1 0-2.8 0M10.6 12a1.4 1.4 0 1 0 2.8 0a1.4 1.4 0 1 0-2.8 0M6.6 16a1.4 1.4 0 1 0 2.8 0a1.4 1.4 0 1 0-2.8 0M14.6 16a1.4 1.4 0 1 0 2.8 0a1.4 1.4 0 1 0-2.8 0"/>
</svg>
