<?xml version="1.0" encoding="UTF-8"?>
<svg xmlns="http://www.w3.org/2000/svg" width="2048" height="2048" viewBox="0 0 2048 2048" role="img" aria-label="D10 Codex ImageGen numbered edit target">
  <defs>
    <style>
      .background { fill: #07090d; }
      .trim { fill: #d6cfbf; stroke: #f4efe4; stroke-width: 4; }
      .panel { fill: #394452; stroke: #202833; stroke-width: 4; }
      .number { fill: #f7f1df; stroke: #171b22; stroke-width: 4; paint-order: stroke fill; font-family: Georgia, serif; font-weight: 700; text-anchor: middle; dominant-baseline: middle; }
    </style>
  </defs>
  <rect class="background" width="100%" height="100%" />
  <g id="numbered-imagegen-edit-target">
    <g id="d10-face-0" data-face-value="0" data-material-index="0">
      <polygon class="trim" points="259.6,418.642 360.23,625.116 259.6,673.858 158.97,625.117" />
      <polygon class="panel" points="259.6,449.268 336.079,606.188 259.6,643.232 183.121,606.189" />
      <text class="number" style="font-size:97.7px" x="259.6" y="548.25" transform="rotate(25.844 259.6 546.25)">0</text>
    </g>
    <g id="d10-face-1" data-face-value="1" data-material-index="6">
      <polygon class="trim" points="541.17,467.384 641.8,418.642 742.43,467.383 641.8,673.858" />
      <polygon class="panel" points="565.321,486.312 641.8,449.268 718.279,486.311 641.8,643.232" />
      <text class="number" style="font-size:97.7px" x="641.8" y="548.25" transform="rotate(25.844 641.8 546.25)">1</text>
    </g>
    <g id="d10-face-2" data-face-value="2" data-material-index="1">
      <polygon class="trim" points="1024,418.642 1124.63,625.117 1023.999,673.858 923.37,625.117" />
      <polygon class="panel" points="1024,449.268 1100.479,606.189 1023.999,643.232 947.521,606.189" />
      <text class="number" style="font-size:97.7px" x="1024" y="548.25" transform="rotate(-25.844 1024 546.25)">2</text>
    </g>
    <g id="d10-face-3" data-face-value="3" data-material-index="5">
      <polygon class="trim" points="1305.57,467.383 1406.201,418.642 1506.83,467.383 1406.2,673.858" />
      <polygon class="panel" points="1329.721,486.311 1406.201,449.268 1482.679,486.311 1406.2,643.232" />
      <text class="number" style="font-size:97.7px" x="1406.2" y="548.25" transform="rotate(-25.844 1406.2 546.25)">3</text>
    </g>
    <g id="d10-face-4" data-face-value="4" data-material-index="2">
      <polygon class="trim" points="1788.4,418.642 1889.031,625.117 1788.4,673.858 1687.769,625.117" />
      <polygon class="panel" points="1788.4,449.268 1864.88,606.189 1788.4,643.232 1711.92,606.189" />
      <text class="number" style="font-size:97.7px" x="1788.4" y="548.25" transform="rotate(25.843 1788.4 546.25)">4</text>
    </g>
    <g id="d10-face-5" data-face-value="5" data-material-index="9">
      <polygon class="trim" points="158.969,1422.883 259.6,1374.142 360.231,1422.883 259.6,1629.358" />
      <polygon class="panel" points="183.12,1441.811 259.6,1404.768 336.08,1441.811 259.6,1598.732" />
      <text class="number" style="font-size:97.7px" x="259.6" y="1503.75" transform="rotate(-25.843 259.6 1501.75)">5</text>
    </g>
    <g id="d10-face-6" data-face-value="6" data-material-index="3">
      <polygon class="trim" points="641.8,1374.142 742.43,1580.617 641.801,1629.358 541.17,1580.617" />
      <polygon class="panel" points="641.8,1404.768 718.279,1561.689 641.801,1598.732 565.321,1561.689" />
      <text class="number" style="font-size:97.7px" x="641.8" y="1503.75" transform="rotate(25.844 641.8 1501.75)">6</text>
    </g>
    <g id="d10-face-7" data-face-value="7" data-material-index="8">
      <polygon class="trim" points="923.37,1422.883 1023.999,1374.142 1124.63,1422.883 1024,1629.358" />
      <polygon class="panel" points="947.521,1441.811 1023.999,1404.768 1100.479,1441.811 1024,1598.732" />
      <text class="number" style="font-size:97.7px" x="1024" y="1503.75" transform="rotate(25.844 1024 1501.75)">7</text>
    </g>
    <g id="d10-face-8" data-face-value="8" data-material-index="4">
      <polygon class="trim" points="1406.2,1374.142 1506.83,1580.617 1406.2,1629.358 1305.57,1580.616" />
      <polygon class="panel" points="1406.2,1404.768 1482.679,1561.689 1406.2,1598.732 1329.721,1561.688" />
      <text class="number" style="font-size:97.7px" x="1406.2" y="1503.75" transform="rotate(-25.844 1406.2 1501.75)">8</text>
    </g>
    <g id="d10-face-9" data-face-value="9" data-material-index="7">
      <polygon class="trim" points="1687.77,1422.883 1788.4,1374.142 1889.03,1422.884 1788.4,1629.358" />
      <polygon class="panel" points="1711.921,1441.811 1788.4,1404.768 1864.879,1441.812 1788.4,1598.732" />
      <text class="number" style="font-size:97.7px" x="1788.4" y="1503.75" transform="rotate(-25.844 1788.4 1501.75)">9</text>
    </g>
  </g>
</svg>
