<?xml version="1.0" encoding="UTF-8"?>
<svg xmlns="http://www.w3.org/2000/svg" width="2048" height="2048" viewBox="0 0 2048 2048" role="img" aria-label="D10 UV island mask">
  <rect width="100%" height="100%" fill="#000000" />
  <g fill="#ffffff">
    <polygon points="259.6,418.642 360.23,625.116 259.6,673.858 158.97,625.117" />
    <polygon points="541.17,467.384 641.8,418.642 742.43,467.383 641.8,673.858" />
    <polygon points="1024,418.642 1124.63,625.117 1023.999,673.858 923.37,625.117" />
    <polygon points="1305.57,467.383 1406.201,418.642 1506.83,467.383 1406.2,673.858" />
    <polygon points="1788.4,418.642 1889.031,625.117 1788.4,673.858 1687.769,625.117" />
    <polygon points="158.969,1422.883 259.6,1374.142 360.231,1422.883 259.6,1629.358" />
    <polygon points="641.8,1374.142 742.43,1580.617 641.801,1629.358 541.17,1580.617" />
    <polygon points="923.37,1422.883 1023.999,1374.142 1124.63,1422.883 1024,1629.358" />
    <polygon points="1406.2,1374.142 1506.83,1580.617 1406.2,1629.358 1305.57,1580.616" />
    <polygon points="1687.77,1422.883 1788.4,1374.142 1889.03,1422.884 1788.4,1629.358" />
  </g>
</svg>
