<?xml version="1.0" encoding="UTF-8"?>
<svg xmlns="http://www.w3.org/2000/svg" width="2048" height="2048" viewBox="0 0 2048 2048" role="img" aria-label="D8 Codex ImageGen numbered edit target">
  <defs>
    <style>
      .background { fill: #07090d; }
      .trim { fill: #d6cfbf; stroke: #f4efe4; stroke-width: 4; }
      .panel { fill: #394452; stroke: #202833; stroke-width: 4; }
      .number { fill: #f7f1df; stroke: #171b22; stroke-width: 4; paint-order: stroke fill; font-family: Georgia, serif; font-weight: 700; text-anchor: middle; dominant-baseline: middle; }
    </style>
  </defs>
  <rect class="background" width="100%" height="100%" />
  <g id="numbered-imagegen-edit-target">
    <g id="d8-face-1" data-face-value="1" data-material-index="0">
      <polygon class="trim" points="307.375,403.466 472.248,689.034 142.502,689.034" />
      <polygon class="panel" points="307.375,432.023 439.273,660.477 175.477,660.477" />
      <text class="number" style="font-size:109.3px" x="307.375" y="548.25" transform="rotate(0 307.375 546.25)">1</text>
    </g>
    <g id="d8-face-2" data-face-value="2" data-material-index="1">
      <polygon class="trim" points="620.253,403.466 949.997,403.466 785.125,689.034" />
      <polygon class="panel" points="653.227,432.023 917.023,432.023 785.125,660.477" />
      <text class="number" style="font-size:109.3px" x="785.125" y="548.25" transform="rotate(0 785.125 546.25)">2</text>
    </g>
    <g id="d8-face-3" data-face-value="3" data-material-index="2">
      <polygon class="trim" points="1098.003,403.466 1427.747,403.466 1262.875,689.034" />
      <polygon class="panel" points="1130.977,432.023 1394.773,432.023 1262.875,660.477" />
      <text class="number" style="font-size:109.3px" x="1262.875" y="548.25" transform="rotate(0 1262.875 546.25)">3</text>
    </g>
    <g id="d8-face-4" data-face-value="4" data-material-index="3">
      <polygon class="trim" points="1740.625,403.466 1905.497,689.034 1575.753,689.034" />
      <polygon class="panel" points="1740.625,432.023 1872.523,660.477 1608.727,660.477" />
      <text class="number" style="font-size:109.3px" x="1740.625" y="548.25" transform="rotate(0 1740.625 546.25)">4</text>
    </g>
    <g id="d8-face-5" data-face-value="5" data-material-index="6">
      <polygon class="trim" points="142.502,1358.966 472.248,1358.966 307.375,1644.534" />
      <polygon class="panel" points="175.477,1387.523 439.273,1387.523 307.375,1615.977" />
      <text class="number" style="font-size:109.3px" x="307.375" y="1503.75" transform="rotate(0 307.375 1501.75)">5</text>
    </g>
    <g id="d8-face-6" data-face-value="6" data-material-index="7">
      <polygon class="trim" points="785.125,1358.966 949.997,1644.534 620.253,1644.534" />
      <polygon class="panel" points="785.125,1387.523 917.023,1615.977 653.227,1615.977" />
      <text class="number" style="font-size:109.3px" x="785.125" y="1503.75" transform="rotate(0 785.125 1501.75)">6</text>
    </g>
    <g id="d8-face-7" data-face-value="7" data-material-index="4">
      <polygon class="trim" points="1262.875,1358.966 1427.747,1644.534 1098.003,1644.534" />
      <polygon class="panel" points="1262.875,1387.523 1394.773,1615.977 1130.977,1615.977" />
      <text class="number" style="font-size:109.3px" x="1262.875" y="1503.75" transform="rotate(0 1262.875 1501.75)">7</text>
    </g>
    <g id="d8-face-8" data-face-value="8" data-material-index="5">
      <polygon class="trim" points="1575.753,1358.966 1905.497,1358.966 1740.625,1644.534" />
      <polygon class="panel" points="1608.727,1387.523 1872.523,1387.523 1740.625,1615.977" />
      <text class="number" style="font-size:109.3px" x="1740.625" y="1503.75" transform="rotate(0 1740.625 1501.75)">8</text>
    </g>
  </g>
</svg>
