<?xml version="1.0" encoding="UTF-8"?>
<svg xmlns="http://www.w3.org/2000/svg" width="2048" height="2048" viewBox="0 0 2048 2048" role="img" aria-label="D6 canonical numbered UV guide">
  <defs>
    <style>
      .background { fill: #070b12; }
      .island { fill: #12384a; stroke: #67e8f9; stroke-width: 7; }
      .safe { fill: #f59e0b; fill-opacity: 0.08; stroke: #fde68a; stroke-width: 4; stroke-dasharray: 16 11; }
      .number { fill: #fff7d6; stroke: #111827; stroke-width: 3; paint-order: stroke fill; font-family: Georgia, serif; font-weight: 700; text-anchor: middle; dominant-baseline: middle; }
      .mapping { fill: #b8c5d9; font: 700 26px Arial, sans-serif; text-anchor: middle; }
      .base-edge { stroke: #f97316; stroke-width: 12; opacity: 0.95; }
      .baseline { stroke: #f97316; stroke-width: 6; opacity: 0.86; }
    </style>
  </defs>
  <rect class="background" width="100%" height="100%" />
  <g id="canonical-numbered-islands">
    <g id="d6-face-1" data-face-value="1" data-material-index="3">
      <polygon class="island" points="160.02,319.27 613.98,319.27 613.98,773.23 160.02,773.23" />
      <polygon class="safe" points="237.193,396.443 536.807,396.443 536.807,696.057 237.193,696.057" />
      <line class="base-edge" x1="160.02" y1="319.27" x2="613.98" y2="319.27" />
      <g transform="rotate(0 387 546.25)">
        <text class="number" style="font-size:173.8px" x="387" y="548.25">1</text>
        <line class="baseline" x1="296.624" y1="620.984" x2="477.376" y2="620.984" />
      </g>
      <text class="mapping" x="387" y="301.27">D6 1 / M3 / +0 deg</text>
    </g>
    <g id="d6-face-2" data-face-value="2" data-material-index="4">
      <polygon class="island" points="797.02,319.27 1250.98,319.27 1250.98,773.23 797.02,773.23" />
      <polygon class="safe" points="874.193,396.443 1173.807,396.443 1173.807,696.057 874.193,696.057" />
      <line class="base-edge" x1="797.02" y1="319.27" x2="1250.98" y2="319.27" />
      <g transform="rotate(0 1024 546.25)">
        <text class="number" style="font-size:173.8px" x="1024" y="548.25">2</text>
        <line class="baseline" x1="933.624" y1="620.984" x2="1114.376" y2="620.984" />
      </g>
      <text class="mapping" x="1024" y="301.27">D6 2 / M4 / +0 deg</text>
    </g>
    <g id="d6-face-3" data-face-value="3" data-material-index="0">
      <polygon class="island" points="1434.02,319.27 1887.98,319.27 1887.98,773.23 1434.02,773.23" />
      <polygon class="safe" points="1511.193,396.443 1810.807,396.443 1810.807,696.057 1511.193,696.057" />
      <line class="base-edge" x1="1434.02" y1="319.27" x2="1887.98" y2="319.27" />
      <g transform="rotate(0 1661 546.25)">
        <text class="number" style="font-size:173.8px" x="1661" y="548.25">3</text>
        <line class="baseline" x1="1570.624" y1="620.984" x2="1751.376" y2="620.984" />
      </g>
      <text class="mapping" x="1661" y="301.27">D6 3 / M0 / +0 deg</text>
    </g>
    <g id="d6-face-4" data-face-value="4" data-material-index="1">
      <polygon class="island" points="160.02,1274.77 613.98,1274.77 613.98,1728.73 160.02,1728.73" />
      <polygon class="safe" points="237.193,1351.943 536.807,1351.943 536.807,1651.557 237.193,1651.557" />
      <line class="base-edge" x1="160.02" y1="1274.77" x2="613.98" y2="1274.77" />
      <g transform="rotate(0 387 1501.75)">
        <text class="number" style="font-size:173.8px" x="387" y="1503.75">4</text>
        <line class="baseline" x1="296.624" y1="1576.484" x2="477.376" y2="1576.484" />
      </g>
      <text class="mapping" x="387" y="1256.77">D6 4 / M1 / +0 deg</text>
    </g>
    <g id="d6-face-5" data-face-value="5" data-material-index="5">
      <polygon class="island" points="797.02,1274.77 1250.98,1274.77 1250.98,1728.73 797.02,1728.73" />
      <polygon class="safe" points="874.193,1351.943 1173.807,1351.943 1173.807,1651.557 874.193,1651.557" />
      <line class="base-edge" x1="797.02" y1="1274.77" x2="1250.98" y2="1274.77" />
      <g transform="rotate(0 1024 1501.75)">
        <text class="number" style="font-size:173.8px" x="1024" y="1503.75">5</text>
        <line class="baseline" x1="933.624" y1="1576.484" x2="1114.376" y2="1576.484" />
      </g>
      <text class="mapping" x="1024" y="1256.77">D6 5 / M5 / +0 deg</text>
    </g>
    <g id="d6-face-6" data-face-value="6" data-material-index="2">
      <polygon class="island" points="1434.02,1274.77 1887.98,1274.77 1887.98,1728.73 1434.02,1728.73" />
      <polygon class="safe" points="1511.193,1351.943 1810.807,1351.943 1810.807,1651.557 1511.193,1651.557" />
      <line class="base-edge" x1="1434.02" y1="1274.77" x2="1887.98" y2="1274.77" />
      <g transform="rotate(0 1661 1501.75)">
        <text class="number" style="font-size:173.8px" x="1661" y="1503.75">6</text>
        <line class="baseline" x1="1570.624" y1="1576.484" x2="1751.376" y2="1576.484" />
      </g>
      <text class="mapping" x="1661" y="1256.77">D6 6 / M2 / +0 deg</text>
    </g>
  </g>
</svg>
